%TF.GenerationSoftware,KiCad,Pcbnew,9.0.6*%
%TF.CreationDate,2025-12-07T22:25:54+09:00*%
%TF.ProjectId,tarakkie_v1_left_top2,74617261-6b6b-4696-955f-76315f6c6566,rev?*%
%TF.SameCoordinates,Original*%
%TF.FileFunction,Drillmap*%
%TF.FilePolarity,Positive*%
%FSLAX45Y45*%
G04 Gerber Fmt 4.5, Leading zero omitted, Abs format (unit mm)*
G04 Created by KiCad (PCBNEW 9.0.6) date 2025-12-07 22:25:54*
%MOMM*%
%LPD*%
G01*
G04 APERTURE LIST*
%ADD10C,0.050000*%
%ADD11C,0.150000*%
%ADD12C,0.200000*%
%ADD13C,0.220000*%
G04 APERTURE END LIST*
D10*
X18548348Y-11964625D02*
X16832015Y-16445591D01*
X15516250Y-3750000D02*
G75*
G02*
X15716250Y-3950000I0J-200000D01*
G01*
X15916250Y-11000000D02*
X18360000Y-11000000D01*
X16832015Y-16445591D02*
G75*
G02*
X16576898Y-16562012I-186775J71551D01*
G01*
X3900000Y-3959828D02*
G75*
G02*
X4099828Y-3759830I200000J-2D01*
G01*
X14200280Y-15701210D02*
X12346663Y-15384609D01*
X18560000Y-11200000D02*
X18560000Y-11897357D01*
X4099828Y-3759828D02*
X15516250Y-3750000D01*
X12313032Y-15381754D02*
X4099958Y-15380042D01*
X15716250Y-3950000D02*
X15716250Y-10800000D01*
X18360000Y-11000000D02*
G75*
G02*
X18560000Y-11200000I0J-200000D01*
G01*
X4099958Y-15380042D02*
G75*
G02*
X3899998Y-15180042I42J200002D01*
G01*
X14200280Y-15701210D02*
G75*
G02*
X14234956Y-15710396I-33660J-197110D01*
G01*
X16576898Y-16562012D02*
X14234956Y-15710397D01*
X3900000Y-15180042D02*
X3900000Y-3959828D01*
X18560000Y-11897357D02*
G75*
G02*
X18548349Y-11964625I-200000J-3D01*
G01*
X12313032Y-15381754D02*
G75*
G02*
X12346663Y-15384609I-42J-200006D01*
G01*
X15916250Y-11000000D02*
G75*
G02*
X15716250Y-10800000I0J200000D01*
G01*
D11*
X8772375Y-13677750D02*
X10182375Y-13677750D01*
X8772375Y-15087750D02*
X8772375Y-13677750D01*
X10182375Y-13677750D02*
X10182375Y-15087750D01*
X10182375Y-15087750D02*
X8772375Y-15087750D01*
X13820625Y-7867500D02*
X15230625Y-7867500D01*
X13820625Y-9277500D02*
X13820625Y-7867500D01*
X15230625Y-7867500D02*
X15230625Y-9277500D01*
X15230625Y-9277500D02*
X13820625Y-9277500D01*
X4295625Y-6915000D02*
X5705625Y-6915000D01*
X4295625Y-8325000D02*
X4295625Y-6915000D01*
X5705625Y-6915000D02*
X5705625Y-8325000D01*
X5705625Y-8325000D02*
X4295625Y-8325000D01*
X10010625Y-10248750D02*
X11420625Y-10248750D01*
X10010625Y-11658750D02*
X10010625Y-10248750D01*
X11420625Y-10248750D02*
X11420625Y-11658750D01*
X11420625Y-11658750D02*
X10010625Y-11658750D01*
X13820625Y-9772500D02*
X15230625Y-9772500D01*
X13820625Y-11182500D02*
X13820625Y-9772500D01*
X15230625Y-9772500D02*
X15230625Y-11182500D01*
X15230625Y-11182500D02*
X13820625Y-11182500D01*
X4295625Y-10725000D02*
X5705625Y-10725000D01*
X4295625Y-12135000D02*
X4295625Y-10725000D01*
X5705625Y-10725000D02*
X5705625Y-12135000D01*
X5705625Y-12135000D02*
X4295625Y-12135000D01*
X6200625Y-12630000D02*
X7610625Y-12630000D01*
X6200625Y-14040000D02*
X6200625Y-12630000D01*
X7610625Y-12630000D02*
X7610625Y-14040000D01*
X7610625Y-14040000D02*
X6200625Y-14040000D01*
X10677375Y-13677750D02*
X12087375Y-13677750D01*
X10677375Y-15087750D02*
X10677375Y-13677750D01*
X12087375Y-13677750D02*
X12087375Y-15087750D01*
X12087375Y-15087750D02*
X10677375Y-15087750D01*
X15725625Y-11677500D02*
X17135625Y-11677500D01*
X15725625Y-13087500D02*
X15725625Y-11677500D01*
X17135625Y-11677500D02*
X17135625Y-13087500D01*
X17135625Y-13087500D02*
X15725625Y-13087500D01*
X8105625Y-5486250D02*
X9515625Y-5486250D01*
X8105625Y-6896250D02*
X8105625Y-5486250D01*
X9515625Y-5486250D02*
X9515625Y-6896250D01*
X9515625Y-6896250D02*
X8105625Y-6896250D01*
X14546392Y-15523359D02*
X15028641Y-14198392D01*
X15028641Y-14198392D02*
X16353607Y-14680641D01*
X15871359Y-16005607D02*
X14546392Y-15523359D01*
X16353607Y-14680641D02*
X15871359Y-16005607D01*
X10010625Y-8343750D02*
X11420625Y-8343750D01*
X10010625Y-9753750D02*
X10010625Y-8343750D01*
X11420625Y-8343750D02*
X11420625Y-9753750D01*
X11420625Y-9753750D02*
X10010625Y-9753750D01*
X13820625Y-11677500D02*
X15230625Y-11677500D01*
X13820625Y-13087500D02*
X13820625Y-11677500D01*
X15230625Y-11677500D02*
X15230625Y-13087500D01*
X15230625Y-13087500D02*
X13820625Y-13087500D01*
X8105625Y-7391250D02*
X9515625Y-7391250D01*
X8105625Y-8801250D02*
X8105625Y-7391250D01*
X9515625Y-7391250D02*
X9515625Y-8801250D01*
X9515625Y-8801250D02*
X8105625Y-8801250D01*
X6200625Y-8820000D02*
X7610625Y-8820000D01*
X6200625Y-10230000D02*
X6200625Y-8820000D01*
X7610625Y-8820000D02*
X7610625Y-10230000D01*
X7610625Y-10230000D02*
X6200625Y-10230000D01*
X4295625Y-8820000D02*
X5705625Y-8820000D01*
X4295625Y-10230000D02*
X4295625Y-8820000D01*
X5705625Y-8820000D02*
X5705625Y-10230000D01*
X5705625Y-10230000D02*
X4295625Y-10230000D01*
X4295625Y-12630000D02*
X5705625Y-12630000D01*
X4295625Y-14040000D02*
X4295625Y-12630000D01*
X5705625Y-12630000D02*
X5705625Y-14040000D01*
X5705625Y-14040000D02*
X4295625Y-14040000D01*
X10010625Y-4533750D02*
X11420625Y-4533750D01*
X10010625Y-5943750D02*
X10010625Y-4533750D01*
X11420625Y-4533750D02*
X11420625Y-5943750D01*
X11420625Y-5943750D02*
X10010625Y-5943750D01*
X13820625Y-5962500D02*
X15230625Y-5962500D01*
X13820625Y-7372500D02*
X13820625Y-5962500D01*
X15230625Y-5962500D02*
X15230625Y-7372500D01*
X15230625Y-7372500D02*
X13820625Y-7372500D01*
X8105625Y-11201250D02*
X9515625Y-11201250D01*
X8105625Y-12611250D02*
X8105625Y-11201250D01*
X9515625Y-11201250D02*
X9515625Y-12611250D01*
X9515625Y-12611250D02*
X8105625Y-12611250D01*
X11915625Y-9296250D02*
X13325625Y-9296250D01*
X11915625Y-10706250D02*
X11915625Y-9296250D01*
X13325625Y-9296250D02*
X13325625Y-10706250D01*
X13325625Y-10706250D02*
X11915625Y-10706250D01*
X8105625Y-9296250D02*
X9515625Y-9296250D01*
X8105625Y-10706250D02*
X8105625Y-9296250D01*
X9515625Y-9296250D02*
X9515625Y-10706250D01*
X9515625Y-10706250D02*
X8105625Y-10706250D01*
X6200625Y-10725000D02*
X7610625Y-10725000D01*
X6200625Y-12135000D02*
X6200625Y-10725000D01*
X7610625Y-10725000D02*
X7610625Y-12135000D01*
X7610625Y-12135000D02*
X6200625Y-12135000D01*
X12630289Y-15135867D02*
X12875132Y-13747289D01*
X12875132Y-13747289D02*
X14263711Y-13992132D01*
X14018867Y-15380711D02*
X12630289Y-15135867D01*
X14263711Y-13992132D02*
X14018867Y-15380711D01*
X10010625Y-6438750D02*
X11420625Y-6438750D01*
X10010625Y-7848750D02*
X10010625Y-6438750D01*
X11420625Y-6438750D02*
X11420625Y-7848750D01*
X11420625Y-7848750D02*
X10010625Y-7848750D01*
X11915625Y-11201250D02*
X13325625Y-11201250D01*
X11915625Y-12611250D02*
X11915625Y-11201250D01*
X13325625Y-11201250D02*
X13325625Y-12611250D01*
X13325625Y-12611250D02*
X11915625Y-12611250D01*
X11915625Y-7391250D02*
X13325625Y-7391250D01*
X11915625Y-8801250D02*
X11915625Y-7391250D01*
X13325625Y-7391250D02*
X13325625Y-8801250D01*
X13325625Y-8801250D02*
X11915625Y-8801250D01*
X11915625Y-5486250D02*
X13325625Y-5486250D01*
X11915625Y-6896250D02*
X11915625Y-5486250D01*
X13325625Y-5486250D02*
X13325625Y-6896250D01*
X13325625Y-6896250D02*
X11915625Y-6896250D01*
X6200625Y-6915000D02*
X7610625Y-6915000D01*
X6200625Y-8325000D02*
X6200625Y-6915000D01*
X7610625Y-6915000D02*
X7610625Y-8325000D01*
X7610625Y-8325000D02*
X6200625Y-8325000D01*
D12*
D13*
X4210000Y-6110000D02*
X4430000Y-6330000D01*
X4430000Y-6110000D02*
X4210000Y-6330000D01*
X4230000Y-14750000D02*
X4450000Y-14970000D01*
X4450000Y-14750000D02*
X4230000Y-14970000D01*
X15130000Y-4206000D02*
X15350000Y-4426000D01*
X15350000Y-4206000D02*
X15130000Y-4426000D01*
X16410000Y-15980000D02*
X16630000Y-16200000D01*
X16630000Y-15980000D02*
X16410000Y-16200000D01*
X17959000Y-11426000D02*
X18179000Y-11646000D01*
X18179000Y-11426000D02*
X17959000Y-11646000D01*
D12*
X4158277Y-16888034D02*
X4158277Y-16688034D01*
X4158277Y-16688034D02*
X4205896Y-16688034D01*
X4205896Y-16688034D02*
X4234467Y-16697558D01*
X4234467Y-16697558D02*
X4253515Y-16716606D01*
X4253515Y-16716606D02*
X4263039Y-16735653D01*
X4263039Y-16735653D02*
X4272563Y-16773749D01*
X4272563Y-16773749D02*
X4272563Y-16802320D01*
X4272563Y-16802320D02*
X4263039Y-16840415D01*
X4263039Y-16840415D02*
X4253515Y-16859463D01*
X4253515Y-16859463D02*
X4234467Y-16878511D01*
X4234467Y-16878511D02*
X4205896Y-16888034D01*
X4205896Y-16888034D02*
X4158277Y-16888034D01*
X4358277Y-16888034D02*
X4358277Y-16754701D01*
X4358277Y-16792796D02*
X4367801Y-16773749D01*
X4367801Y-16773749D02*
X4377324Y-16764225D01*
X4377324Y-16764225D02*
X4396372Y-16754701D01*
X4396372Y-16754701D02*
X4415420Y-16754701D01*
X4482086Y-16888034D02*
X4482086Y-16754701D01*
X4482086Y-16688034D02*
X4472563Y-16697558D01*
X4472563Y-16697558D02*
X4482086Y-16707082D01*
X4482086Y-16707082D02*
X4491610Y-16697558D01*
X4491610Y-16697558D02*
X4482086Y-16688034D01*
X4482086Y-16688034D02*
X4482086Y-16707082D01*
X4605896Y-16888034D02*
X4586848Y-16878511D01*
X4586848Y-16878511D02*
X4577324Y-16859463D01*
X4577324Y-16859463D02*
X4577324Y-16688034D01*
X4710658Y-16888034D02*
X4691610Y-16878511D01*
X4691610Y-16878511D02*
X4682086Y-16859463D01*
X4682086Y-16859463D02*
X4682086Y-16688034D01*
X4939229Y-16888034D02*
X4939229Y-16688034D01*
X4939229Y-16688034D02*
X5005896Y-16830892D01*
X5005896Y-16830892D02*
X5072563Y-16688034D01*
X5072563Y-16688034D02*
X5072563Y-16888034D01*
X5253515Y-16888034D02*
X5253515Y-16783273D01*
X5253515Y-16783273D02*
X5243991Y-16764225D01*
X5243991Y-16764225D02*
X5224944Y-16754701D01*
X5224944Y-16754701D02*
X5186848Y-16754701D01*
X5186848Y-16754701D02*
X5167801Y-16764225D01*
X5253515Y-16878511D02*
X5234467Y-16888034D01*
X5234467Y-16888034D02*
X5186848Y-16888034D01*
X5186848Y-16888034D02*
X5167801Y-16878511D01*
X5167801Y-16878511D02*
X5158277Y-16859463D01*
X5158277Y-16859463D02*
X5158277Y-16840415D01*
X5158277Y-16840415D02*
X5167801Y-16821368D01*
X5167801Y-16821368D02*
X5186848Y-16811844D01*
X5186848Y-16811844D02*
X5234467Y-16811844D01*
X5234467Y-16811844D02*
X5253515Y-16802320D01*
X5348753Y-16754701D02*
X5348753Y-16954701D01*
X5348753Y-16764225D02*
X5367801Y-16754701D01*
X5367801Y-16754701D02*
X5405896Y-16754701D01*
X5405896Y-16754701D02*
X5424944Y-16764225D01*
X5424944Y-16764225D02*
X5434467Y-16773749D01*
X5434467Y-16773749D02*
X5443991Y-16792796D01*
X5443991Y-16792796D02*
X5443991Y-16849939D01*
X5443991Y-16849939D02*
X5434467Y-16868987D01*
X5434467Y-16868987D02*
X5424944Y-16878511D01*
X5424944Y-16878511D02*
X5405896Y-16888034D01*
X5405896Y-16888034D02*
X5367801Y-16888034D01*
X5367801Y-16888034D02*
X5348753Y-16878511D01*
X5529705Y-16868987D02*
X5539229Y-16878511D01*
X5539229Y-16878511D02*
X5529705Y-16888034D01*
X5529705Y-16888034D02*
X5520182Y-16878511D01*
X5520182Y-16878511D02*
X5529705Y-16868987D01*
X5529705Y-16868987D02*
X5529705Y-16888034D01*
X5529705Y-16764225D02*
X5539229Y-16773749D01*
X5539229Y-16773749D02*
X5529705Y-16783273D01*
X5529705Y-16783273D02*
X5520182Y-16773749D01*
X5520182Y-16773749D02*
X5529705Y-16764225D01*
X5529705Y-16764225D02*
X5529705Y-16783273D01*
X3697500Y-17116551D02*
X3897500Y-17316551D01*
X3897500Y-17116551D02*
X3697500Y-17316551D01*
X4148753Y-17127082D02*
X4158277Y-17117558D01*
X4158277Y-17117558D02*
X4177324Y-17108034D01*
X4177324Y-17108034D02*
X4224944Y-17108034D01*
X4224944Y-17108034D02*
X4243991Y-17117558D01*
X4243991Y-17117558D02*
X4253515Y-17127082D01*
X4253515Y-17127082D02*
X4263039Y-17146130D01*
X4263039Y-17146130D02*
X4263039Y-17165177D01*
X4263039Y-17165177D02*
X4253515Y-17193749D01*
X4253515Y-17193749D02*
X4139229Y-17308034D01*
X4139229Y-17308034D02*
X4263039Y-17308034D01*
X4348753Y-17288987D02*
X4358277Y-17298511D01*
X4358277Y-17298511D02*
X4348753Y-17308034D01*
X4348753Y-17308034D02*
X4339229Y-17298511D01*
X4339229Y-17298511D02*
X4348753Y-17288987D01*
X4348753Y-17288987D02*
X4348753Y-17308034D01*
X4434467Y-17127082D02*
X4443991Y-17117558D01*
X4443991Y-17117558D02*
X4463039Y-17108034D01*
X4463039Y-17108034D02*
X4510658Y-17108034D01*
X4510658Y-17108034D02*
X4529705Y-17117558D01*
X4529705Y-17117558D02*
X4539229Y-17127082D01*
X4539229Y-17127082D02*
X4548753Y-17146130D01*
X4548753Y-17146130D02*
X4548753Y-17165177D01*
X4548753Y-17165177D02*
X4539229Y-17193749D01*
X4539229Y-17193749D02*
X4424944Y-17308034D01*
X4424944Y-17308034D02*
X4548753Y-17308034D01*
X4672563Y-17108034D02*
X4691610Y-17108034D01*
X4691610Y-17108034D02*
X4710658Y-17117558D01*
X4710658Y-17117558D02*
X4720182Y-17127082D01*
X4720182Y-17127082D02*
X4729705Y-17146130D01*
X4729705Y-17146130D02*
X4739229Y-17184225D01*
X4739229Y-17184225D02*
X4739229Y-17231844D01*
X4739229Y-17231844D02*
X4729705Y-17269939D01*
X4729705Y-17269939D02*
X4720182Y-17288987D01*
X4720182Y-17288987D02*
X4710658Y-17298511D01*
X4710658Y-17298511D02*
X4691610Y-17308034D01*
X4691610Y-17308034D02*
X4672563Y-17308034D01*
X4672563Y-17308034D02*
X4653515Y-17298511D01*
X4653515Y-17298511D02*
X4643991Y-17288987D01*
X4643991Y-17288987D02*
X4634467Y-17269939D01*
X4634467Y-17269939D02*
X4624944Y-17231844D01*
X4624944Y-17231844D02*
X4624944Y-17184225D01*
X4624944Y-17184225D02*
X4634467Y-17146130D01*
X4634467Y-17146130D02*
X4643991Y-17127082D01*
X4643991Y-17127082D02*
X4653515Y-17117558D01*
X4653515Y-17117558D02*
X4672563Y-17108034D01*
X4863039Y-17108034D02*
X4882086Y-17108034D01*
X4882086Y-17108034D02*
X4901134Y-17117558D01*
X4901134Y-17117558D02*
X4910658Y-17127082D01*
X4910658Y-17127082D02*
X4920182Y-17146130D01*
X4920182Y-17146130D02*
X4929705Y-17184225D01*
X4929705Y-17184225D02*
X4929705Y-17231844D01*
X4929705Y-17231844D02*
X4920182Y-17269939D01*
X4920182Y-17269939D02*
X4910658Y-17288987D01*
X4910658Y-17288987D02*
X4901134Y-17298511D01*
X4901134Y-17298511D02*
X4882086Y-17308034D01*
X4882086Y-17308034D02*
X4863039Y-17308034D01*
X4863039Y-17308034D02*
X4843991Y-17298511D01*
X4843991Y-17298511D02*
X4834467Y-17288987D01*
X4834467Y-17288987D02*
X4824944Y-17269939D01*
X4824944Y-17269939D02*
X4815420Y-17231844D01*
X4815420Y-17231844D02*
X4815420Y-17184225D01*
X4815420Y-17184225D02*
X4824944Y-17146130D01*
X4824944Y-17146130D02*
X4834467Y-17127082D01*
X4834467Y-17127082D02*
X4843991Y-17117558D01*
X4843991Y-17117558D02*
X4863039Y-17108034D01*
X5015420Y-17308034D02*
X5015420Y-17174701D01*
X5015420Y-17193749D02*
X5024944Y-17184225D01*
X5024944Y-17184225D02*
X5043991Y-17174701D01*
X5043991Y-17174701D02*
X5072563Y-17174701D01*
X5072563Y-17174701D02*
X5091610Y-17184225D01*
X5091610Y-17184225D02*
X5101134Y-17203273D01*
X5101134Y-17203273D02*
X5101134Y-17308034D01*
X5101134Y-17203273D02*
X5110658Y-17184225D01*
X5110658Y-17184225D02*
X5129705Y-17174701D01*
X5129705Y-17174701D02*
X5158277Y-17174701D01*
X5158277Y-17174701D02*
X5177325Y-17184225D01*
X5177325Y-17184225D02*
X5186848Y-17203273D01*
X5186848Y-17203273D02*
X5186848Y-17308034D01*
X5282086Y-17308034D02*
X5282086Y-17174701D01*
X5282086Y-17193749D02*
X5291610Y-17184225D01*
X5291610Y-17184225D02*
X5310658Y-17174701D01*
X5310658Y-17174701D02*
X5339229Y-17174701D01*
X5339229Y-17174701D02*
X5358277Y-17184225D01*
X5358277Y-17184225D02*
X5367801Y-17203273D01*
X5367801Y-17203273D02*
X5367801Y-17308034D01*
X5367801Y-17203273D02*
X5377325Y-17184225D01*
X5377325Y-17184225D02*
X5396372Y-17174701D01*
X5396372Y-17174701D02*
X5424944Y-17174701D01*
X5424944Y-17174701D02*
X5443991Y-17184225D01*
X5443991Y-17184225D02*
X5453515Y-17203273D01*
X5453515Y-17203273D02*
X5453515Y-17308034D01*
X5843991Y-17098511D02*
X5672563Y-17355653D01*
X6101134Y-17108034D02*
X6120182Y-17108034D01*
X6120182Y-17108034D02*
X6139229Y-17117558D01*
X6139229Y-17117558D02*
X6148753Y-17127082D01*
X6148753Y-17127082D02*
X6158277Y-17146130D01*
X6158277Y-17146130D02*
X6167801Y-17184225D01*
X6167801Y-17184225D02*
X6167801Y-17231844D01*
X6167801Y-17231844D02*
X6158277Y-17269939D01*
X6158277Y-17269939D02*
X6148753Y-17288987D01*
X6148753Y-17288987D02*
X6139229Y-17298511D01*
X6139229Y-17298511D02*
X6120182Y-17308034D01*
X6120182Y-17308034D02*
X6101134Y-17308034D01*
X6101134Y-17308034D02*
X6082086Y-17298511D01*
X6082086Y-17298511D02*
X6072563Y-17288987D01*
X6072563Y-17288987D02*
X6063039Y-17269939D01*
X6063039Y-17269939D02*
X6053515Y-17231844D01*
X6053515Y-17231844D02*
X6053515Y-17184225D01*
X6053515Y-17184225D02*
X6063039Y-17146130D01*
X6063039Y-17146130D02*
X6072563Y-17127082D01*
X6072563Y-17127082D02*
X6082086Y-17117558D01*
X6082086Y-17117558D02*
X6101134Y-17108034D01*
X6253515Y-17288987D02*
X6263039Y-17298511D01*
X6263039Y-17298511D02*
X6253515Y-17308034D01*
X6253515Y-17308034D02*
X6243991Y-17298511D01*
X6243991Y-17298511D02*
X6253515Y-17288987D01*
X6253515Y-17288987D02*
X6253515Y-17308034D01*
X6386848Y-17108034D02*
X6405896Y-17108034D01*
X6405896Y-17108034D02*
X6424944Y-17117558D01*
X6424944Y-17117558D02*
X6434467Y-17127082D01*
X6434467Y-17127082D02*
X6443991Y-17146130D01*
X6443991Y-17146130D02*
X6453515Y-17184225D01*
X6453515Y-17184225D02*
X6453515Y-17231844D01*
X6453515Y-17231844D02*
X6443991Y-17269939D01*
X6443991Y-17269939D02*
X6434467Y-17288987D01*
X6434467Y-17288987D02*
X6424944Y-17298511D01*
X6424944Y-17298511D02*
X6405896Y-17308034D01*
X6405896Y-17308034D02*
X6386848Y-17308034D01*
X6386848Y-17308034D02*
X6367801Y-17298511D01*
X6367801Y-17298511D02*
X6358277Y-17288987D01*
X6358277Y-17288987D02*
X6348753Y-17269939D01*
X6348753Y-17269939D02*
X6339229Y-17231844D01*
X6339229Y-17231844D02*
X6339229Y-17184225D01*
X6339229Y-17184225D02*
X6348753Y-17146130D01*
X6348753Y-17146130D02*
X6358277Y-17127082D01*
X6358277Y-17127082D02*
X6367801Y-17117558D01*
X6367801Y-17117558D02*
X6386848Y-17108034D01*
X6567801Y-17193749D02*
X6548753Y-17184225D01*
X6548753Y-17184225D02*
X6539229Y-17174701D01*
X6539229Y-17174701D02*
X6529706Y-17155653D01*
X6529706Y-17155653D02*
X6529706Y-17146130D01*
X6529706Y-17146130D02*
X6539229Y-17127082D01*
X6539229Y-17127082D02*
X6548753Y-17117558D01*
X6548753Y-17117558D02*
X6567801Y-17108034D01*
X6567801Y-17108034D02*
X6605896Y-17108034D01*
X6605896Y-17108034D02*
X6624944Y-17117558D01*
X6624944Y-17117558D02*
X6634467Y-17127082D01*
X6634467Y-17127082D02*
X6643991Y-17146130D01*
X6643991Y-17146130D02*
X6643991Y-17155653D01*
X6643991Y-17155653D02*
X6634467Y-17174701D01*
X6634467Y-17174701D02*
X6624944Y-17184225D01*
X6624944Y-17184225D02*
X6605896Y-17193749D01*
X6605896Y-17193749D02*
X6567801Y-17193749D01*
X6567801Y-17193749D02*
X6548753Y-17203273D01*
X6548753Y-17203273D02*
X6539229Y-17212796D01*
X6539229Y-17212796D02*
X6529706Y-17231844D01*
X6529706Y-17231844D02*
X6529706Y-17269939D01*
X6529706Y-17269939D02*
X6539229Y-17288987D01*
X6539229Y-17288987D02*
X6548753Y-17298511D01*
X6548753Y-17298511D02*
X6567801Y-17308034D01*
X6567801Y-17308034D02*
X6605896Y-17308034D01*
X6605896Y-17308034D02*
X6624944Y-17298511D01*
X6624944Y-17298511D02*
X6634467Y-17288987D01*
X6634467Y-17288987D02*
X6643991Y-17269939D01*
X6643991Y-17269939D02*
X6643991Y-17231844D01*
X6643991Y-17231844D02*
X6634467Y-17212796D01*
X6634467Y-17212796D02*
X6624944Y-17203273D01*
X6624944Y-17203273D02*
X6605896Y-17193749D01*
X6815420Y-17108034D02*
X6777325Y-17108034D01*
X6777325Y-17108034D02*
X6758277Y-17117558D01*
X6758277Y-17117558D02*
X6748753Y-17127082D01*
X6748753Y-17127082D02*
X6729706Y-17155653D01*
X6729706Y-17155653D02*
X6720182Y-17193749D01*
X6720182Y-17193749D02*
X6720182Y-17269939D01*
X6720182Y-17269939D02*
X6729706Y-17288987D01*
X6729706Y-17288987D02*
X6739229Y-17298511D01*
X6739229Y-17298511D02*
X6758277Y-17308034D01*
X6758277Y-17308034D02*
X6796372Y-17308034D01*
X6796372Y-17308034D02*
X6815420Y-17298511D01*
X6815420Y-17298511D02*
X6824944Y-17288987D01*
X6824944Y-17288987D02*
X6834467Y-17269939D01*
X6834467Y-17269939D02*
X6834467Y-17222320D01*
X6834467Y-17222320D02*
X6824944Y-17203273D01*
X6824944Y-17203273D02*
X6815420Y-17193749D01*
X6815420Y-17193749D02*
X6796372Y-17184225D01*
X6796372Y-17184225D02*
X6758277Y-17184225D01*
X6758277Y-17184225D02*
X6739229Y-17193749D01*
X6739229Y-17193749D02*
X6729706Y-17203273D01*
X6729706Y-17203273D02*
X6720182Y-17222320D01*
X7005896Y-17108034D02*
X6967801Y-17108034D01*
X6967801Y-17108034D02*
X6948753Y-17117558D01*
X6948753Y-17117558D02*
X6939229Y-17127082D01*
X6939229Y-17127082D02*
X6920182Y-17155653D01*
X6920182Y-17155653D02*
X6910658Y-17193749D01*
X6910658Y-17193749D02*
X6910658Y-17269939D01*
X6910658Y-17269939D02*
X6920182Y-17288987D01*
X6920182Y-17288987D02*
X6929706Y-17298511D01*
X6929706Y-17298511D02*
X6948753Y-17308034D01*
X6948753Y-17308034D02*
X6986848Y-17308034D01*
X6986848Y-17308034D02*
X7005896Y-17298511D01*
X7005896Y-17298511D02*
X7015420Y-17288987D01*
X7015420Y-17288987D02*
X7024944Y-17269939D01*
X7024944Y-17269939D02*
X7024944Y-17222320D01*
X7024944Y-17222320D02*
X7015420Y-17203273D01*
X7015420Y-17203273D02*
X7005896Y-17193749D01*
X7005896Y-17193749D02*
X6986848Y-17184225D01*
X6986848Y-17184225D02*
X6948753Y-17184225D01*
X6948753Y-17184225D02*
X6929706Y-17193749D01*
X6929706Y-17193749D02*
X6920182Y-17203273D01*
X6920182Y-17203273D02*
X6910658Y-17222320D01*
X7101134Y-17108034D02*
X7101134Y-17146130D01*
X7177325Y-17108034D02*
X7177325Y-17146130D01*
X7472563Y-17384225D02*
X7463039Y-17374701D01*
X7463039Y-17374701D02*
X7443991Y-17346130D01*
X7443991Y-17346130D02*
X7434468Y-17327082D01*
X7434468Y-17327082D02*
X7424944Y-17298511D01*
X7424944Y-17298511D02*
X7415420Y-17250892D01*
X7415420Y-17250892D02*
X7415420Y-17212796D01*
X7415420Y-17212796D02*
X7424944Y-17165177D01*
X7424944Y-17165177D02*
X7434468Y-17136606D01*
X7434468Y-17136606D02*
X7443991Y-17117558D01*
X7443991Y-17117558D02*
X7463039Y-17088987D01*
X7463039Y-17088987D02*
X7472563Y-17079463D01*
X7643991Y-17108034D02*
X7548753Y-17108034D01*
X7548753Y-17108034D02*
X7539229Y-17203273D01*
X7539229Y-17203273D02*
X7548753Y-17193749D01*
X7548753Y-17193749D02*
X7567801Y-17184225D01*
X7567801Y-17184225D02*
X7615420Y-17184225D01*
X7615420Y-17184225D02*
X7634468Y-17193749D01*
X7634468Y-17193749D02*
X7643991Y-17203273D01*
X7643991Y-17203273D02*
X7653515Y-17222320D01*
X7653515Y-17222320D02*
X7653515Y-17269939D01*
X7653515Y-17269939D02*
X7643991Y-17288987D01*
X7643991Y-17288987D02*
X7634468Y-17298511D01*
X7634468Y-17298511D02*
X7615420Y-17308034D01*
X7615420Y-17308034D02*
X7567801Y-17308034D01*
X7567801Y-17308034D02*
X7548753Y-17298511D01*
X7548753Y-17298511D02*
X7539229Y-17288987D01*
X7891610Y-17308034D02*
X7891610Y-17108034D01*
X7977325Y-17308034D02*
X7977325Y-17203273D01*
X7977325Y-17203273D02*
X7967801Y-17184225D01*
X7967801Y-17184225D02*
X7948753Y-17174701D01*
X7948753Y-17174701D02*
X7920182Y-17174701D01*
X7920182Y-17174701D02*
X7901134Y-17184225D01*
X7901134Y-17184225D02*
X7891610Y-17193749D01*
X8101134Y-17308034D02*
X8082087Y-17298511D01*
X8082087Y-17298511D02*
X8072563Y-17288987D01*
X8072563Y-17288987D02*
X8063039Y-17269939D01*
X8063039Y-17269939D02*
X8063039Y-17212796D01*
X8063039Y-17212796D02*
X8072563Y-17193749D01*
X8072563Y-17193749D02*
X8082087Y-17184225D01*
X8082087Y-17184225D02*
X8101134Y-17174701D01*
X8101134Y-17174701D02*
X8129706Y-17174701D01*
X8129706Y-17174701D02*
X8148753Y-17184225D01*
X8148753Y-17184225D02*
X8158277Y-17193749D01*
X8158277Y-17193749D02*
X8167801Y-17212796D01*
X8167801Y-17212796D02*
X8167801Y-17269939D01*
X8167801Y-17269939D02*
X8158277Y-17288987D01*
X8158277Y-17288987D02*
X8148753Y-17298511D01*
X8148753Y-17298511D02*
X8129706Y-17308034D01*
X8129706Y-17308034D02*
X8101134Y-17308034D01*
X8282087Y-17308034D02*
X8263039Y-17298511D01*
X8263039Y-17298511D02*
X8253515Y-17279463D01*
X8253515Y-17279463D02*
X8253515Y-17108034D01*
X8434468Y-17298511D02*
X8415420Y-17308034D01*
X8415420Y-17308034D02*
X8377325Y-17308034D01*
X8377325Y-17308034D02*
X8358277Y-17298511D01*
X8358277Y-17298511D02*
X8348753Y-17279463D01*
X8348753Y-17279463D02*
X8348753Y-17203273D01*
X8348753Y-17203273D02*
X8358277Y-17184225D01*
X8358277Y-17184225D02*
X8377325Y-17174701D01*
X8377325Y-17174701D02*
X8415420Y-17174701D01*
X8415420Y-17174701D02*
X8434468Y-17184225D01*
X8434468Y-17184225D02*
X8443992Y-17203273D01*
X8443992Y-17203273D02*
X8443992Y-17222320D01*
X8443992Y-17222320D02*
X8348753Y-17241368D01*
X8520182Y-17298511D02*
X8539230Y-17308034D01*
X8539230Y-17308034D02*
X8577325Y-17308034D01*
X8577325Y-17308034D02*
X8596373Y-17298511D01*
X8596373Y-17298511D02*
X8605896Y-17279463D01*
X8605896Y-17279463D02*
X8605896Y-17269939D01*
X8605896Y-17269939D02*
X8596373Y-17250892D01*
X8596373Y-17250892D02*
X8577325Y-17241368D01*
X8577325Y-17241368D02*
X8548753Y-17241368D01*
X8548753Y-17241368D02*
X8529706Y-17231844D01*
X8529706Y-17231844D02*
X8520182Y-17212796D01*
X8520182Y-17212796D02*
X8520182Y-17203273D01*
X8520182Y-17203273D02*
X8529706Y-17184225D01*
X8529706Y-17184225D02*
X8548753Y-17174701D01*
X8548753Y-17174701D02*
X8577325Y-17174701D01*
X8577325Y-17174701D02*
X8596373Y-17184225D01*
X8672563Y-17384225D02*
X8682087Y-17374701D01*
X8682087Y-17374701D02*
X8701134Y-17346130D01*
X8701134Y-17346130D02*
X8710658Y-17327082D01*
X8710658Y-17327082D02*
X8720182Y-17298511D01*
X8720182Y-17298511D02*
X8729706Y-17250892D01*
X8729706Y-17250892D02*
X8729706Y-17212796D01*
X8729706Y-17212796D02*
X8720182Y-17165177D01*
X8720182Y-17165177D02*
X8710658Y-17136606D01*
X8710658Y-17136606D02*
X8701134Y-17117558D01*
X8701134Y-17117558D02*
X8682087Y-17088987D01*
X8682087Y-17088987D02*
X8672563Y-17079463D01*
X9034468Y-17384225D02*
X9024944Y-17374701D01*
X9024944Y-17374701D02*
X9005896Y-17346130D01*
X9005896Y-17346130D02*
X8996373Y-17327082D01*
X8996373Y-17327082D02*
X8986849Y-17298511D01*
X8986849Y-17298511D02*
X8977325Y-17250892D01*
X8977325Y-17250892D02*
X8977325Y-17212796D01*
X8977325Y-17212796D02*
X8986849Y-17165177D01*
X8986849Y-17165177D02*
X8996373Y-17136606D01*
X8996373Y-17136606D02*
X9005896Y-17117558D01*
X9005896Y-17117558D02*
X9024944Y-17088987D01*
X9024944Y-17088987D02*
X9034468Y-17079463D01*
X9110658Y-17174701D02*
X9110658Y-17308034D01*
X9110658Y-17193749D02*
X9120182Y-17184225D01*
X9120182Y-17184225D02*
X9139230Y-17174701D01*
X9139230Y-17174701D02*
X9167801Y-17174701D01*
X9167801Y-17174701D02*
X9186849Y-17184225D01*
X9186849Y-17184225D02*
X9196373Y-17203273D01*
X9196373Y-17203273D02*
X9196373Y-17308034D01*
X9320182Y-17308034D02*
X9301134Y-17298511D01*
X9301134Y-17298511D02*
X9291611Y-17288987D01*
X9291611Y-17288987D02*
X9282087Y-17269939D01*
X9282087Y-17269939D02*
X9282087Y-17212796D01*
X9282087Y-17212796D02*
X9291611Y-17193749D01*
X9291611Y-17193749D02*
X9301134Y-17184225D01*
X9301134Y-17184225D02*
X9320182Y-17174701D01*
X9320182Y-17174701D02*
X9348754Y-17174701D01*
X9348754Y-17174701D02*
X9367801Y-17184225D01*
X9367801Y-17184225D02*
X9377325Y-17193749D01*
X9377325Y-17193749D02*
X9386849Y-17212796D01*
X9386849Y-17212796D02*
X9386849Y-17269939D01*
X9386849Y-17269939D02*
X9377325Y-17288987D01*
X9377325Y-17288987D02*
X9367801Y-17298511D01*
X9367801Y-17298511D02*
X9348754Y-17308034D01*
X9348754Y-17308034D02*
X9320182Y-17308034D01*
X9443992Y-17174701D02*
X9520182Y-17174701D01*
X9472563Y-17108034D02*
X9472563Y-17279463D01*
X9472563Y-17279463D02*
X9482087Y-17298511D01*
X9482087Y-17298511D02*
X9501134Y-17308034D01*
X9501134Y-17308034D02*
X9520182Y-17308034D01*
X9739230Y-17174701D02*
X9739230Y-17374701D01*
X9739230Y-17184225D02*
X9758277Y-17174701D01*
X9758277Y-17174701D02*
X9796373Y-17174701D01*
X9796373Y-17174701D02*
X9815420Y-17184225D01*
X9815420Y-17184225D02*
X9824944Y-17193749D01*
X9824944Y-17193749D02*
X9834468Y-17212796D01*
X9834468Y-17212796D02*
X9834468Y-17269939D01*
X9834468Y-17269939D02*
X9824944Y-17288987D01*
X9824944Y-17288987D02*
X9815420Y-17298511D01*
X9815420Y-17298511D02*
X9796373Y-17308034D01*
X9796373Y-17308034D02*
X9758277Y-17308034D01*
X9758277Y-17308034D02*
X9739230Y-17298511D01*
X9948754Y-17308034D02*
X9929706Y-17298511D01*
X9929706Y-17298511D02*
X9920182Y-17279463D01*
X9920182Y-17279463D02*
X9920182Y-17108034D01*
X10110658Y-17308034D02*
X10110658Y-17203273D01*
X10110658Y-17203273D02*
X10101135Y-17184225D01*
X10101135Y-17184225D02*
X10082087Y-17174701D01*
X10082087Y-17174701D02*
X10043992Y-17174701D01*
X10043992Y-17174701D02*
X10024944Y-17184225D01*
X10110658Y-17298511D02*
X10091611Y-17308034D01*
X10091611Y-17308034D02*
X10043992Y-17308034D01*
X10043992Y-17308034D02*
X10024944Y-17298511D01*
X10024944Y-17298511D02*
X10015420Y-17279463D01*
X10015420Y-17279463D02*
X10015420Y-17260415D01*
X10015420Y-17260415D02*
X10024944Y-17241368D01*
X10024944Y-17241368D02*
X10043992Y-17231844D01*
X10043992Y-17231844D02*
X10091611Y-17231844D01*
X10091611Y-17231844D02*
X10110658Y-17222320D01*
X10177325Y-17174701D02*
X10253515Y-17174701D01*
X10205896Y-17108034D02*
X10205896Y-17279463D01*
X10205896Y-17279463D02*
X10215420Y-17298511D01*
X10215420Y-17298511D02*
X10234468Y-17308034D01*
X10234468Y-17308034D02*
X10253515Y-17308034D01*
X10396373Y-17298511D02*
X10377325Y-17308034D01*
X10377325Y-17308034D02*
X10339230Y-17308034D01*
X10339230Y-17308034D02*
X10320182Y-17298511D01*
X10320182Y-17298511D02*
X10310658Y-17279463D01*
X10310658Y-17279463D02*
X10310658Y-17203273D01*
X10310658Y-17203273D02*
X10320182Y-17184225D01*
X10320182Y-17184225D02*
X10339230Y-17174701D01*
X10339230Y-17174701D02*
X10377325Y-17174701D01*
X10377325Y-17174701D02*
X10396373Y-17184225D01*
X10396373Y-17184225D02*
X10405896Y-17203273D01*
X10405896Y-17203273D02*
X10405896Y-17222320D01*
X10405896Y-17222320D02*
X10310658Y-17241368D01*
X10577325Y-17308034D02*
X10577325Y-17108034D01*
X10577325Y-17298511D02*
X10558277Y-17308034D01*
X10558277Y-17308034D02*
X10520182Y-17308034D01*
X10520182Y-17308034D02*
X10501135Y-17298511D01*
X10501135Y-17298511D02*
X10491611Y-17288987D01*
X10491611Y-17288987D02*
X10482087Y-17269939D01*
X10482087Y-17269939D02*
X10482087Y-17212796D01*
X10482087Y-17212796D02*
X10491611Y-17193749D01*
X10491611Y-17193749D02*
X10501135Y-17184225D01*
X10501135Y-17184225D02*
X10520182Y-17174701D01*
X10520182Y-17174701D02*
X10558277Y-17174701D01*
X10558277Y-17174701D02*
X10577325Y-17184225D01*
X10653516Y-17384225D02*
X10663039Y-17374701D01*
X10663039Y-17374701D02*
X10682087Y-17346130D01*
X10682087Y-17346130D02*
X10691611Y-17327082D01*
X10691611Y-17327082D02*
X10701135Y-17298511D01*
X10701135Y-17298511D02*
X10710658Y-17250892D01*
X10710658Y-17250892D02*
X10710658Y-17212796D01*
X10710658Y-17212796D02*
X10701135Y-17165177D01*
X10701135Y-17165177D02*
X10691611Y-17136606D01*
X10691611Y-17136606D02*
X10682087Y-17117558D01*
X10682087Y-17117558D02*
X10663039Y-17088987D01*
X10663039Y-17088987D02*
X10653516Y-17079463D01*
M02*
