G04 #@! TF.GenerationSoftware,KiCad,Pcbnew,9.0.6*
G04 #@! TF.CreationDate,2025-12-07T22:25:45+09:00*
G04 #@! TF.ProjectId,tarakkie_v1_left_top2,74617261-6b6b-4696-955f-76315f6c6566,rev?*
G04 #@! TF.SameCoordinates,Original*
G04 #@! TF.FileFunction,Profile,NP*
%FSLAX46Y46*%
G04 Gerber Fmt 4.6, Leading zero omitted, Abs format (unit mm)*
G04 Created by KiCad (PCBNEW 9.0.6) date 2025-12-07 22:25:45*
%MOMM*%
%LPD*%
G01*
G04 APERTURE LIST*
G04 #@! TA.AperFunction,Profile*
%ADD10C,0.050000*%
G04 #@! TD*
G04 #@! TA.AperFunction,Profile*
%ADD11C,0.150000*%
G04 #@! TD*
G04 APERTURE END LIST*
D10*
X185483484Y-119646247D02*
X168320146Y-164455906D01*
X155162500Y-37500000D02*
G75*
G02*
X157162500Y-39500000I0J-2000000D01*
G01*
X159162500Y-110000000D02*
X183600000Y-110000000D01*
X168320146Y-164455906D02*
G75*
G02*
X165768976Y-165620122I-1867746J715506D01*
G01*
X39000000Y-39598279D02*
G75*
G02*
X40998278Y-37598301I2000000J-21D01*
G01*
X142002801Y-157012104D02*
X123466628Y-153846091D01*
X185600000Y-112000000D02*
X185600000Y-118973574D01*
X40998278Y-37598280D02*
X155162500Y-37500000D01*
X123130318Y-153817541D02*
X40999583Y-153800417D01*
X157162500Y-39500000D02*
X157162500Y-108000000D01*
X183600000Y-110000000D02*
G75*
G02*
X185600000Y-112000000I0J-2000000D01*
G01*
X40999583Y-153800417D02*
G75*
G02*
X38999983Y-151800417I417J2000017D01*
G01*
X142002801Y-157012104D02*
G75*
G02*
X142349562Y-157103962I-336601J-1971096D01*
G01*
X165768977Y-165620119D02*
X142349560Y-157103967D01*
X39000000Y-151800417D02*
X39000000Y-39598279D01*
X185600000Y-118973574D02*
G75*
G02*
X185483492Y-119646250I-2000000J-26D01*
G01*
X123130318Y-153817541D02*
G75*
G02*
X123466628Y-153846090I-418J-2000059D01*
G01*
X159162500Y-110000000D02*
G75*
G02*
X157162500Y-108000000I0J2000000D01*
G01*
D11*
X87723750Y-136777500D02*
X101823750Y-136777500D01*
X87723750Y-150877500D02*
X87723750Y-136777500D01*
X101823750Y-136777500D02*
X101823750Y-150877500D01*
X101823750Y-150877500D02*
X87723750Y-150877500D01*
X138206250Y-78675000D02*
X152306250Y-78675000D01*
X138206250Y-92775000D02*
X138206250Y-78675000D01*
X152306250Y-78675000D02*
X152306250Y-92775000D01*
X152306250Y-92775000D02*
X138206250Y-92775000D01*
X42956250Y-69150000D02*
X57056250Y-69150000D01*
X42956250Y-83250000D02*
X42956250Y-69150000D01*
X57056250Y-69150000D02*
X57056250Y-83250000D01*
X57056250Y-83250000D02*
X42956250Y-83250000D01*
X100106250Y-102487500D02*
X114206250Y-102487500D01*
X100106250Y-116587500D02*
X100106250Y-102487500D01*
X114206250Y-102487500D02*
X114206250Y-116587500D01*
X114206250Y-116587500D02*
X100106250Y-116587500D01*
X138206250Y-97725000D02*
X152306250Y-97725000D01*
X138206250Y-111825000D02*
X138206250Y-97725000D01*
X152306250Y-97725000D02*
X152306250Y-111825000D01*
X152306250Y-111825000D02*
X138206250Y-111825000D01*
X42956250Y-107250000D02*
X57056250Y-107250000D01*
X42956250Y-121350000D02*
X42956250Y-107250000D01*
X57056250Y-107250000D02*
X57056250Y-121350000D01*
X57056250Y-121350000D02*
X42956250Y-121350000D01*
X62006250Y-126300000D02*
X76106250Y-126300000D01*
X62006250Y-140400000D02*
X62006250Y-126300000D01*
X76106250Y-126300000D02*
X76106250Y-140400000D01*
X76106250Y-140400000D02*
X62006250Y-140400000D01*
X106773750Y-136777500D02*
X120873750Y-136777500D01*
X106773750Y-150877500D02*
X106773750Y-136777500D01*
X120873750Y-136777500D02*
X120873750Y-150877500D01*
X120873750Y-150877500D02*
X106773750Y-150877500D01*
X157256250Y-116775000D02*
X171356250Y-116775000D01*
X157256250Y-130875000D02*
X157256250Y-116775000D01*
X171356250Y-116775000D02*
X171356250Y-130875000D01*
X171356250Y-130875000D02*
X157256250Y-130875000D01*
X81056250Y-54862500D02*
X95156250Y-54862500D01*
X81056250Y-68962500D02*
X81056250Y-54862500D01*
X95156250Y-54862500D02*
X95156250Y-68962500D01*
X95156250Y-68962500D02*
X81056250Y-68962500D01*
X145463925Y-155233591D02*
X150286409Y-141983925D01*
X150286409Y-141983925D02*
X163536075Y-146806409D01*
X158713591Y-160056075D02*
X145463925Y-155233591D01*
X163536075Y-146806409D02*
X158713591Y-160056075D01*
X100106250Y-83437500D02*
X114206250Y-83437500D01*
X100106250Y-97537500D02*
X100106250Y-83437500D01*
X114206250Y-83437500D02*
X114206250Y-97537500D01*
X114206250Y-97537500D02*
X100106250Y-97537500D01*
X138206250Y-116775000D02*
X152306250Y-116775000D01*
X138206250Y-130875000D02*
X138206250Y-116775000D01*
X152306250Y-116775000D02*
X152306250Y-130875000D01*
X152306250Y-130875000D02*
X138206250Y-130875000D01*
X81056250Y-73912500D02*
X95156250Y-73912500D01*
X81056250Y-88012500D02*
X81056250Y-73912500D01*
X95156250Y-73912500D02*
X95156250Y-88012500D01*
X95156250Y-88012500D02*
X81056250Y-88012500D01*
X62006250Y-88200000D02*
X76106250Y-88200000D01*
X62006250Y-102300000D02*
X62006250Y-88200000D01*
X76106250Y-88200000D02*
X76106250Y-102300000D01*
X76106250Y-102300000D02*
X62006250Y-102300000D01*
X42956250Y-88200000D02*
X57056250Y-88200000D01*
X42956250Y-102300000D02*
X42956250Y-88200000D01*
X57056250Y-88200000D02*
X57056250Y-102300000D01*
X57056250Y-102300000D02*
X42956250Y-102300000D01*
X42956250Y-126300000D02*
X57056250Y-126300000D01*
X42956250Y-140400000D02*
X42956250Y-126300000D01*
X57056250Y-126300000D02*
X57056250Y-140400000D01*
X57056250Y-140400000D02*
X42956250Y-140400000D01*
X100106250Y-45337500D02*
X114206250Y-45337500D01*
X100106250Y-59437500D02*
X100106250Y-45337500D01*
X114206250Y-45337500D02*
X114206250Y-59437500D01*
X114206250Y-59437500D02*
X100106250Y-59437500D01*
X138206250Y-59625000D02*
X152306250Y-59625000D01*
X138206250Y-73725000D02*
X138206250Y-59625000D01*
X152306250Y-59625000D02*
X152306250Y-73725000D01*
X152306250Y-73725000D02*
X138206250Y-73725000D01*
X81056250Y-112012500D02*
X95156250Y-112012500D01*
X81056250Y-126112500D02*
X81056250Y-112012500D01*
X95156250Y-112012500D02*
X95156250Y-126112500D01*
X95156250Y-126112500D02*
X81056250Y-126112500D01*
X119156250Y-92962500D02*
X133256250Y-92962500D01*
X119156250Y-107062500D02*
X119156250Y-92962500D01*
X133256250Y-92962500D02*
X133256250Y-107062500D01*
X133256250Y-107062500D02*
X119156250Y-107062500D01*
X81056250Y-92962500D02*
X95156250Y-92962500D01*
X81056250Y-107062500D02*
X81056250Y-92962500D01*
X95156250Y-92962500D02*
X95156250Y-107062500D01*
X95156250Y-107062500D02*
X81056250Y-107062500D01*
X62006250Y-107250000D02*
X76106250Y-107250000D01*
X62006250Y-121350000D02*
X62006250Y-107250000D01*
X76106250Y-107250000D02*
X76106250Y-121350000D01*
X76106250Y-121350000D02*
X62006250Y-121350000D01*
X126302886Y-151358675D02*
X128751325Y-137472886D01*
X128751325Y-137472886D02*
X142637114Y-139921325D01*
X140188675Y-153807114D02*
X126302886Y-151358675D01*
X142637114Y-139921325D02*
X140188675Y-153807114D01*
X100106250Y-64387500D02*
X114206250Y-64387500D01*
X100106250Y-78487500D02*
X100106250Y-64387500D01*
X114206250Y-64387500D02*
X114206250Y-78487500D01*
X114206250Y-78487500D02*
X100106250Y-78487500D01*
X119156250Y-112012500D02*
X133256250Y-112012500D01*
X119156250Y-126112500D02*
X119156250Y-112012500D01*
X133256250Y-112012500D02*
X133256250Y-126112500D01*
X133256250Y-126112500D02*
X119156250Y-126112500D01*
X119156250Y-73912500D02*
X133256250Y-73912500D01*
X119156250Y-88012500D02*
X119156250Y-73912500D01*
X133256250Y-73912500D02*
X133256250Y-88012500D01*
X133256250Y-88012500D02*
X119156250Y-88012500D01*
X119156250Y-54862500D02*
X133256250Y-54862500D01*
X119156250Y-68962500D02*
X119156250Y-54862500D01*
X133256250Y-54862500D02*
X133256250Y-68962500D01*
X133256250Y-68962500D02*
X119156250Y-68962500D01*
X62006250Y-69150000D02*
X76106250Y-69150000D01*
X62006250Y-83250000D02*
X62006250Y-69150000D01*
X76106250Y-69150000D02*
X76106250Y-83250000D01*
X76106250Y-83250000D02*
X62006250Y-83250000D01*
M02*
