%TF.GenerationSoftware,KiCad,Pcbnew,9.0.6*%
%TF.CreationDate,2025-12-07T22:27:31+09:00*%
%TF.ProjectId,tarakkie_v1_left_bot2,74617261-6b6b-4696-955f-76315f6c6566,rev?*%
%TF.SameCoordinates,Original*%
%TF.FileFunction,Drillmap*%
%TF.FilePolarity,Positive*%
%FSLAX45Y45*%
G04 Gerber Fmt 4.5, Leading zero omitted, Abs format (unit mm)*
G04 Created by KiCad (PCBNEW 9.0.6) date 2025-12-07 22:27:31*
%MOMM*%
%LPD*%
G01*
G04 APERTURE LIST*
%ADD10C,0.050000*%
%ADD11C,0.200000*%
G04 APERTURE END LIST*
D10*
X18548348Y-11964625D02*
X16832015Y-16445591D01*
X18359828Y-3747552D02*
G75*
G02*
X18559998Y-3947552I172J-199998D01*
G01*
X16832015Y-16445591D02*
G75*
G02*
X16576900Y-16562006I-186765J71541D01*
G01*
X3900000Y-3959828D02*
G75*
G02*
X4099828Y-3759830I200000J-2D01*
G01*
X14200280Y-15701210D02*
X12346663Y-15384609D01*
X18560000Y-3947552D02*
X18560000Y-11897357D01*
X4099828Y-3759828D02*
X18359828Y-3747552D01*
X12313032Y-15381754D02*
X4099958Y-15380042D01*
X4099958Y-15380042D02*
G75*
G02*
X3899998Y-15180042I42J200002D01*
G01*
X14200280Y-15701210D02*
G75*
G02*
X14234956Y-15710396I-33670J-197140D01*
G01*
X16576898Y-16562012D02*
X14234956Y-15710397D01*
X3900000Y-15180042D02*
X3900000Y-3959828D01*
X18560000Y-11897357D02*
G75*
G02*
X18548348Y-11964624I-199970J-3D01*
G01*
X12313032Y-15381754D02*
G75*
G02*
X12346663Y-15384609I-42J-200006D01*
G01*
D11*
X4158277Y-16888032D02*
X4158277Y-16688031D01*
X4158277Y-16688031D02*
X4205896Y-16688031D01*
X4205896Y-16688031D02*
X4234467Y-16697555D01*
X4234467Y-16697555D02*
X4253515Y-16716603D01*
X4253515Y-16716603D02*
X4263039Y-16735650D01*
X4263039Y-16735650D02*
X4272563Y-16773746D01*
X4272563Y-16773746D02*
X4272563Y-16802317D01*
X4272563Y-16802317D02*
X4263039Y-16840412D01*
X4263039Y-16840412D02*
X4253515Y-16859460D01*
X4253515Y-16859460D02*
X4234467Y-16878508D01*
X4234467Y-16878508D02*
X4205896Y-16888032D01*
X4205896Y-16888032D02*
X4158277Y-16888032D01*
X4358277Y-16888032D02*
X4358277Y-16754698D01*
X4358277Y-16792793D02*
X4367801Y-16773746D01*
X4367801Y-16773746D02*
X4377324Y-16764222D01*
X4377324Y-16764222D02*
X4396372Y-16754698D01*
X4396372Y-16754698D02*
X4415420Y-16754698D01*
X4482086Y-16888032D02*
X4482086Y-16754698D01*
X4482086Y-16688031D02*
X4472563Y-16697555D01*
X4472563Y-16697555D02*
X4482086Y-16707079D01*
X4482086Y-16707079D02*
X4491610Y-16697555D01*
X4491610Y-16697555D02*
X4482086Y-16688031D01*
X4482086Y-16688031D02*
X4482086Y-16707079D01*
X4605896Y-16888032D02*
X4586848Y-16878508D01*
X4586848Y-16878508D02*
X4577324Y-16859460D01*
X4577324Y-16859460D02*
X4577324Y-16688031D01*
X4710658Y-16888032D02*
X4691610Y-16878508D01*
X4691610Y-16878508D02*
X4682086Y-16859460D01*
X4682086Y-16859460D02*
X4682086Y-16688031D01*
X4939229Y-16888032D02*
X4939229Y-16688031D01*
X4939229Y-16688031D02*
X5005896Y-16830889D01*
X5005896Y-16830889D02*
X5072563Y-16688031D01*
X5072563Y-16688031D02*
X5072563Y-16888032D01*
X5253515Y-16888032D02*
X5253515Y-16783270D01*
X5253515Y-16783270D02*
X5243991Y-16764222D01*
X5243991Y-16764222D02*
X5224944Y-16754698D01*
X5224944Y-16754698D02*
X5186848Y-16754698D01*
X5186848Y-16754698D02*
X5167801Y-16764222D01*
X5253515Y-16878508D02*
X5234467Y-16888032D01*
X5234467Y-16888032D02*
X5186848Y-16888032D01*
X5186848Y-16888032D02*
X5167801Y-16878508D01*
X5167801Y-16878508D02*
X5158277Y-16859460D01*
X5158277Y-16859460D02*
X5158277Y-16840412D01*
X5158277Y-16840412D02*
X5167801Y-16821365D01*
X5167801Y-16821365D02*
X5186848Y-16811841D01*
X5186848Y-16811841D02*
X5234467Y-16811841D01*
X5234467Y-16811841D02*
X5253515Y-16802317D01*
X5348753Y-16754698D02*
X5348753Y-16954698D01*
X5348753Y-16764222D02*
X5367801Y-16754698D01*
X5367801Y-16754698D02*
X5405896Y-16754698D01*
X5405896Y-16754698D02*
X5424944Y-16764222D01*
X5424944Y-16764222D02*
X5434467Y-16773746D01*
X5434467Y-16773746D02*
X5443991Y-16792793D01*
X5443991Y-16792793D02*
X5443991Y-16849936D01*
X5443991Y-16849936D02*
X5434467Y-16868984D01*
X5434467Y-16868984D02*
X5424944Y-16878508D01*
X5424944Y-16878508D02*
X5405896Y-16888032D01*
X5405896Y-16888032D02*
X5367801Y-16888032D01*
X5367801Y-16888032D02*
X5348753Y-16878508D01*
X5529705Y-16868984D02*
X5539229Y-16878508D01*
X5539229Y-16878508D02*
X5529705Y-16888032D01*
X5529705Y-16888032D02*
X5520182Y-16878508D01*
X5520182Y-16878508D02*
X5529705Y-16868984D01*
X5529705Y-16868984D02*
X5529705Y-16888032D01*
X5529705Y-16764222D02*
X5539229Y-16773746D01*
X5539229Y-16773746D02*
X5529705Y-16783270D01*
X5529705Y-16783270D02*
X5520182Y-16773746D01*
X5520182Y-16773746D02*
X5529705Y-16764222D01*
X5529705Y-16764222D02*
X5529705Y-16783270D01*
M02*
