%TF.GenerationSoftware,KiCad,Pcbnew,9.0.6*%
%TF.CreationDate,2025-12-07T22:16:42+09:00*%
%TF.ProjectId,tarakkie_v1_light_top2,74617261-6b6b-4696-955f-76315f6c6967,rev?*%
%TF.SameCoordinates,Original*%
%TF.FileFunction,Drillmap*%
%TF.FilePolarity,Positive*%
%FSLAX45Y45*%
G04 Gerber Fmt 4.5, Leading zero omitted, Abs format (unit mm)*
G04 Created by KiCad (PCBNEW 9.0.6) date 2025-12-07 22:16:42*
%MOMM*%
%LPD*%
G01*
G04 APERTURE LIST*
%ADD10C,0.050000*%
%ADD11C,0.150000*%
%ADD12C,0.200000*%
G04 APERTURE END LIST*
D10*
X5595382Y-15990801D02*
G75*
G02*
X5340259Y-15874382I-68352J187962D01*
G01*
X18072452Y-3188618D02*
G75*
G02*
X18272283Y-3388617I-172J-200002D01*
G01*
X7937324Y-15139186D02*
G75*
G02*
X7972000Y-15130000I68346J-187954D01*
G01*
X3623932Y-11393414D02*
X5340266Y-15874380D01*
X7972000Y-15130000D02*
X9825617Y-14813399D01*
X6456030Y-3378790D02*
G75*
G02*
X6656030Y-3178790I200000J0D01*
G01*
X6456030Y-3378790D02*
X6456030Y-10228790D01*
X18272280Y-14608831D02*
G75*
G02*
X18072322Y-14808830I-200000J1D01*
G01*
X3612280Y-10628790D02*
X3612280Y-11326147D01*
X6456030Y-10228790D02*
G75*
G02*
X6256030Y-10428790I-200000J0D01*
G01*
X3612280Y-10628790D02*
G75*
G02*
X3812280Y-10428790I200000J0D01*
G01*
X6256030Y-10428790D02*
X3812280Y-10428790D01*
X5595382Y-15990801D02*
X7937324Y-15139186D01*
X18072452Y-3188618D02*
X6656030Y-3178790D01*
X9859248Y-14810544D02*
X18072322Y-14808831D01*
X3623932Y-11393414D02*
G75*
G02*
X3612281Y-11326147I188288J67254D01*
G01*
X9825617Y-14813399D02*
G75*
G02*
X9859248Y-14810544I33673J-197151D01*
G01*
X18272280Y-14608831D02*
X18272280Y-3388617D01*
D11*
X14535000Y-10248750D02*
X15945000Y-10248750D01*
X14535000Y-11658750D02*
X14535000Y-10248750D01*
X15945000Y-10248750D02*
X15945000Y-11658750D01*
X15945000Y-11658750D02*
X14535000Y-11658750D01*
X12630000Y-8820000D02*
X14040000Y-8820000D01*
X12630000Y-10230000D02*
X12630000Y-8820000D01*
X14040000Y-8820000D02*
X14040000Y-10230000D01*
X14040000Y-10230000D02*
X12630000Y-10230000D01*
X10725000Y-9772500D02*
X12135000Y-9772500D01*
X10725000Y-11182500D02*
X10725000Y-9772500D01*
X12135000Y-9772500D02*
X12135000Y-11182500D01*
X12135000Y-11182500D02*
X10725000Y-11182500D01*
X8820000Y-10725000D02*
X10230000Y-10725000D01*
X8820000Y-12135000D02*
X8820000Y-10725000D01*
X10230000Y-10725000D02*
X10230000Y-12135000D01*
X10230000Y-12135000D02*
X8820000Y-12135000D01*
X5010000Y-11201250D02*
X6420000Y-11201250D01*
X5010000Y-12611250D02*
X5010000Y-11201250D01*
X6420000Y-11201250D02*
X6420000Y-12611250D01*
X6420000Y-12611250D02*
X5010000Y-12611250D01*
X10058250Y-13106250D02*
X11468250Y-13106250D01*
X10058250Y-14516250D02*
X10058250Y-13106250D01*
X11468250Y-13106250D02*
X11468250Y-14516250D01*
X11468250Y-14516250D02*
X10058250Y-14516250D01*
X11963250Y-13106250D02*
X13373250Y-13106250D01*
X11963250Y-14516250D02*
X11963250Y-13106250D01*
X13373250Y-13106250D02*
X13373250Y-14516250D01*
X13373250Y-14516250D02*
X11963250Y-14516250D01*
X6915000Y-5486250D02*
X8325000Y-5486250D01*
X6915000Y-6896250D02*
X6915000Y-5486250D01*
X8325000Y-5486250D02*
X8325000Y-6896250D01*
X8325000Y-6896250D02*
X6915000Y-6896250D01*
X6915000Y-11201250D02*
X8325000Y-11201250D01*
X6915000Y-12611250D02*
X6915000Y-11201250D01*
X8325000Y-11201250D02*
X8325000Y-12611250D01*
X8325000Y-12611250D02*
X6915000Y-12611250D01*
X8820000Y-8820000D02*
X10230000Y-8820000D01*
X8820000Y-10230000D02*
X8820000Y-8820000D01*
X10230000Y-8820000D02*
X10230000Y-10230000D01*
X10230000Y-10230000D02*
X8820000Y-10230000D01*
X16440000Y-12153750D02*
X17850000Y-12153750D01*
X16440000Y-13563750D02*
X16440000Y-12153750D01*
X17850000Y-12153750D02*
X17850000Y-13563750D01*
X17850000Y-13563750D02*
X16440000Y-13563750D01*
X14535000Y-8343750D02*
X15945000Y-8343750D01*
X14535000Y-9753750D02*
X14535000Y-8343750D01*
X15945000Y-8343750D02*
X15945000Y-9753750D01*
X15945000Y-9753750D02*
X14535000Y-9753750D01*
X16440000Y-10248750D02*
X17850000Y-10248750D01*
X16440000Y-11658750D02*
X16440000Y-10248750D01*
X17850000Y-10248750D02*
X17850000Y-11658750D01*
X17850000Y-11658750D02*
X16440000Y-11658750D01*
X14535000Y-12153750D02*
X15945000Y-12153750D01*
X14535000Y-13563750D02*
X14535000Y-12153750D01*
X15945000Y-12153750D02*
X15945000Y-13563750D01*
X15945000Y-13563750D02*
X14535000Y-13563750D01*
X10725000Y-5962500D02*
X12135000Y-5962500D01*
X10725000Y-7372500D02*
X10725000Y-5962500D01*
X12135000Y-5962500D02*
X12135000Y-7372500D01*
X12135000Y-7372500D02*
X10725000Y-7372500D01*
X8820000Y-5010000D02*
X10230000Y-5010000D01*
X8820000Y-6420000D02*
X8820000Y-5010000D01*
X10230000Y-5010000D02*
X10230000Y-6420000D01*
X10230000Y-6420000D02*
X8820000Y-6420000D01*
X6915000Y-9296250D02*
X8325000Y-9296250D01*
X6915000Y-10706250D02*
X6915000Y-9296250D01*
X8325000Y-9296250D02*
X8325000Y-10706250D01*
X8325000Y-10706250D02*
X6915000Y-10706250D01*
X10725000Y-4057500D02*
X12135000Y-4057500D01*
X10725000Y-5467500D02*
X10725000Y-4057500D01*
X12135000Y-4057500D02*
X12135000Y-5467500D01*
X12135000Y-5467500D02*
X10725000Y-5467500D01*
X14535000Y-6438750D02*
X15945000Y-6438750D01*
X14535000Y-7848750D02*
X14535000Y-6438750D01*
X15945000Y-6438750D02*
X15945000Y-7848750D01*
X15945000Y-7848750D02*
X14535000Y-7848750D01*
X16440000Y-6438750D02*
X17850000Y-6438750D01*
X16440000Y-7848750D02*
X16440000Y-6438750D01*
X17850000Y-6438750D02*
X17850000Y-7848750D01*
X17850000Y-7848750D02*
X16440000Y-7848750D01*
X12630000Y-10725000D02*
X14040000Y-10725000D01*
X12630000Y-12135000D02*
X12630000Y-10725000D01*
X14040000Y-10725000D02*
X14040000Y-12135000D01*
X14040000Y-12135000D02*
X12630000Y-12135000D01*
X12630000Y-6915000D02*
X14040000Y-6915000D01*
X12630000Y-8325000D02*
X12630000Y-6915000D01*
X14040000Y-6915000D02*
X14040000Y-8325000D01*
X14040000Y-8325000D02*
X12630000Y-8325000D01*
X7883289Y-13418132D02*
X9271868Y-13173289D01*
X8128132Y-14806711D02*
X7883289Y-13418132D01*
X9271868Y-13173289D02*
X9516711Y-14561867D01*
X9516711Y-14561867D02*
X8128132Y-14806711D01*
X16440000Y-8343750D02*
X17850000Y-8343750D01*
X16440000Y-9753750D02*
X16440000Y-8343750D01*
X17850000Y-8343750D02*
X17850000Y-9753750D01*
X17850000Y-9753750D02*
X16440000Y-9753750D01*
X6915000Y-7391250D02*
X8325000Y-7391250D01*
X6915000Y-8801250D02*
X6915000Y-7391250D01*
X8325000Y-7391250D02*
X8325000Y-8801250D01*
X8325000Y-8801250D02*
X6915000Y-8801250D01*
X10725000Y-7867500D02*
X12135000Y-7867500D01*
X10725000Y-9277500D02*
X10725000Y-7867500D01*
X12135000Y-7867500D02*
X12135000Y-9277500D01*
X12135000Y-9277500D02*
X10725000Y-9277500D01*
X12630000Y-5010000D02*
X14040000Y-5010000D01*
X12630000Y-6420000D02*
X12630000Y-5010000D01*
X14040000Y-5010000D02*
X14040000Y-6420000D01*
X14040000Y-6420000D02*
X12630000Y-6420000D01*
X5796392Y-14108641D02*
X7121359Y-13626392D01*
X6278641Y-15433607D02*
X5796392Y-14108641D01*
X7121359Y-13626392D02*
X7603607Y-14951359D01*
X7603607Y-14951359D02*
X6278641Y-15433607D01*
X8820000Y-6915000D02*
X10230000Y-6915000D01*
X8820000Y-8325000D02*
X8820000Y-6915000D01*
X10230000Y-6915000D02*
X10230000Y-8325000D01*
X10230000Y-8325000D02*
X8820000Y-8325000D01*
D12*
X3870557Y-16316828D02*
X3870557Y-16116828D01*
X3870557Y-16116828D02*
X3918176Y-16116828D01*
X3918176Y-16116828D02*
X3946747Y-16126351D01*
X3946747Y-16126351D02*
X3965795Y-16145399D01*
X3965795Y-16145399D02*
X3975319Y-16164447D01*
X3975319Y-16164447D02*
X3984843Y-16202542D01*
X3984843Y-16202542D02*
X3984843Y-16231113D01*
X3984843Y-16231113D02*
X3975319Y-16269209D01*
X3975319Y-16269209D02*
X3965795Y-16288256D01*
X3965795Y-16288256D02*
X3946747Y-16307304D01*
X3946747Y-16307304D02*
X3918176Y-16316828D01*
X3918176Y-16316828D02*
X3870557Y-16316828D01*
X4070557Y-16316828D02*
X4070557Y-16183494D01*
X4070557Y-16221590D02*
X4080081Y-16202542D01*
X4080081Y-16202542D02*
X4089604Y-16193018D01*
X4089604Y-16193018D02*
X4108652Y-16183494D01*
X4108652Y-16183494D02*
X4127700Y-16183494D01*
X4194366Y-16316828D02*
X4194366Y-16183494D01*
X4194366Y-16116828D02*
X4184843Y-16126351D01*
X4184843Y-16126351D02*
X4194366Y-16135875D01*
X4194366Y-16135875D02*
X4203890Y-16126351D01*
X4203890Y-16126351D02*
X4194366Y-16116828D01*
X4194366Y-16116828D02*
X4194366Y-16135875D01*
X4318176Y-16316828D02*
X4299128Y-16307304D01*
X4299128Y-16307304D02*
X4289605Y-16288256D01*
X4289605Y-16288256D02*
X4289605Y-16116828D01*
X4422938Y-16316828D02*
X4403890Y-16307304D01*
X4403890Y-16307304D02*
X4394366Y-16288256D01*
X4394366Y-16288256D02*
X4394366Y-16116828D01*
X4651509Y-16316828D02*
X4651509Y-16116828D01*
X4651509Y-16116828D02*
X4718176Y-16259685D01*
X4718176Y-16259685D02*
X4784843Y-16116828D01*
X4784843Y-16116828D02*
X4784843Y-16316828D01*
X4965795Y-16316828D02*
X4965795Y-16212066D01*
X4965795Y-16212066D02*
X4956271Y-16193018D01*
X4956271Y-16193018D02*
X4937224Y-16183494D01*
X4937224Y-16183494D02*
X4899128Y-16183494D01*
X4899128Y-16183494D02*
X4880081Y-16193018D01*
X4965795Y-16307304D02*
X4946747Y-16316828D01*
X4946747Y-16316828D02*
X4899128Y-16316828D01*
X4899128Y-16316828D02*
X4880081Y-16307304D01*
X4880081Y-16307304D02*
X4870557Y-16288256D01*
X4870557Y-16288256D02*
X4870557Y-16269209D01*
X4870557Y-16269209D02*
X4880081Y-16250161D01*
X4880081Y-16250161D02*
X4899128Y-16240637D01*
X4899128Y-16240637D02*
X4946747Y-16240637D01*
X4946747Y-16240637D02*
X4965795Y-16231113D01*
X5061033Y-16183494D02*
X5061033Y-16383494D01*
X5061033Y-16193018D02*
X5080081Y-16183494D01*
X5080081Y-16183494D02*
X5118176Y-16183494D01*
X5118176Y-16183494D02*
X5137224Y-16193018D01*
X5137224Y-16193018D02*
X5146747Y-16202542D01*
X5146747Y-16202542D02*
X5156271Y-16221590D01*
X5156271Y-16221590D02*
X5156271Y-16278732D01*
X5156271Y-16278732D02*
X5146747Y-16297780D01*
X5146747Y-16297780D02*
X5137224Y-16307304D01*
X5137224Y-16307304D02*
X5118176Y-16316828D01*
X5118176Y-16316828D02*
X5080081Y-16316828D01*
X5080081Y-16316828D02*
X5061033Y-16307304D01*
X5241986Y-16297780D02*
X5251509Y-16307304D01*
X5251509Y-16307304D02*
X5241986Y-16316828D01*
X5241986Y-16316828D02*
X5232462Y-16307304D01*
X5232462Y-16307304D02*
X5241986Y-16297780D01*
X5241986Y-16297780D02*
X5241986Y-16316828D01*
X5241986Y-16193018D02*
X5251509Y-16202542D01*
X5251509Y-16202542D02*
X5241986Y-16212066D01*
X5241986Y-16212066D02*
X5232462Y-16202542D01*
X5232462Y-16202542D02*
X5241986Y-16193018D01*
X5241986Y-16193018D02*
X5241986Y-16212066D01*
M02*
