%TF.GenerationSoftware,KiCad,Pcbnew,9.0.6*%
%TF.CreationDate,2025-12-07T22:10:17+09:00*%
%TF.ProjectId,tarakkie_v1_light,74617261-6b6b-4696-955f-76315f6c6967,rev?*%
%TF.SameCoordinates,Original*%
%TF.FileFunction,Drillmap*%
%TF.FilePolarity,Positive*%
%FSLAX45Y45*%
G04 Gerber Fmt 4.5, Leading zero omitted, Abs format (unit mm)*
G04 Created by KiCad (PCBNEW 9.0.6) date 2025-12-07 22:10:17*
%MOMM*%
%LPD*%
G01*
G04 APERTURE LIST*
%ADD10C,0.050000*%
%ADD11C,0.100000*%
%ADD12C,0.200000*%
%ADD13C,0.300000*%
%ADD14C,0.480000*%
G04 APERTURE END LIST*
D10*
X5595382Y-15990801D02*
G75*
G02*
X5340259Y-15874382I-68352J187962D01*
G01*
X18072452Y-3188618D02*
G75*
G02*
X18272283Y-3388617I-172J-200002D01*
G01*
X7937324Y-15139186D02*
G75*
G02*
X7972000Y-15130000I68346J-187954D01*
G01*
X3623932Y-11393414D02*
X5340266Y-15874380D01*
X7972000Y-15130000D02*
X9825617Y-14813399D01*
X6456030Y-3378790D02*
G75*
G02*
X6656030Y-3178790I200000J0D01*
G01*
X6456030Y-3378790D02*
X6456030Y-10228790D01*
X18272280Y-14608831D02*
G75*
G02*
X18072322Y-14808830I-200000J1D01*
G01*
X3612280Y-10628790D02*
X3612280Y-11326147D01*
X6456030Y-10228790D02*
G75*
G02*
X6256030Y-10428790I-200000J0D01*
G01*
X3612280Y-10628790D02*
G75*
G02*
X3812280Y-10428790I200000J0D01*
G01*
X6256030Y-10428790D02*
X3812280Y-10428790D01*
X5595382Y-15990801D02*
X7937324Y-15139186D01*
X18072452Y-3188618D02*
X6656030Y-3178790D01*
X9859248Y-14810544D02*
X18072322Y-14808831D01*
X3623932Y-11393414D02*
G75*
G02*
X3612281Y-11326147I188288J67254D01*
G01*
X9825617Y-14813399D02*
G75*
G02*
X9859248Y-14810544I33673J-197151D01*
G01*
X18272280Y-14608831D02*
X18272280Y-3388617D01*
D11*
X5060000Y-14650000D02*
X5180000Y-14865000D01*
X5180000Y-14435000D02*
X5060000Y-14650000D01*
X5180000Y-14865000D02*
X5420000Y-14865000D01*
X5420000Y-14435000D02*
X5180000Y-14435000D01*
X5420000Y-14865000D02*
X5540000Y-14650000D01*
X5540000Y-14650000D02*
X5420000Y-14435000D01*
X6760000Y-3700000D02*
X6880000Y-3915000D01*
X6880000Y-3485000D02*
X6760000Y-3700000D01*
X6880000Y-3915000D02*
X7120000Y-3915000D01*
X7120000Y-3485000D02*
X6880000Y-3485000D01*
X7120000Y-3915000D02*
X7240000Y-3700000D01*
X7240000Y-3700000D02*
X7120000Y-3485000D01*
X17566000Y-14344000D02*
X17686000Y-14559000D01*
X17686000Y-14129000D02*
X17566000Y-14344000D01*
X17686000Y-14559000D02*
X17926000Y-14559000D01*
X17926000Y-14129000D02*
X17686000Y-14129000D01*
X17926000Y-14559000D02*
X18046000Y-14344000D01*
X18046000Y-14344000D02*
X17926000Y-14129000D01*
X3910000Y-10950000D02*
X4030000Y-11165000D01*
X4030000Y-10735000D02*
X3910000Y-10950000D01*
X4030000Y-11165000D02*
X4270000Y-11165000D01*
X4270000Y-10735000D02*
X4030000Y-10735000D01*
X4270000Y-11165000D02*
X4390000Y-10950000D01*
X4390000Y-10950000D02*
X4270000Y-10735000D01*
X16980000Y-5834000D02*
X17100000Y-6049000D01*
X17100000Y-5619000D02*
X16980000Y-5834000D01*
X17100000Y-6049000D02*
X17340000Y-6049000D01*
X17340000Y-5619000D02*
X17100000Y-5619000D01*
X17340000Y-6049000D02*
X17460000Y-5834000D01*
X17460000Y-5834000D02*
X17340000Y-5619000D01*
D12*
D11*
X6165000Y-11301250D02*
X6265000Y-11401250D01*
X6265000Y-11301250D02*
X6165000Y-11401250D01*
X6930025Y-13787460D02*
X7030025Y-13887460D01*
X7030025Y-13787460D02*
X6930025Y-13887460D01*
X8070000Y-5586250D02*
X8170000Y-5686250D01*
X8170000Y-5586250D02*
X8070000Y-5686250D01*
X8070000Y-7491250D02*
X8170000Y-7591250D01*
X8170000Y-7491250D02*
X8070000Y-7591250D01*
X8070000Y-9396250D02*
X8170000Y-9496250D01*
X8170000Y-9396250D02*
X8070000Y-9496250D01*
X8070000Y-11301250D02*
X8170000Y-11401250D01*
X8170000Y-11301250D02*
X8070000Y-11401250D01*
X9046029Y-13306608D02*
X9146029Y-13406608D01*
X9146029Y-13306608D02*
X9046029Y-13406608D01*
X9975000Y-5110000D02*
X10075000Y-5210000D01*
X10075000Y-5110000D02*
X9975000Y-5210000D01*
X9975000Y-7015000D02*
X10075000Y-7115000D01*
X10075000Y-7015000D02*
X9975000Y-7115000D01*
X9975000Y-8920000D02*
X10075000Y-9020000D01*
X10075000Y-8920000D02*
X9975000Y-9020000D01*
X9975000Y-10825000D02*
X10075000Y-10925000D01*
X10075000Y-10825000D02*
X9975000Y-10925000D01*
X11213250Y-13206250D02*
X11313250Y-13306250D01*
X11313250Y-13206250D02*
X11213250Y-13306250D01*
X11880000Y-4157500D02*
X11980000Y-4257500D01*
X11980000Y-4157500D02*
X11880000Y-4257500D01*
X11880000Y-6062500D02*
X11980000Y-6162500D01*
X11980000Y-6062500D02*
X11880000Y-6162500D01*
X11880000Y-7967500D02*
X11980000Y-8067500D01*
X11980000Y-7967500D02*
X11880000Y-8067500D01*
X11880000Y-9872500D02*
X11980000Y-9972500D01*
X11980000Y-9872500D02*
X11880000Y-9972500D01*
X13118250Y-13206250D02*
X13218250Y-13306250D01*
X13218250Y-13206250D02*
X13118250Y-13306250D01*
X13785000Y-5110000D02*
X13885000Y-5210000D01*
X13885000Y-5110000D02*
X13785000Y-5210000D01*
X13785000Y-7015000D02*
X13885000Y-7115000D01*
X13885000Y-7015000D02*
X13785000Y-7115000D01*
X13785000Y-8920000D02*
X13885000Y-9020000D01*
X13885000Y-8920000D02*
X13785000Y-9020000D01*
X13785000Y-10825000D02*
X13885000Y-10925000D01*
X13885000Y-10825000D02*
X13785000Y-10925000D01*
X15690000Y-6538750D02*
X15790000Y-6638750D01*
X15790000Y-6538750D02*
X15690000Y-6638750D01*
X15690000Y-8443750D02*
X15790000Y-8543750D01*
X15790000Y-8443750D02*
X15690000Y-8543750D01*
X15690000Y-10348750D02*
X15790000Y-10448750D01*
X15790000Y-10348750D02*
X15690000Y-10448750D01*
X15690000Y-12253750D02*
X15790000Y-12353750D01*
X15790000Y-12253750D02*
X15690000Y-12353750D01*
X17595000Y-6538750D02*
X17695000Y-6638750D01*
X17695000Y-6538750D02*
X17595000Y-6638750D01*
X17595000Y-8443750D02*
X17695000Y-8543750D01*
X17695000Y-8443750D02*
X17595000Y-8543750D01*
X17595000Y-10348750D02*
X17695000Y-10448750D01*
X17695000Y-10348750D02*
X17595000Y-10448750D01*
X17595000Y-12253750D02*
X17695000Y-12353750D01*
X17695000Y-12253750D02*
X17595000Y-12353750D01*
D13*
X5365000Y-12276250D02*
G75*
G02*
X5065000Y-12276250I-150000J0D01*
G01*
X5065000Y-12276250D02*
G75*
G02*
X5365000Y-12276250I150000J0D01*
G01*
X5865000Y-12496250D02*
G75*
G02*
X5565000Y-12496250I-150000J0D01*
G01*
X5565000Y-12496250D02*
G75*
G02*
X5865000Y-12496250I150000J0D01*
G01*
X6506701Y-15048696D02*
G75*
G02*
X6206701Y-15048696I-150000J0D01*
G01*
X6206701Y-15048696D02*
G75*
G02*
X6506701Y-15048696I150000J0D01*
G01*
X7051792Y-15084419D02*
G75*
G02*
X6751792Y-15084419I-150000J0D01*
G01*
X6751792Y-15084419D02*
G75*
G02*
X7051792Y-15084419I150000J0D01*
G01*
X7270000Y-6561250D02*
G75*
G02*
X6970000Y-6561250I-150000J0D01*
G01*
X6970000Y-6561250D02*
G75*
G02*
X7270000Y-6561250I150000J0D01*
G01*
X7270000Y-8466250D02*
G75*
G02*
X6970000Y-8466250I-150000J0D01*
G01*
X6970000Y-8466250D02*
G75*
G02*
X7270000Y-8466250I150000J0D01*
G01*
X7270000Y-10371250D02*
G75*
G02*
X6970000Y-10371250I-150000J0D01*
G01*
X6970000Y-10371250D02*
G75*
G02*
X7270000Y-10371250I150000J0D01*
G01*
X7270000Y-12276250D02*
G75*
G02*
X6970000Y-12276250I-150000J0D01*
G01*
X6970000Y-12276250D02*
G75*
G02*
X7270000Y-12276250I150000J0D01*
G01*
X7770000Y-6781250D02*
G75*
G02*
X7470000Y-6781250I-150000J0D01*
G01*
X7470000Y-6781250D02*
G75*
G02*
X7770000Y-6781250I150000J0D01*
G01*
X7770000Y-8686250D02*
G75*
G02*
X7470000Y-8686250I-150000J0D01*
G01*
X7470000Y-8686250D02*
G75*
G02*
X7770000Y-8686250I150000J0D01*
G01*
X7770000Y-10591250D02*
G75*
G02*
X7470000Y-10591250I-150000J0D01*
G01*
X7470000Y-10591250D02*
G75*
G02*
X7770000Y-10591250I150000J0D01*
G01*
X7770000Y-12496250D02*
G75*
G02*
X7470000Y-12496250I-150000J0D01*
G01*
X7470000Y-12496250D02*
G75*
G02*
X7770000Y-12496250I150000J0D01*
G01*
X8421846Y-14441203D02*
G75*
G02*
X8121846Y-14441203I-150000J0D01*
G01*
X8121846Y-14441203D02*
G75*
G02*
X8421846Y-14441203I150000J0D01*
G01*
X8952452Y-14571037D02*
G75*
G02*
X8652452Y-14571037I-150000J0D01*
G01*
X8652452Y-14571037D02*
G75*
G02*
X8952452Y-14571037I150000J0D01*
G01*
X9175000Y-6085000D02*
G75*
G02*
X8875000Y-6085000I-150000J0D01*
G01*
X8875000Y-6085000D02*
G75*
G02*
X9175000Y-6085000I150000J0D01*
G01*
X9175000Y-7990000D02*
G75*
G02*
X8875000Y-7990000I-150000J0D01*
G01*
X8875000Y-7990000D02*
G75*
G02*
X9175000Y-7990000I150000J0D01*
G01*
X9175000Y-9895000D02*
G75*
G02*
X8875000Y-9895000I-150000J0D01*
G01*
X8875000Y-9895000D02*
G75*
G02*
X9175000Y-9895000I150000J0D01*
G01*
X9175000Y-11800000D02*
G75*
G02*
X8875000Y-11800000I-150000J0D01*
G01*
X8875000Y-11800000D02*
G75*
G02*
X9175000Y-11800000I150000J0D01*
G01*
X9675000Y-6305000D02*
G75*
G02*
X9375000Y-6305000I-150000J0D01*
G01*
X9375000Y-6305000D02*
G75*
G02*
X9675000Y-6305000I150000J0D01*
G01*
X9675000Y-8210000D02*
G75*
G02*
X9375000Y-8210000I-150000J0D01*
G01*
X9375000Y-8210000D02*
G75*
G02*
X9675000Y-8210000I150000J0D01*
G01*
X9675000Y-10115000D02*
G75*
G02*
X9375000Y-10115000I-150000J0D01*
G01*
X9375000Y-10115000D02*
G75*
G02*
X9675000Y-10115000I150000J0D01*
G01*
X9675000Y-12020000D02*
G75*
G02*
X9375000Y-12020000I-150000J0D01*
G01*
X9375000Y-12020000D02*
G75*
G02*
X9675000Y-12020000I150000J0D01*
G01*
X10413250Y-14181250D02*
G75*
G02*
X10113250Y-14181250I-150000J0D01*
G01*
X10113250Y-14181250D02*
G75*
G02*
X10413250Y-14181250I150000J0D01*
G01*
X10913250Y-14401250D02*
G75*
G02*
X10613250Y-14401250I-150000J0D01*
G01*
X10613250Y-14401250D02*
G75*
G02*
X10913250Y-14401250I150000J0D01*
G01*
X11080000Y-5132500D02*
G75*
G02*
X10780000Y-5132500I-150000J0D01*
G01*
X10780000Y-5132500D02*
G75*
G02*
X11080000Y-5132500I150000J0D01*
G01*
X11080000Y-7037500D02*
G75*
G02*
X10780000Y-7037500I-150000J0D01*
G01*
X10780000Y-7037500D02*
G75*
G02*
X11080000Y-7037500I150000J0D01*
G01*
X11080000Y-8942500D02*
G75*
G02*
X10780000Y-8942500I-150000J0D01*
G01*
X10780000Y-8942500D02*
G75*
G02*
X11080000Y-8942500I150000J0D01*
G01*
X11080000Y-10847500D02*
G75*
G02*
X10780000Y-10847500I-150000J0D01*
G01*
X10780000Y-10847500D02*
G75*
G02*
X11080000Y-10847500I150000J0D01*
G01*
X11580000Y-5352500D02*
G75*
G02*
X11280000Y-5352500I-150000J0D01*
G01*
X11280000Y-5352500D02*
G75*
G02*
X11580000Y-5352500I150000J0D01*
G01*
X11580000Y-7257500D02*
G75*
G02*
X11280000Y-7257500I-150000J0D01*
G01*
X11280000Y-7257500D02*
G75*
G02*
X11580000Y-7257500I150000J0D01*
G01*
X11580000Y-9162500D02*
G75*
G02*
X11280000Y-9162500I-150000J0D01*
G01*
X11280000Y-9162500D02*
G75*
G02*
X11580000Y-9162500I150000J0D01*
G01*
X11580000Y-11067500D02*
G75*
G02*
X11280000Y-11067500I-150000J0D01*
G01*
X11280000Y-11067500D02*
G75*
G02*
X11580000Y-11067500I150000J0D01*
G01*
X12318250Y-14181250D02*
G75*
G02*
X12018250Y-14181250I-150000J0D01*
G01*
X12018250Y-14181250D02*
G75*
G02*
X12318250Y-14181250I150000J0D01*
G01*
X12818250Y-14401250D02*
G75*
G02*
X12518250Y-14401250I-150000J0D01*
G01*
X12518250Y-14401250D02*
G75*
G02*
X12818250Y-14401250I150000J0D01*
G01*
X12985000Y-6085000D02*
G75*
G02*
X12685000Y-6085000I-150000J0D01*
G01*
X12685000Y-6085000D02*
G75*
G02*
X12985000Y-6085000I150000J0D01*
G01*
X12985000Y-7990000D02*
G75*
G02*
X12685000Y-7990000I-150000J0D01*
G01*
X12685000Y-7990000D02*
G75*
G02*
X12985000Y-7990000I150000J0D01*
G01*
X12985000Y-9895000D02*
G75*
G02*
X12685000Y-9895000I-150000J0D01*
G01*
X12685000Y-9895000D02*
G75*
G02*
X12985000Y-9895000I150000J0D01*
G01*
X12985000Y-11800000D02*
G75*
G02*
X12685000Y-11800000I-150000J0D01*
G01*
X12685000Y-11800000D02*
G75*
G02*
X12985000Y-11800000I150000J0D01*
G01*
X13485000Y-6305000D02*
G75*
G02*
X13185000Y-6305000I-150000J0D01*
G01*
X13185000Y-6305000D02*
G75*
G02*
X13485000Y-6305000I150000J0D01*
G01*
X13485000Y-8210000D02*
G75*
G02*
X13185000Y-8210000I-150000J0D01*
G01*
X13185000Y-8210000D02*
G75*
G02*
X13485000Y-8210000I150000J0D01*
G01*
X13485000Y-10115000D02*
G75*
G02*
X13185000Y-10115000I-150000J0D01*
G01*
X13185000Y-10115000D02*
G75*
G02*
X13485000Y-10115000I150000J0D01*
G01*
X13485000Y-12020000D02*
G75*
G02*
X13185000Y-12020000I-150000J0D01*
G01*
X13185000Y-12020000D02*
G75*
G02*
X13485000Y-12020000I150000J0D01*
G01*
X14890000Y-7513750D02*
G75*
G02*
X14590000Y-7513750I-150000J0D01*
G01*
X14590000Y-7513750D02*
G75*
G02*
X14890000Y-7513750I150000J0D01*
G01*
X14890000Y-9418750D02*
G75*
G02*
X14590000Y-9418750I-150000J0D01*
G01*
X14590000Y-9418750D02*
G75*
G02*
X14890000Y-9418750I150000J0D01*
G01*
X14890000Y-11323750D02*
G75*
G02*
X14590000Y-11323750I-150000J0D01*
G01*
X14590000Y-11323750D02*
G75*
G02*
X14890000Y-11323750I150000J0D01*
G01*
X14890000Y-13228750D02*
G75*
G02*
X14590000Y-13228750I-150000J0D01*
G01*
X14590000Y-13228750D02*
G75*
G02*
X14890000Y-13228750I150000J0D01*
G01*
X15390000Y-7733750D02*
G75*
G02*
X15090000Y-7733750I-150000J0D01*
G01*
X15090000Y-7733750D02*
G75*
G02*
X15390000Y-7733750I150000J0D01*
G01*
X15390000Y-9638750D02*
G75*
G02*
X15090000Y-9638750I-150000J0D01*
G01*
X15090000Y-9638750D02*
G75*
G02*
X15390000Y-9638750I150000J0D01*
G01*
X15390000Y-11543750D02*
G75*
G02*
X15090000Y-11543750I-150000J0D01*
G01*
X15090000Y-11543750D02*
G75*
G02*
X15390000Y-11543750I150000J0D01*
G01*
X15390000Y-13448750D02*
G75*
G02*
X15090000Y-13448750I-150000J0D01*
G01*
X15090000Y-13448750D02*
G75*
G02*
X15390000Y-13448750I150000J0D01*
G01*
X16795000Y-7513750D02*
G75*
G02*
X16495000Y-7513750I-150000J0D01*
G01*
X16495000Y-7513750D02*
G75*
G02*
X16795000Y-7513750I150000J0D01*
G01*
X16795000Y-9418750D02*
G75*
G02*
X16495000Y-9418750I-150000J0D01*
G01*
X16495000Y-9418750D02*
G75*
G02*
X16795000Y-9418750I150000J0D01*
G01*
X16795000Y-11323750D02*
G75*
G02*
X16495000Y-11323750I-150000J0D01*
G01*
X16495000Y-11323750D02*
G75*
G02*
X16795000Y-11323750I150000J0D01*
G01*
X16795000Y-13228750D02*
G75*
G02*
X16495000Y-13228750I-150000J0D01*
G01*
X16495000Y-13228750D02*
G75*
G02*
X16795000Y-13228750I150000J0D01*
G01*
X17295000Y-7733750D02*
G75*
G02*
X16995000Y-7733750I-150000J0D01*
G01*
X16995000Y-7733750D02*
G75*
G02*
X17295000Y-7733750I150000J0D01*
G01*
X17295000Y-9638750D02*
G75*
G02*
X16995000Y-9638750I-150000J0D01*
G01*
X16995000Y-9638750D02*
G75*
G02*
X17295000Y-9638750I150000J0D01*
G01*
X17295000Y-11543750D02*
G75*
G02*
X16995000Y-11543750I-150000J0D01*
G01*
X16995000Y-11543750D02*
G75*
G02*
X17295000Y-11543750I150000J0D01*
G01*
X17295000Y-13448750D02*
G75*
G02*
X16995000Y-13448750I-150000J0D01*
G01*
X16995000Y-13448750D02*
G75*
G02*
X17295000Y-13448750I150000J0D01*
G01*
D14*
X5715000Y-11666250D02*
X5715000Y-12146250D01*
X5475000Y-11906250D02*
X5955000Y-11906250D01*
X6700000Y-14290000D02*
X6700000Y-14770000D01*
X6460000Y-14530000D02*
X6940000Y-14530000D01*
X7620000Y-5951250D02*
X7620000Y-6431250D01*
X7380000Y-6191250D02*
X7860000Y-6191250D01*
X7620000Y-7856250D02*
X7620000Y-8336250D01*
X7380000Y-8096250D02*
X7860000Y-8096250D01*
X7620000Y-9761250D02*
X7620000Y-10241250D01*
X7380000Y-10001250D02*
X7860000Y-10001250D01*
X7620000Y-11666250D02*
X7620000Y-12146250D01*
X7380000Y-11906250D02*
X7860000Y-11906250D01*
X8700000Y-13750000D02*
X8700000Y-14230000D01*
X8460000Y-13990000D02*
X8940000Y-13990000D01*
X9525000Y-5475000D02*
X9525000Y-5955000D01*
X9285000Y-5715000D02*
X9765000Y-5715000D01*
X9525000Y-7380000D02*
X9525000Y-7860000D01*
X9285000Y-7620000D02*
X9765000Y-7620000D01*
X9525000Y-9285000D02*
X9525000Y-9765000D01*
X9285000Y-9525000D02*
X9765000Y-9525000D01*
X9525000Y-11190000D02*
X9525000Y-11670000D01*
X9285000Y-11430000D02*
X9765000Y-11430000D01*
X10763250Y-13571250D02*
X10763250Y-14051250D01*
X10523250Y-13811250D02*
X11003250Y-13811250D01*
X11430000Y-4522500D02*
X11430000Y-5002500D01*
X11190000Y-4762500D02*
X11670000Y-4762500D01*
X11430000Y-6427500D02*
X11430000Y-6907500D01*
X11190000Y-6667500D02*
X11670000Y-6667500D01*
X11430000Y-8332500D02*
X11430000Y-8812500D01*
X11190000Y-8572500D02*
X11670000Y-8572500D01*
X11430000Y-10237500D02*
X11430000Y-10717500D01*
X11190000Y-10477500D02*
X11670000Y-10477500D01*
X12668250Y-13571250D02*
X12668250Y-14051250D01*
X12428250Y-13811250D02*
X12908250Y-13811250D01*
X13335000Y-5475000D02*
X13335000Y-5955000D01*
X13095000Y-5715000D02*
X13575000Y-5715000D01*
X13335000Y-7380000D02*
X13335000Y-7860000D01*
X13095000Y-7620000D02*
X13575000Y-7620000D01*
X13335000Y-9285000D02*
X13335000Y-9765000D01*
X13095000Y-9525000D02*
X13575000Y-9525000D01*
X13335000Y-11190000D02*
X13335000Y-11670000D01*
X13095000Y-11430000D02*
X13575000Y-11430000D01*
X15240000Y-6903750D02*
X15240000Y-7383750D01*
X15000000Y-7143750D02*
X15480000Y-7143750D01*
X15240000Y-8808750D02*
X15240000Y-9288750D01*
X15000000Y-9048750D02*
X15480000Y-9048750D01*
X15240000Y-10713750D02*
X15240000Y-11193750D01*
X15000000Y-10953750D02*
X15480000Y-10953750D01*
X15240000Y-12618750D02*
X15240000Y-13098750D01*
X15000000Y-12858750D02*
X15480000Y-12858750D01*
X17145000Y-6903750D02*
X17145000Y-7383750D01*
X16905000Y-7143750D02*
X17385000Y-7143750D01*
X17145000Y-8808750D02*
X17145000Y-9288750D01*
X16905000Y-9048750D02*
X17385000Y-9048750D01*
X17145000Y-10713750D02*
X17145000Y-11193750D01*
X16905000Y-10953750D02*
X17385000Y-10953750D01*
X17145000Y-12618750D02*
X17145000Y-13098750D01*
X16905000Y-12858750D02*
X17385000Y-12858750D01*
D12*
X3870557Y-16316828D02*
X3870557Y-16116828D01*
X3870557Y-16116828D02*
X3918176Y-16116828D01*
X3918176Y-16116828D02*
X3946747Y-16126351D01*
X3946747Y-16126351D02*
X3965795Y-16145399D01*
X3965795Y-16145399D02*
X3975319Y-16164447D01*
X3975319Y-16164447D02*
X3984843Y-16202542D01*
X3984843Y-16202542D02*
X3984843Y-16231113D01*
X3984843Y-16231113D02*
X3975319Y-16269209D01*
X3975319Y-16269209D02*
X3965795Y-16288256D01*
X3965795Y-16288256D02*
X3946747Y-16307304D01*
X3946747Y-16307304D02*
X3918176Y-16316828D01*
X3918176Y-16316828D02*
X3870557Y-16316828D01*
X4070557Y-16316828D02*
X4070557Y-16183494D01*
X4070557Y-16221590D02*
X4080081Y-16202542D01*
X4080081Y-16202542D02*
X4089604Y-16193018D01*
X4089604Y-16193018D02*
X4108652Y-16183494D01*
X4108652Y-16183494D02*
X4127700Y-16183494D01*
X4194366Y-16316828D02*
X4194366Y-16183494D01*
X4194366Y-16116828D02*
X4184843Y-16126351D01*
X4184843Y-16126351D02*
X4194366Y-16135875D01*
X4194366Y-16135875D02*
X4203890Y-16126351D01*
X4203890Y-16126351D02*
X4194366Y-16116828D01*
X4194366Y-16116828D02*
X4194366Y-16135875D01*
X4318176Y-16316828D02*
X4299128Y-16307304D01*
X4299128Y-16307304D02*
X4289605Y-16288256D01*
X4289605Y-16288256D02*
X4289605Y-16116828D01*
X4422938Y-16316828D02*
X4403890Y-16307304D01*
X4403890Y-16307304D02*
X4394366Y-16288256D01*
X4394366Y-16288256D02*
X4394366Y-16116828D01*
X4651509Y-16316828D02*
X4651509Y-16116828D01*
X4651509Y-16116828D02*
X4718176Y-16259685D01*
X4718176Y-16259685D02*
X4784843Y-16116828D01*
X4784843Y-16116828D02*
X4784843Y-16316828D01*
X4965795Y-16316828D02*
X4965795Y-16212066D01*
X4965795Y-16212066D02*
X4956271Y-16193018D01*
X4956271Y-16193018D02*
X4937224Y-16183494D01*
X4937224Y-16183494D02*
X4899128Y-16183494D01*
X4899128Y-16183494D02*
X4880081Y-16193018D01*
X4965795Y-16307304D02*
X4946747Y-16316828D01*
X4946747Y-16316828D02*
X4899128Y-16316828D01*
X4899128Y-16316828D02*
X4880081Y-16307304D01*
X4880081Y-16307304D02*
X4870557Y-16288256D01*
X4870557Y-16288256D02*
X4870557Y-16269209D01*
X4870557Y-16269209D02*
X4880081Y-16250161D01*
X4880081Y-16250161D02*
X4899128Y-16240637D01*
X4899128Y-16240637D02*
X4946747Y-16240637D01*
X4946747Y-16240637D02*
X4965795Y-16231113D01*
X5061033Y-16183494D02*
X5061033Y-16383494D01*
X5061033Y-16193018D02*
X5080081Y-16183494D01*
X5080081Y-16183494D02*
X5118176Y-16183494D01*
X5118176Y-16183494D02*
X5137224Y-16193018D01*
X5137224Y-16193018D02*
X5146747Y-16202542D01*
X5146747Y-16202542D02*
X5156271Y-16221590D01*
X5156271Y-16221590D02*
X5156271Y-16278732D01*
X5156271Y-16278732D02*
X5146747Y-16297780D01*
X5146747Y-16297780D02*
X5137224Y-16307304D01*
X5137224Y-16307304D02*
X5118176Y-16316828D01*
X5118176Y-16316828D02*
X5080081Y-16316828D01*
X5080081Y-16316828D02*
X5061033Y-16307304D01*
X5241986Y-16297780D02*
X5251509Y-16307304D01*
X5251509Y-16307304D02*
X5241986Y-16316828D01*
X5241986Y-16316828D02*
X5232462Y-16307304D01*
X5232462Y-16307304D02*
X5241986Y-16297780D01*
X5241986Y-16297780D02*
X5241986Y-16316828D01*
X5241986Y-16193018D02*
X5251509Y-16202542D01*
X5251509Y-16202542D02*
X5241986Y-16212066D01*
X5241986Y-16212066D02*
X5232462Y-16202542D01*
X5232462Y-16202542D02*
X5241986Y-16193018D01*
X5241986Y-16193018D02*
X5241986Y-16212066D01*
D11*
X3509780Y-16595344D02*
X3609780Y-16695344D01*
X3609780Y-16595344D02*
X3509780Y-16695344D01*
D12*
X3975319Y-16736828D02*
X3861033Y-16736828D01*
X3918176Y-16736828D02*
X3918176Y-16536828D01*
X3918176Y-16536828D02*
X3899128Y-16565399D01*
X3899128Y-16565399D02*
X3880081Y-16584447D01*
X3880081Y-16584447D02*
X3861033Y-16593970D01*
X4061033Y-16717780D02*
X4070557Y-16727304D01*
X4070557Y-16727304D02*
X4061033Y-16736828D01*
X4061033Y-16736828D02*
X4051509Y-16727304D01*
X4051509Y-16727304D02*
X4061033Y-16717780D01*
X4061033Y-16717780D02*
X4061033Y-16736828D01*
X4194366Y-16536828D02*
X4213414Y-16536828D01*
X4213414Y-16536828D02*
X4232462Y-16546351D01*
X4232462Y-16546351D02*
X4241986Y-16555875D01*
X4241986Y-16555875D02*
X4251509Y-16574923D01*
X4251509Y-16574923D02*
X4261033Y-16613018D01*
X4261033Y-16613018D02*
X4261033Y-16660637D01*
X4261033Y-16660637D02*
X4251509Y-16698732D01*
X4251509Y-16698732D02*
X4241986Y-16717780D01*
X4241986Y-16717780D02*
X4232462Y-16727304D01*
X4232462Y-16727304D02*
X4213414Y-16736828D01*
X4213414Y-16736828D02*
X4194366Y-16736828D01*
X4194366Y-16736828D02*
X4175319Y-16727304D01*
X4175319Y-16727304D02*
X4165795Y-16717780D01*
X4165795Y-16717780D02*
X4156271Y-16698732D01*
X4156271Y-16698732D02*
X4146747Y-16660637D01*
X4146747Y-16660637D02*
X4146747Y-16613018D01*
X4146747Y-16613018D02*
X4156271Y-16574923D01*
X4156271Y-16574923D02*
X4165795Y-16555875D01*
X4165795Y-16555875D02*
X4175319Y-16546351D01*
X4175319Y-16546351D02*
X4194366Y-16536828D01*
X4384843Y-16536828D02*
X4403890Y-16536828D01*
X4403890Y-16536828D02*
X4422938Y-16546351D01*
X4422938Y-16546351D02*
X4432462Y-16555875D01*
X4432462Y-16555875D02*
X4441986Y-16574923D01*
X4441986Y-16574923D02*
X4451509Y-16613018D01*
X4451509Y-16613018D02*
X4451509Y-16660637D01*
X4451509Y-16660637D02*
X4441986Y-16698732D01*
X4441986Y-16698732D02*
X4432462Y-16717780D01*
X4432462Y-16717780D02*
X4422938Y-16727304D01*
X4422938Y-16727304D02*
X4403890Y-16736828D01*
X4403890Y-16736828D02*
X4384843Y-16736828D01*
X4384843Y-16736828D02*
X4365795Y-16727304D01*
X4365795Y-16727304D02*
X4356271Y-16717780D01*
X4356271Y-16717780D02*
X4346747Y-16698732D01*
X4346747Y-16698732D02*
X4337224Y-16660637D01*
X4337224Y-16660637D02*
X4337224Y-16613018D01*
X4337224Y-16613018D02*
X4346747Y-16574923D01*
X4346747Y-16574923D02*
X4356271Y-16555875D01*
X4356271Y-16555875D02*
X4365795Y-16546351D01*
X4365795Y-16546351D02*
X4384843Y-16536828D01*
X4575319Y-16536828D02*
X4594367Y-16536828D01*
X4594367Y-16536828D02*
X4613414Y-16546351D01*
X4613414Y-16546351D02*
X4622938Y-16555875D01*
X4622938Y-16555875D02*
X4632462Y-16574923D01*
X4632462Y-16574923D02*
X4641986Y-16613018D01*
X4641986Y-16613018D02*
X4641986Y-16660637D01*
X4641986Y-16660637D02*
X4632462Y-16698732D01*
X4632462Y-16698732D02*
X4622938Y-16717780D01*
X4622938Y-16717780D02*
X4613414Y-16727304D01*
X4613414Y-16727304D02*
X4594367Y-16736828D01*
X4594367Y-16736828D02*
X4575319Y-16736828D01*
X4575319Y-16736828D02*
X4556271Y-16727304D01*
X4556271Y-16727304D02*
X4546747Y-16717780D01*
X4546747Y-16717780D02*
X4537224Y-16698732D01*
X4537224Y-16698732D02*
X4527700Y-16660637D01*
X4527700Y-16660637D02*
X4527700Y-16613018D01*
X4527700Y-16613018D02*
X4537224Y-16574923D01*
X4537224Y-16574923D02*
X4546747Y-16555875D01*
X4546747Y-16555875D02*
X4556271Y-16546351D01*
X4556271Y-16546351D02*
X4575319Y-16536828D01*
X4727700Y-16736828D02*
X4727700Y-16603494D01*
X4727700Y-16622542D02*
X4737224Y-16613018D01*
X4737224Y-16613018D02*
X4756271Y-16603494D01*
X4756271Y-16603494D02*
X4784843Y-16603494D01*
X4784843Y-16603494D02*
X4803890Y-16613018D01*
X4803890Y-16613018D02*
X4813414Y-16632066D01*
X4813414Y-16632066D02*
X4813414Y-16736828D01*
X4813414Y-16632066D02*
X4822938Y-16613018D01*
X4822938Y-16613018D02*
X4841986Y-16603494D01*
X4841986Y-16603494D02*
X4870557Y-16603494D01*
X4870557Y-16603494D02*
X4889605Y-16613018D01*
X4889605Y-16613018D02*
X4899128Y-16632066D01*
X4899128Y-16632066D02*
X4899128Y-16736828D01*
X4994367Y-16736828D02*
X4994367Y-16603494D01*
X4994367Y-16622542D02*
X5003890Y-16613018D01*
X5003890Y-16613018D02*
X5022938Y-16603494D01*
X5022938Y-16603494D02*
X5051509Y-16603494D01*
X5051509Y-16603494D02*
X5070557Y-16613018D01*
X5070557Y-16613018D02*
X5080081Y-16632066D01*
X5080081Y-16632066D02*
X5080081Y-16736828D01*
X5080081Y-16632066D02*
X5089605Y-16613018D01*
X5089605Y-16613018D02*
X5108652Y-16603494D01*
X5108652Y-16603494D02*
X5137224Y-16603494D01*
X5137224Y-16603494D02*
X5156271Y-16613018D01*
X5156271Y-16613018D02*
X5165795Y-16632066D01*
X5165795Y-16632066D02*
X5165795Y-16736828D01*
X5556271Y-16527304D02*
X5384843Y-16784447D01*
X5813414Y-16536828D02*
X5832462Y-16536828D01*
X5832462Y-16536828D02*
X5851509Y-16546351D01*
X5851509Y-16546351D02*
X5861033Y-16555875D01*
X5861033Y-16555875D02*
X5870557Y-16574923D01*
X5870557Y-16574923D02*
X5880081Y-16613018D01*
X5880081Y-16613018D02*
X5880081Y-16660637D01*
X5880081Y-16660637D02*
X5870557Y-16698732D01*
X5870557Y-16698732D02*
X5861033Y-16717780D01*
X5861033Y-16717780D02*
X5851509Y-16727304D01*
X5851509Y-16727304D02*
X5832462Y-16736828D01*
X5832462Y-16736828D02*
X5813414Y-16736828D01*
X5813414Y-16736828D02*
X5794367Y-16727304D01*
X5794367Y-16727304D02*
X5784843Y-16717780D01*
X5784843Y-16717780D02*
X5775319Y-16698732D01*
X5775319Y-16698732D02*
X5765795Y-16660637D01*
X5765795Y-16660637D02*
X5765795Y-16613018D01*
X5765795Y-16613018D02*
X5775319Y-16574923D01*
X5775319Y-16574923D02*
X5784843Y-16555875D01*
X5784843Y-16555875D02*
X5794367Y-16546351D01*
X5794367Y-16546351D02*
X5813414Y-16536828D01*
X5965795Y-16717780D02*
X5975319Y-16727304D01*
X5975319Y-16727304D02*
X5965795Y-16736828D01*
X5965795Y-16736828D02*
X5956271Y-16727304D01*
X5956271Y-16727304D02*
X5965795Y-16717780D01*
X5965795Y-16717780D02*
X5965795Y-16736828D01*
X6099128Y-16536828D02*
X6118176Y-16536828D01*
X6118176Y-16536828D02*
X6137224Y-16546351D01*
X6137224Y-16546351D02*
X6146748Y-16555875D01*
X6146748Y-16555875D02*
X6156271Y-16574923D01*
X6156271Y-16574923D02*
X6165795Y-16613018D01*
X6165795Y-16613018D02*
X6165795Y-16660637D01*
X6165795Y-16660637D02*
X6156271Y-16698732D01*
X6156271Y-16698732D02*
X6146748Y-16717780D01*
X6146748Y-16717780D02*
X6137224Y-16727304D01*
X6137224Y-16727304D02*
X6118176Y-16736828D01*
X6118176Y-16736828D02*
X6099128Y-16736828D01*
X6099128Y-16736828D02*
X6080081Y-16727304D01*
X6080081Y-16727304D02*
X6070557Y-16717780D01*
X6070557Y-16717780D02*
X6061033Y-16698732D01*
X6061033Y-16698732D02*
X6051509Y-16660637D01*
X6051509Y-16660637D02*
X6051509Y-16613018D01*
X6051509Y-16613018D02*
X6061033Y-16574923D01*
X6061033Y-16574923D02*
X6070557Y-16555875D01*
X6070557Y-16555875D02*
X6080081Y-16546351D01*
X6080081Y-16546351D02*
X6099128Y-16536828D01*
X6232462Y-16536828D02*
X6356271Y-16536828D01*
X6356271Y-16536828D02*
X6289605Y-16613018D01*
X6289605Y-16613018D02*
X6318176Y-16613018D01*
X6318176Y-16613018D02*
X6337224Y-16622542D01*
X6337224Y-16622542D02*
X6346748Y-16632066D01*
X6346748Y-16632066D02*
X6356271Y-16651113D01*
X6356271Y-16651113D02*
X6356271Y-16698732D01*
X6356271Y-16698732D02*
X6346748Y-16717780D01*
X6346748Y-16717780D02*
X6337224Y-16727304D01*
X6337224Y-16727304D02*
X6318176Y-16736828D01*
X6318176Y-16736828D02*
X6261033Y-16736828D01*
X6261033Y-16736828D02*
X6241986Y-16727304D01*
X6241986Y-16727304D02*
X6232462Y-16717780D01*
X6451509Y-16736828D02*
X6489605Y-16736828D01*
X6489605Y-16736828D02*
X6508652Y-16727304D01*
X6508652Y-16727304D02*
X6518176Y-16717780D01*
X6518176Y-16717780D02*
X6537224Y-16689209D01*
X6537224Y-16689209D02*
X6546748Y-16651113D01*
X6546748Y-16651113D02*
X6546748Y-16574923D01*
X6546748Y-16574923D02*
X6537224Y-16555875D01*
X6537224Y-16555875D02*
X6527700Y-16546351D01*
X6527700Y-16546351D02*
X6508652Y-16536828D01*
X6508652Y-16536828D02*
X6470557Y-16536828D01*
X6470557Y-16536828D02*
X6451509Y-16546351D01*
X6451509Y-16546351D02*
X6441986Y-16555875D01*
X6441986Y-16555875D02*
X6432462Y-16574923D01*
X6432462Y-16574923D02*
X6432462Y-16622542D01*
X6432462Y-16622542D02*
X6441986Y-16641590D01*
X6441986Y-16641590D02*
X6451509Y-16651113D01*
X6451509Y-16651113D02*
X6470557Y-16660637D01*
X6470557Y-16660637D02*
X6508652Y-16660637D01*
X6508652Y-16660637D02*
X6527700Y-16651113D01*
X6527700Y-16651113D02*
X6537224Y-16641590D01*
X6537224Y-16641590D02*
X6546748Y-16622542D01*
X6718176Y-16603494D02*
X6718176Y-16736828D01*
X6670557Y-16527304D02*
X6622938Y-16670161D01*
X6622938Y-16670161D02*
X6746748Y-16670161D01*
X6813414Y-16536828D02*
X6813414Y-16574923D01*
X6889605Y-16536828D02*
X6889605Y-16574923D01*
X7184843Y-16813018D02*
X7175319Y-16803494D01*
X7175319Y-16803494D02*
X7156271Y-16774923D01*
X7156271Y-16774923D02*
X7146748Y-16755875D01*
X7146748Y-16755875D02*
X7137224Y-16727304D01*
X7137224Y-16727304D02*
X7127700Y-16679685D01*
X7127700Y-16679685D02*
X7127700Y-16641590D01*
X7127700Y-16641590D02*
X7137224Y-16593970D01*
X7137224Y-16593970D02*
X7146748Y-16565399D01*
X7146748Y-16565399D02*
X7156271Y-16546351D01*
X7156271Y-16546351D02*
X7175319Y-16517780D01*
X7175319Y-16517780D02*
X7184843Y-16508256D01*
X7251510Y-16555875D02*
X7261033Y-16546351D01*
X7261033Y-16546351D02*
X7280081Y-16536828D01*
X7280081Y-16536828D02*
X7327700Y-16536828D01*
X7327700Y-16536828D02*
X7346748Y-16546351D01*
X7346748Y-16546351D02*
X7356271Y-16555875D01*
X7356271Y-16555875D02*
X7365795Y-16574923D01*
X7365795Y-16574923D02*
X7365795Y-16593970D01*
X7365795Y-16593970D02*
X7356271Y-16622542D01*
X7356271Y-16622542D02*
X7241986Y-16736828D01*
X7241986Y-16736828D02*
X7365795Y-16736828D01*
X7461033Y-16736828D02*
X7499129Y-16736828D01*
X7499129Y-16736828D02*
X7518176Y-16727304D01*
X7518176Y-16727304D02*
X7527700Y-16717780D01*
X7527700Y-16717780D02*
X7546748Y-16689209D01*
X7546748Y-16689209D02*
X7556271Y-16651113D01*
X7556271Y-16651113D02*
X7556271Y-16574923D01*
X7556271Y-16574923D02*
X7546748Y-16555875D01*
X7546748Y-16555875D02*
X7537224Y-16546351D01*
X7537224Y-16546351D02*
X7518176Y-16536828D01*
X7518176Y-16536828D02*
X7480081Y-16536828D01*
X7480081Y-16536828D02*
X7461033Y-16546351D01*
X7461033Y-16546351D02*
X7451510Y-16555875D01*
X7451510Y-16555875D02*
X7441986Y-16574923D01*
X7441986Y-16574923D02*
X7441986Y-16622542D01*
X7441986Y-16622542D02*
X7451510Y-16641590D01*
X7451510Y-16641590D02*
X7461033Y-16651113D01*
X7461033Y-16651113D02*
X7480081Y-16660637D01*
X7480081Y-16660637D02*
X7518176Y-16660637D01*
X7518176Y-16660637D02*
X7537224Y-16651113D01*
X7537224Y-16651113D02*
X7546748Y-16641590D01*
X7546748Y-16641590D02*
X7556271Y-16622542D01*
X7794367Y-16736828D02*
X7794367Y-16536828D01*
X7880081Y-16736828D02*
X7880081Y-16632066D01*
X7880081Y-16632066D02*
X7870557Y-16613018D01*
X7870557Y-16613018D02*
X7851510Y-16603494D01*
X7851510Y-16603494D02*
X7822938Y-16603494D01*
X7822938Y-16603494D02*
X7803891Y-16613018D01*
X7803891Y-16613018D02*
X7794367Y-16622542D01*
X8003891Y-16736828D02*
X7984843Y-16727304D01*
X7984843Y-16727304D02*
X7975319Y-16717780D01*
X7975319Y-16717780D02*
X7965795Y-16698732D01*
X7965795Y-16698732D02*
X7965795Y-16641590D01*
X7965795Y-16641590D02*
X7975319Y-16622542D01*
X7975319Y-16622542D02*
X7984843Y-16613018D01*
X7984843Y-16613018D02*
X8003891Y-16603494D01*
X8003891Y-16603494D02*
X8032462Y-16603494D01*
X8032462Y-16603494D02*
X8051510Y-16613018D01*
X8051510Y-16613018D02*
X8061033Y-16622542D01*
X8061033Y-16622542D02*
X8070557Y-16641590D01*
X8070557Y-16641590D02*
X8070557Y-16698732D01*
X8070557Y-16698732D02*
X8061033Y-16717780D01*
X8061033Y-16717780D02*
X8051510Y-16727304D01*
X8051510Y-16727304D02*
X8032462Y-16736828D01*
X8032462Y-16736828D02*
X8003891Y-16736828D01*
X8184843Y-16736828D02*
X8165795Y-16727304D01*
X8165795Y-16727304D02*
X8156272Y-16708256D01*
X8156272Y-16708256D02*
X8156272Y-16536828D01*
X8337224Y-16727304D02*
X8318176Y-16736828D01*
X8318176Y-16736828D02*
X8280081Y-16736828D01*
X8280081Y-16736828D02*
X8261033Y-16727304D01*
X8261033Y-16727304D02*
X8251510Y-16708256D01*
X8251510Y-16708256D02*
X8251510Y-16632066D01*
X8251510Y-16632066D02*
X8261033Y-16613018D01*
X8261033Y-16613018D02*
X8280081Y-16603494D01*
X8280081Y-16603494D02*
X8318176Y-16603494D01*
X8318176Y-16603494D02*
X8337224Y-16613018D01*
X8337224Y-16613018D02*
X8346748Y-16632066D01*
X8346748Y-16632066D02*
X8346748Y-16651113D01*
X8346748Y-16651113D02*
X8251510Y-16670161D01*
X8422938Y-16727304D02*
X8441986Y-16736828D01*
X8441986Y-16736828D02*
X8480081Y-16736828D01*
X8480081Y-16736828D02*
X8499129Y-16727304D01*
X8499129Y-16727304D02*
X8508653Y-16708256D01*
X8508653Y-16708256D02*
X8508653Y-16698732D01*
X8508653Y-16698732D02*
X8499129Y-16679685D01*
X8499129Y-16679685D02*
X8480081Y-16670161D01*
X8480081Y-16670161D02*
X8451510Y-16670161D01*
X8451510Y-16670161D02*
X8432462Y-16660637D01*
X8432462Y-16660637D02*
X8422938Y-16641590D01*
X8422938Y-16641590D02*
X8422938Y-16632066D01*
X8422938Y-16632066D02*
X8432462Y-16613018D01*
X8432462Y-16613018D02*
X8451510Y-16603494D01*
X8451510Y-16603494D02*
X8480081Y-16603494D01*
X8480081Y-16603494D02*
X8499129Y-16613018D01*
X8575319Y-16813018D02*
X8584843Y-16803494D01*
X8584843Y-16803494D02*
X8603891Y-16774923D01*
X8603891Y-16774923D02*
X8613415Y-16755875D01*
X8613415Y-16755875D02*
X8622938Y-16727304D01*
X8622938Y-16727304D02*
X8632462Y-16679685D01*
X8632462Y-16679685D02*
X8632462Y-16641590D01*
X8632462Y-16641590D02*
X8622938Y-16593970D01*
X8622938Y-16593970D02*
X8613415Y-16565399D01*
X8613415Y-16565399D02*
X8603891Y-16546351D01*
X8603891Y-16546351D02*
X8584843Y-16517780D01*
X8584843Y-16517780D02*
X8575319Y-16508256D01*
X8937224Y-16813018D02*
X8927700Y-16803494D01*
X8927700Y-16803494D02*
X8908653Y-16774923D01*
X8908653Y-16774923D02*
X8899129Y-16755875D01*
X8899129Y-16755875D02*
X8889605Y-16727304D01*
X8889605Y-16727304D02*
X8880081Y-16679685D01*
X8880081Y-16679685D02*
X8880081Y-16641590D01*
X8880081Y-16641590D02*
X8889605Y-16593970D01*
X8889605Y-16593970D02*
X8899129Y-16565399D01*
X8899129Y-16565399D02*
X8908653Y-16546351D01*
X8908653Y-16546351D02*
X8927700Y-16517780D01*
X8927700Y-16517780D02*
X8937224Y-16508256D01*
X9013415Y-16603494D02*
X9013415Y-16736828D01*
X9013415Y-16622542D02*
X9022938Y-16613018D01*
X9022938Y-16613018D02*
X9041986Y-16603494D01*
X9041986Y-16603494D02*
X9070557Y-16603494D01*
X9070557Y-16603494D02*
X9089605Y-16613018D01*
X9089605Y-16613018D02*
X9099129Y-16632066D01*
X9099129Y-16632066D02*
X9099129Y-16736828D01*
X9222938Y-16736828D02*
X9203891Y-16727304D01*
X9203891Y-16727304D02*
X9194367Y-16717780D01*
X9194367Y-16717780D02*
X9184843Y-16698732D01*
X9184843Y-16698732D02*
X9184843Y-16641590D01*
X9184843Y-16641590D02*
X9194367Y-16622542D01*
X9194367Y-16622542D02*
X9203891Y-16613018D01*
X9203891Y-16613018D02*
X9222938Y-16603494D01*
X9222938Y-16603494D02*
X9251510Y-16603494D01*
X9251510Y-16603494D02*
X9270557Y-16613018D01*
X9270557Y-16613018D02*
X9280081Y-16622542D01*
X9280081Y-16622542D02*
X9289605Y-16641590D01*
X9289605Y-16641590D02*
X9289605Y-16698732D01*
X9289605Y-16698732D02*
X9280081Y-16717780D01*
X9280081Y-16717780D02*
X9270557Y-16727304D01*
X9270557Y-16727304D02*
X9251510Y-16736828D01*
X9251510Y-16736828D02*
X9222938Y-16736828D01*
X9346748Y-16603494D02*
X9422938Y-16603494D01*
X9375319Y-16536828D02*
X9375319Y-16708256D01*
X9375319Y-16708256D02*
X9384843Y-16727304D01*
X9384843Y-16727304D02*
X9403891Y-16736828D01*
X9403891Y-16736828D02*
X9422938Y-16736828D01*
X9641986Y-16603494D02*
X9641986Y-16803494D01*
X9641986Y-16613018D02*
X9661034Y-16603494D01*
X9661034Y-16603494D02*
X9699129Y-16603494D01*
X9699129Y-16603494D02*
X9718177Y-16613018D01*
X9718177Y-16613018D02*
X9727700Y-16622542D01*
X9727700Y-16622542D02*
X9737224Y-16641590D01*
X9737224Y-16641590D02*
X9737224Y-16698732D01*
X9737224Y-16698732D02*
X9727700Y-16717780D01*
X9727700Y-16717780D02*
X9718177Y-16727304D01*
X9718177Y-16727304D02*
X9699129Y-16736828D01*
X9699129Y-16736828D02*
X9661034Y-16736828D01*
X9661034Y-16736828D02*
X9641986Y-16727304D01*
X9851510Y-16736828D02*
X9832462Y-16727304D01*
X9832462Y-16727304D02*
X9822938Y-16708256D01*
X9822938Y-16708256D02*
X9822938Y-16536828D01*
X10013415Y-16736828D02*
X10013415Y-16632066D01*
X10013415Y-16632066D02*
X10003891Y-16613018D01*
X10003891Y-16613018D02*
X9984843Y-16603494D01*
X9984843Y-16603494D02*
X9946748Y-16603494D01*
X9946748Y-16603494D02*
X9927700Y-16613018D01*
X10013415Y-16727304D02*
X9994367Y-16736828D01*
X9994367Y-16736828D02*
X9946748Y-16736828D01*
X9946748Y-16736828D02*
X9927700Y-16727304D01*
X9927700Y-16727304D02*
X9918177Y-16708256D01*
X9918177Y-16708256D02*
X9918177Y-16689209D01*
X9918177Y-16689209D02*
X9927700Y-16670161D01*
X9927700Y-16670161D02*
X9946748Y-16660637D01*
X9946748Y-16660637D02*
X9994367Y-16660637D01*
X9994367Y-16660637D02*
X10013415Y-16651113D01*
X10080081Y-16603494D02*
X10156272Y-16603494D01*
X10108653Y-16536828D02*
X10108653Y-16708256D01*
X10108653Y-16708256D02*
X10118177Y-16727304D01*
X10118177Y-16727304D02*
X10137224Y-16736828D01*
X10137224Y-16736828D02*
X10156272Y-16736828D01*
X10299129Y-16727304D02*
X10280081Y-16736828D01*
X10280081Y-16736828D02*
X10241986Y-16736828D01*
X10241986Y-16736828D02*
X10222938Y-16727304D01*
X10222938Y-16727304D02*
X10213415Y-16708256D01*
X10213415Y-16708256D02*
X10213415Y-16632066D01*
X10213415Y-16632066D02*
X10222938Y-16613018D01*
X10222938Y-16613018D02*
X10241986Y-16603494D01*
X10241986Y-16603494D02*
X10280081Y-16603494D01*
X10280081Y-16603494D02*
X10299129Y-16613018D01*
X10299129Y-16613018D02*
X10308653Y-16632066D01*
X10308653Y-16632066D02*
X10308653Y-16651113D01*
X10308653Y-16651113D02*
X10213415Y-16670161D01*
X10480081Y-16736828D02*
X10480081Y-16536828D01*
X10480081Y-16727304D02*
X10461034Y-16736828D01*
X10461034Y-16736828D02*
X10422938Y-16736828D01*
X10422938Y-16736828D02*
X10403891Y-16727304D01*
X10403891Y-16727304D02*
X10394367Y-16717780D01*
X10394367Y-16717780D02*
X10384843Y-16698732D01*
X10384843Y-16698732D02*
X10384843Y-16641590D01*
X10384843Y-16641590D02*
X10394367Y-16622542D01*
X10394367Y-16622542D02*
X10403891Y-16613018D01*
X10403891Y-16613018D02*
X10422938Y-16603494D01*
X10422938Y-16603494D02*
X10461034Y-16603494D01*
X10461034Y-16603494D02*
X10480081Y-16613018D01*
X10556272Y-16813018D02*
X10565796Y-16803494D01*
X10565796Y-16803494D02*
X10584843Y-16774923D01*
X10584843Y-16774923D02*
X10594367Y-16755875D01*
X10594367Y-16755875D02*
X10603891Y-16727304D01*
X10603891Y-16727304D02*
X10613415Y-16679685D01*
X10613415Y-16679685D02*
X10613415Y-16641590D01*
X10613415Y-16641590D02*
X10603891Y-16593970D01*
X10603891Y-16593970D02*
X10594367Y-16565399D01*
X10594367Y-16565399D02*
X10584843Y-16546351D01*
X10584843Y-16546351D02*
X10565796Y-16517780D01*
X10565796Y-16517780D02*
X10556272Y-16508256D01*
X3609780Y-16909344D02*
G75*
G02*
X3409780Y-16909344I-100000J0D01*
G01*
X3409780Y-16909344D02*
G75*
G02*
X3609780Y-16909344I100000J0D01*
G01*
X3851509Y-16800828D02*
X3975319Y-16800828D01*
X3975319Y-16800828D02*
X3908652Y-16877018D01*
X3908652Y-16877018D02*
X3937224Y-16877018D01*
X3937224Y-16877018D02*
X3956271Y-16886542D01*
X3956271Y-16886542D02*
X3965795Y-16896066D01*
X3965795Y-16896066D02*
X3975319Y-16915113D01*
X3975319Y-16915113D02*
X3975319Y-16962732D01*
X3975319Y-16962732D02*
X3965795Y-16981780D01*
X3965795Y-16981780D02*
X3956271Y-16991304D01*
X3956271Y-16991304D02*
X3937224Y-17000828D01*
X3937224Y-17000828D02*
X3880081Y-17000828D01*
X3880081Y-17000828D02*
X3861033Y-16991304D01*
X3861033Y-16991304D02*
X3851509Y-16981780D01*
X4061033Y-16981780D02*
X4070557Y-16991304D01*
X4070557Y-16991304D02*
X4061033Y-17000828D01*
X4061033Y-17000828D02*
X4051509Y-16991304D01*
X4051509Y-16991304D02*
X4061033Y-16981780D01*
X4061033Y-16981780D02*
X4061033Y-17000828D01*
X4194366Y-16800828D02*
X4213414Y-16800828D01*
X4213414Y-16800828D02*
X4232462Y-16810352D01*
X4232462Y-16810352D02*
X4241986Y-16819875D01*
X4241986Y-16819875D02*
X4251509Y-16838923D01*
X4251509Y-16838923D02*
X4261033Y-16877018D01*
X4261033Y-16877018D02*
X4261033Y-16924637D01*
X4261033Y-16924637D02*
X4251509Y-16962732D01*
X4251509Y-16962732D02*
X4241986Y-16981780D01*
X4241986Y-16981780D02*
X4232462Y-16991304D01*
X4232462Y-16991304D02*
X4213414Y-17000828D01*
X4213414Y-17000828D02*
X4194366Y-17000828D01*
X4194366Y-17000828D02*
X4175319Y-16991304D01*
X4175319Y-16991304D02*
X4165795Y-16981780D01*
X4165795Y-16981780D02*
X4156271Y-16962732D01*
X4156271Y-16962732D02*
X4146747Y-16924637D01*
X4146747Y-16924637D02*
X4146747Y-16877018D01*
X4146747Y-16877018D02*
X4156271Y-16838923D01*
X4156271Y-16838923D02*
X4165795Y-16819875D01*
X4165795Y-16819875D02*
X4175319Y-16810352D01*
X4175319Y-16810352D02*
X4194366Y-16800828D01*
X4384843Y-16800828D02*
X4403890Y-16800828D01*
X4403890Y-16800828D02*
X4422938Y-16810352D01*
X4422938Y-16810352D02*
X4432462Y-16819875D01*
X4432462Y-16819875D02*
X4441986Y-16838923D01*
X4441986Y-16838923D02*
X4451509Y-16877018D01*
X4451509Y-16877018D02*
X4451509Y-16924637D01*
X4451509Y-16924637D02*
X4441986Y-16962732D01*
X4441986Y-16962732D02*
X4432462Y-16981780D01*
X4432462Y-16981780D02*
X4422938Y-16991304D01*
X4422938Y-16991304D02*
X4403890Y-17000828D01*
X4403890Y-17000828D02*
X4384843Y-17000828D01*
X4384843Y-17000828D02*
X4365795Y-16991304D01*
X4365795Y-16991304D02*
X4356271Y-16981780D01*
X4356271Y-16981780D02*
X4346747Y-16962732D01*
X4346747Y-16962732D02*
X4337224Y-16924637D01*
X4337224Y-16924637D02*
X4337224Y-16877018D01*
X4337224Y-16877018D02*
X4346747Y-16838923D01*
X4346747Y-16838923D02*
X4356271Y-16819875D01*
X4356271Y-16819875D02*
X4365795Y-16810352D01*
X4365795Y-16810352D02*
X4384843Y-16800828D01*
X4575319Y-16800828D02*
X4594367Y-16800828D01*
X4594367Y-16800828D02*
X4613414Y-16810352D01*
X4613414Y-16810352D02*
X4622938Y-16819875D01*
X4622938Y-16819875D02*
X4632462Y-16838923D01*
X4632462Y-16838923D02*
X4641986Y-16877018D01*
X4641986Y-16877018D02*
X4641986Y-16924637D01*
X4641986Y-16924637D02*
X4632462Y-16962732D01*
X4632462Y-16962732D02*
X4622938Y-16981780D01*
X4622938Y-16981780D02*
X4613414Y-16991304D01*
X4613414Y-16991304D02*
X4594367Y-17000828D01*
X4594367Y-17000828D02*
X4575319Y-17000828D01*
X4575319Y-17000828D02*
X4556271Y-16991304D01*
X4556271Y-16991304D02*
X4546747Y-16981780D01*
X4546747Y-16981780D02*
X4537224Y-16962732D01*
X4537224Y-16962732D02*
X4527700Y-16924637D01*
X4527700Y-16924637D02*
X4527700Y-16877018D01*
X4527700Y-16877018D02*
X4537224Y-16838923D01*
X4537224Y-16838923D02*
X4546747Y-16819875D01*
X4546747Y-16819875D02*
X4556271Y-16810352D01*
X4556271Y-16810352D02*
X4575319Y-16800828D01*
X4727700Y-17000828D02*
X4727700Y-16867494D01*
X4727700Y-16886542D02*
X4737224Y-16877018D01*
X4737224Y-16877018D02*
X4756271Y-16867494D01*
X4756271Y-16867494D02*
X4784843Y-16867494D01*
X4784843Y-16867494D02*
X4803890Y-16877018D01*
X4803890Y-16877018D02*
X4813414Y-16896066D01*
X4813414Y-16896066D02*
X4813414Y-17000828D01*
X4813414Y-16896066D02*
X4822938Y-16877018D01*
X4822938Y-16877018D02*
X4841986Y-16867494D01*
X4841986Y-16867494D02*
X4870557Y-16867494D01*
X4870557Y-16867494D02*
X4889605Y-16877018D01*
X4889605Y-16877018D02*
X4899128Y-16896066D01*
X4899128Y-16896066D02*
X4899128Y-17000828D01*
X4994367Y-17000828D02*
X4994367Y-16867494D01*
X4994367Y-16886542D02*
X5003890Y-16877018D01*
X5003890Y-16877018D02*
X5022938Y-16867494D01*
X5022938Y-16867494D02*
X5051509Y-16867494D01*
X5051509Y-16867494D02*
X5070557Y-16877018D01*
X5070557Y-16877018D02*
X5080081Y-16896066D01*
X5080081Y-16896066D02*
X5080081Y-17000828D01*
X5080081Y-16896066D02*
X5089605Y-16877018D01*
X5089605Y-16877018D02*
X5108652Y-16867494D01*
X5108652Y-16867494D02*
X5137224Y-16867494D01*
X5137224Y-16867494D02*
X5156271Y-16877018D01*
X5156271Y-16877018D02*
X5165795Y-16896066D01*
X5165795Y-16896066D02*
X5165795Y-17000828D01*
X5556271Y-16791304D02*
X5384843Y-17048447D01*
X5813414Y-16800828D02*
X5832462Y-16800828D01*
X5832462Y-16800828D02*
X5851509Y-16810352D01*
X5851509Y-16810352D02*
X5861033Y-16819875D01*
X5861033Y-16819875D02*
X5870557Y-16838923D01*
X5870557Y-16838923D02*
X5880081Y-16877018D01*
X5880081Y-16877018D02*
X5880081Y-16924637D01*
X5880081Y-16924637D02*
X5870557Y-16962732D01*
X5870557Y-16962732D02*
X5861033Y-16981780D01*
X5861033Y-16981780D02*
X5851509Y-16991304D01*
X5851509Y-16991304D02*
X5832462Y-17000828D01*
X5832462Y-17000828D02*
X5813414Y-17000828D01*
X5813414Y-17000828D02*
X5794367Y-16991304D01*
X5794367Y-16991304D02*
X5784843Y-16981780D01*
X5784843Y-16981780D02*
X5775319Y-16962732D01*
X5775319Y-16962732D02*
X5765795Y-16924637D01*
X5765795Y-16924637D02*
X5765795Y-16877018D01*
X5765795Y-16877018D02*
X5775319Y-16838923D01*
X5775319Y-16838923D02*
X5784843Y-16819875D01*
X5784843Y-16819875D02*
X5794367Y-16810352D01*
X5794367Y-16810352D02*
X5813414Y-16800828D01*
X5965795Y-16981780D02*
X5975319Y-16991304D01*
X5975319Y-16991304D02*
X5965795Y-17000828D01*
X5965795Y-17000828D02*
X5956271Y-16991304D01*
X5956271Y-16991304D02*
X5965795Y-16981780D01*
X5965795Y-16981780D02*
X5965795Y-17000828D01*
X6165795Y-17000828D02*
X6051509Y-17000828D01*
X6108652Y-17000828D02*
X6108652Y-16800828D01*
X6108652Y-16800828D02*
X6089605Y-16829399D01*
X6089605Y-16829399D02*
X6070557Y-16848447D01*
X6070557Y-16848447D02*
X6051509Y-16857971D01*
X6356271Y-17000828D02*
X6241986Y-17000828D01*
X6299128Y-17000828D02*
X6299128Y-16800828D01*
X6299128Y-16800828D02*
X6280081Y-16829399D01*
X6280081Y-16829399D02*
X6261033Y-16848447D01*
X6261033Y-16848447D02*
X6241986Y-16857971D01*
X6470557Y-16886542D02*
X6451509Y-16877018D01*
X6451509Y-16877018D02*
X6441986Y-16867494D01*
X6441986Y-16867494D02*
X6432462Y-16848447D01*
X6432462Y-16848447D02*
X6432462Y-16838923D01*
X6432462Y-16838923D02*
X6441986Y-16819875D01*
X6441986Y-16819875D02*
X6451509Y-16810352D01*
X6451509Y-16810352D02*
X6470557Y-16800828D01*
X6470557Y-16800828D02*
X6508652Y-16800828D01*
X6508652Y-16800828D02*
X6527700Y-16810352D01*
X6527700Y-16810352D02*
X6537224Y-16819875D01*
X6537224Y-16819875D02*
X6546748Y-16838923D01*
X6546748Y-16838923D02*
X6546748Y-16848447D01*
X6546748Y-16848447D02*
X6537224Y-16867494D01*
X6537224Y-16867494D02*
X6527700Y-16877018D01*
X6527700Y-16877018D02*
X6508652Y-16886542D01*
X6508652Y-16886542D02*
X6470557Y-16886542D01*
X6470557Y-16886542D02*
X6451509Y-16896066D01*
X6451509Y-16896066D02*
X6441986Y-16905590D01*
X6441986Y-16905590D02*
X6432462Y-16924637D01*
X6432462Y-16924637D02*
X6432462Y-16962732D01*
X6432462Y-16962732D02*
X6441986Y-16981780D01*
X6441986Y-16981780D02*
X6451509Y-16991304D01*
X6451509Y-16991304D02*
X6470557Y-17000828D01*
X6470557Y-17000828D02*
X6508652Y-17000828D01*
X6508652Y-17000828D02*
X6527700Y-16991304D01*
X6527700Y-16991304D02*
X6537224Y-16981780D01*
X6537224Y-16981780D02*
X6546748Y-16962732D01*
X6546748Y-16962732D02*
X6546748Y-16924637D01*
X6546748Y-16924637D02*
X6537224Y-16905590D01*
X6537224Y-16905590D02*
X6527700Y-16896066D01*
X6527700Y-16896066D02*
X6508652Y-16886542D01*
X6737224Y-17000828D02*
X6622938Y-17000828D01*
X6680081Y-17000828D02*
X6680081Y-16800828D01*
X6680081Y-16800828D02*
X6661033Y-16829399D01*
X6661033Y-16829399D02*
X6641986Y-16848447D01*
X6641986Y-16848447D02*
X6622938Y-16857971D01*
X6813414Y-16800828D02*
X6813414Y-16838923D01*
X6889605Y-16800828D02*
X6889605Y-16838923D01*
X7184843Y-17077018D02*
X7175319Y-17067494D01*
X7175319Y-17067494D02*
X7156271Y-17038923D01*
X7156271Y-17038923D02*
X7146748Y-17019875D01*
X7146748Y-17019875D02*
X7137224Y-16991304D01*
X7137224Y-16991304D02*
X7127700Y-16943685D01*
X7127700Y-16943685D02*
X7127700Y-16905590D01*
X7127700Y-16905590D02*
X7137224Y-16857971D01*
X7137224Y-16857971D02*
X7146748Y-16829399D01*
X7146748Y-16829399D02*
X7156271Y-16810352D01*
X7156271Y-16810352D02*
X7175319Y-16781780D01*
X7175319Y-16781780D02*
X7184843Y-16772256D01*
X7356271Y-16800828D02*
X7261033Y-16800828D01*
X7261033Y-16800828D02*
X7251510Y-16896066D01*
X7251510Y-16896066D02*
X7261033Y-16886542D01*
X7261033Y-16886542D02*
X7280081Y-16877018D01*
X7280081Y-16877018D02*
X7327700Y-16877018D01*
X7327700Y-16877018D02*
X7346748Y-16886542D01*
X7346748Y-16886542D02*
X7356271Y-16896066D01*
X7356271Y-16896066D02*
X7365795Y-16915113D01*
X7365795Y-16915113D02*
X7365795Y-16962732D01*
X7365795Y-16962732D02*
X7356271Y-16981780D01*
X7356271Y-16981780D02*
X7346748Y-16991304D01*
X7346748Y-16991304D02*
X7327700Y-17000828D01*
X7327700Y-17000828D02*
X7280081Y-17000828D01*
X7280081Y-17000828D02*
X7261033Y-16991304D01*
X7261033Y-16991304D02*
X7251510Y-16981780D01*
X7480081Y-16886542D02*
X7461033Y-16877018D01*
X7461033Y-16877018D02*
X7451510Y-16867494D01*
X7451510Y-16867494D02*
X7441986Y-16848447D01*
X7441986Y-16848447D02*
X7441986Y-16838923D01*
X7441986Y-16838923D02*
X7451510Y-16819875D01*
X7451510Y-16819875D02*
X7461033Y-16810352D01*
X7461033Y-16810352D02*
X7480081Y-16800828D01*
X7480081Y-16800828D02*
X7518176Y-16800828D01*
X7518176Y-16800828D02*
X7537224Y-16810352D01*
X7537224Y-16810352D02*
X7546748Y-16819875D01*
X7546748Y-16819875D02*
X7556271Y-16838923D01*
X7556271Y-16838923D02*
X7556271Y-16848447D01*
X7556271Y-16848447D02*
X7546748Y-16867494D01*
X7546748Y-16867494D02*
X7537224Y-16877018D01*
X7537224Y-16877018D02*
X7518176Y-16886542D01*
X7518176Y-16886542D02*
X7480081Y-16886542D01*
X7480081Y-16886542D02*
X7461033Y-16896066D01*
X7461033Y-16896066D02*
X7451510Y-16905590D01*
X7451510Y-16905590D02*
X7441986Y-16924637D01*
X7441986Y-16924637D02*
X7441986Y-16962732D01*
X7441986Y-16962732D02*
X7451510Y-16981780D01*
X7451510Y-16981780D02*
X7461033Y-16991304D01*
X7461033Y-16991304D02*
X7480081Y-17000828D01*
X7480081Y-17000828D02*
X7518176Y-17000828D01*
X7518176Y-17000828D02*
X7537224Y-16991304D01*
X7537224Y-16991304D02*
X7546748Y-16981780D01*
X7546748Y-16981780D02*
X7556271Y-16962732D01*
X7556271Y-16962732D02*
X7556271Y-16924637D01*
X7556271Y-16924637D02*
X7546748Y-16905590D01*
X7546748Y-16905590D02*
X7537224Y-16896066D01*
X7537224Y-16896066D02*
X7518176Y-16886542D01*
X7794367Y-17000828D02*
X7794367Y-16800828D01*
X7880081Y-17000828D02*
X7880081Y-16896066D01*
X7880081Y-16896066D02*
X7870557Y-16877018D01*
X7870557Y-16877018D02*
X7851510Y-16867494D01*
X7851510Y-16867494D02*
X7822938Y-16867494D01*
X7822938Y-16867494D02*
X7803891Y-16877018D01*
X7803891Y-16877018D02*
X7794367Y-16886542D01*
X8003891Y-17000828D02*
X7984843Y-16991304D01*
X7984843Y-16991304D02*
X7975319Y-16981780D01*
X7975319Y-16981780D02*
X7965795Y-16962732D01*
X7965795Y-16962732D02*
X7965795Y-16905590D01*
X7965795Y-16905590D02*
X7975319Y-16886542D01*
X7975319Y-16886542D02*
X7984843Y-16877018D01*
X7984843Y-16877018D02*
X8003891Y-16867494D01*
X8003891Y-16867494D02*
X8032462Y-16867494D01*
X8032462Y-16867494D02*
X8051510Y-16877018D01*
X8051510Y-16877018D02*
X8061033Y-16886542D01*
X8061033Y-16886542D02*
X8070557Y-16905590D01*
X8070557Y-16905590D02*
X8070557Y-16962732D01*
X8070557Y-16962732D02*
X8061033Y-16981780D01*
X8061033Y-16981780D02*
X8051510Y-16991304D01*
X8051510Y-16991304D02*
X8032462Y-17000828D01*
X8032462Y-17000828D02*
X8003891Y-17000828D01*
X8184843Y-17000828D02*
X8165795Y-16991304D01*
X8165795Y-16991304D02*
X8156272Y-16972256D01*
X8156272Y-16972256D02*
X8156272Y-16800828D01*
X8337224Y-16991304D02*
X8318176Y-17000828D01*
X8318176Y-17000828D02*
X8280081Y-17000828D01*
X8280081Y-17000828D02*
X8261033Y-16991304D01*
X8261033Y-16991304D02*
X8251510Y-16972256D01*
X8251510Y-16972256D02*
X8251510Y-16896066D01*
X8251510Y-16896066D02*
X8261033Y-16877018D01*
X8261033Y-16877018D02*
X8280081Y-16867494D01*
X8280081Y-16867494D02*
X8318176Y-16867494D01*
X8318176Y-16867494D02*
X8337224Y-16877018D01*
X8337224Y-16877018D02*
X8346748Y-16896066D01*
X8346748Y-16896066D02*
X8346748Y-16915113D01*
X8346748Y-16915113D02*
X8251510Y-16934161D01*
X8422938Y-16991304D02*
X8441986Y-17000828D01*
X8441986Y-17000828D02*
X8480081Y-17000828D01*
X8480081Y-17000828D02*
X8499129Y-16991304D01*
X8499129Y-16991304D02*
X8508653Y-16972256D01*
X8508653Y-16972256D02*
X8508653Y-16962732D01*
X8508653Y-16962732D02*
X8499129Y-16943685D01*
X8499129Y-16943685D02*
X8480081Y-16934161D01*
X8480081Y-16934161D02*
X8451510Y-16934161D01*
X8451510Y-16934161D02*
X8432462Y-16924637D01*
X8432462Y-16924637D02*
X8422938Y-16905590D01*
X8422938Y-16905590D02*
X8422938Y-16896066D01*
X8422938Y-16896066D02*
X8432462Y-16877018D01*
X8432462Y-16877018D02*
X8451510Y-16867494D01*
X8451510Y-16867494D02*
X8480081Y-16867494D01*
X8480081Y-16867494D02*
X8499129Y-16877018D01*
X8575319Y-17077018D02*
X8584843Y-17067494D01*
X8584843Y-17067494D02*
X8603891Y-17038923D01*
X8603891Y-17038923D02*
X8613415Y-17019875D01*
X8613415Y-17019875D02*
X8622938Y-16991304D01*
X8622938Y-16991304D02*
X8632462Y-16943685D01*
X8632462Y-16943685D02*
X8632462Y-16905590D01*
X8632462Y-16905590D02*
X8622938Y-16857971D01*
X8622938Y-16857971D02*
X8613415Y-16829399D01*
X8613415Y-16829399D02*
X8603891Y-16810352D01*
X8603891Y-16810352D02*
X8584843Y-16781780D01*
X8584843Y-16781780D02*
X8575319Y-16772256D01*
X8937224Y-17077018D02*
X8927700Y-17067494D01*
X8927700Y-17067494D02*
X8908653Y-17038923D01*
X8908653Y-17038923D02*
X8899129Y-17019875D01*
X8899129Y-17019875D02*
X8889605Y-16991304D01*
X8889605Y-16991304D02*
X8880081Y-16943685D01*
X8880081Y-16943685D02*
X8880081Y-16905590D01*
X8880081Y-16905590D02*
X8889605Y-16857971D01*
X8889605Y-16857971D02*
X8899129Y-16829399D01*
X8899129Y-16829399D02*
X8908653Y-16810352D01*
X8908653Y-16810352D02*
X8927700Y-16781780D01*
X8927700Y-16781780D02*
X8937224Y-16772256D01*
X9013415Y-16867494D02*
X9013415Y-17000828D01*
X9013415Y-16886542D02*
X9022938Y-16877018D01*
X9022938Y-16877018D02*
X9041986Y-16867494D01*
X9041986Y-16867494D02*
X9070557Y-16867494D01*
X9070557Y-16867494D02*
X9089605Y-16877018D01*
X9089605Y-16877018D02*
X9099129Y-16896066D01*
X9099129Y-16896066D02*
X9099129Y-17000828D01*
X9222938Y-17000828D02*
X9203891Y-16991304D01*
X9203891Y-16991304D02*
X9194367Y-16981780D01*
X9194367Y-16981780D02*
X9184843Y-16962732D01*
X9184843Y-16962732D02*
X9184843Y-16905590D01*
X9184843Y-16905590D02*
X9194367Y-16886542D01*
X9194367Y-16886542D02*
X9203891Y-16877018D01*
X9203891Y-16877018D02*
X9222938Y-16867494D01*
X9222938Y-16867494D02*
X9251510Y-16867494D01*
X9251510Y-16867494D02*
X9270557Y-16877018D01*
X9270557Y-16877018D02*
X9280081Y-16886542D01*
X9280081Y-16886542D02*
X9289605Y-16905590D01*
X9289605Y-16905590D02*
X9289605Y-16962732D01*
X9289605Y-16962732D02*
X9280081Y-16981780D01*
X9280081Y-16981780D02*
X9270557Y-16991304D01*
X9270557Y-16991304D02*
X9251510Y-17000828D01*
X9251510Y-17000828D02*
X9222938Y-17000828D01*
X9346748Y-16867494D02*
X9422938Y-16867494D01*
X9375319Y-16800828D02*
X9375319Y-16972256D01*
X9375319Y-16972256D02*
X9384843Y-16991304D01*
X9384843Y-16991304D02*
X9403891Y-17000828D01*
X9403891Y-17000828D02*
X9422938Y-17000828D01*
X9641986Y-16867494D02*
X9641986Y-17067494D01*
X9641986Y-16877018D02*
X9661034Y-16867494D01*
X9661034Y-16867494D02*
X9699129Y-16867494D01*
X9699129Y-16867494D02*
X9718177Y-16877018D01*
X9718177Y-16877018D02*
X9727700Y-16886542D01*
X9727700Y-16886542D02*
X9737224Y-16905590D01*
X9737224Y-16905590D02*
X9737224Y-16962732D01*
X9737224Y-16962732D02*
X9727700Y-16981780D01*
X9727700Y-16981780D02*
X9718177Y-16991304D01*
X9718177Y-16991304D02*
X9699129Y-17000828D01*
X9699129Y-17000828D02*
X9661034Y-17000828D01*
X9661034Y-17000828D02*
X9641986Y-16991304D01*
X9851510Y-17000828D02*
X9832462Y-16991304D01*
X9832462Y-16991304D02*
X9822938Y-16972256D01*
X9822938Y-16972256D02*
X9822938Y-16800828D01*
X10013415Y-17000828D02*
X10013415Y-16896066D01*
X10013415Y-16896066D02*
X10003891Y-16877018D01*
X10003891Y-16877018D02*
X9984843Y-16867494D01*
X9984843Y-16867494D02*
X9946748Y-16867494D01*
X9946748Y-16867494D02*
X9927700Y-16877018D01*
X10013415Y-16991304D02*
X9994367Y-17000828D01*
X9994367Y-17000828D02*
X9946748Y-17000828D01*
X9946748Y-17000828D02*
X9927700Y-16991304D01*
X9927700Y-16991304D02*
X9918177Y-16972256D01*
X9918177Y-16972256D02*
X9918177Y-16953209D01*
X9918177Y-16953209D02*
X9927700Y-16934161D01*
X9927700Y-16934161D02*
X9946748Y-16924637D01*
X9946748Y-16924637D02*
X9994367Y-16924637D01*
X9994367Y-16924637D02*
X10013415Y-16915113D01*
X10080081Y-16867494D02*
X10156272Y-16867494D01*
X10108653Y-16800828D02*
X10108653Y-16972256D01*
X10108653Y-16972256D02*
X10118177Y-16991304D01*
X10118177Y-16991304D02*
X10137224Y-17000828D01*
X10137224Y-17000828D02*
X10156272Y-17000828D01*
X10299129Y-16991304D02*
X10280081Y-17000828D01*
X10280081Y-17000828D02*
X10241986Y-17000828D01*
X10241986Y-17000828D02*
X10222938Y-16991304D01*
X10222938Y-16991304D02*
X10213415Y-16972256D01*
X10213415Y-16972256D02*
X10213415Y-16896066D01*
X10213415Y-16896066D02*
X10222938Y-16877018D01*
X10222938Y-16877018D02*
X10241986Y-16867494D01*
X10241986Y-16867494D02*
X10280081Y-16867494D01*
X10280081Y-16867494D02*
X10299129Y-16877018D01*
X10299129Y-16877018D02*
X10308653Y-16896066D01*
X10308653Y-16896066D02*
X10308653Y-16915113D01*
X10308653Y-16915113D02*
X10213415Y-16934161D01*
X10480081Y-17000828D02*
X10480081Y-16800828D01*
X10480081Y-16991304D02*
X10461034Y-17000828D01*
X10461034Y-17000828D02*
X10422938Y-17000828D01*
X10422938Y-17000828D02*
X10403891Y-16991304D01*
X10403891Y-16991304D02*
X10394367Y-16981780D01*
X10394367Y-16981780D02*
X10384843Y-16962732D01*
X10384843Y-16962732D02*
X10384843Y-16905590D01*
X10384843Y-16905590D02*
X10394367Y-16886542D01*
X10394367Y-16886542D02*
X10403891Y-16877018D01*
X10403891Y-16877018D02*
X10422938Y-16867494D01*
X10422938Y-16867494D02*
X10461034Y-16867494D01*
X10461034Y-16867494D02*
X10480081Y-16877018D01*
X10556272Y-17077018D02*
X10565796Y-17067494D01*
X10565796Y-17067494D02*
X10584843Y-17038923D01*
X10584843Y-17038923D02*
X10594367Y-17019875D01*
X10594367Y-17019875D02*
X10603891Y-16991304D01*
X10603891Y-16991304D02*
X10613415Y-16943685D01*
X10613415Y-16943685D02*
X10613415Y-16905590D01*
X10613415Y-16905590D02*
X10603891Y-16857971D01*
X10603891Y-16857971D02*
X10594367Y-16829399D01*
X10594367Y-16829399D02*
X10584843Y-16810352D01*
X10584843Y-16810352D02*
X10565796Y-16781780D01*
X10565796Y-16781780D02*
X10556272Y-16772256D01*
X3509780Y-17129344D02*
X3509780Y-17329344D01*
X3409780Y-17229344D02*
X3609780Y-17229344D01*
X3956271Y-17187494D02*
X3956271Y-17320828D01*
X3908652Y-17111304D02*
X3861033Y-17254161D01*
X3861033Y-17254161D02*
X3984843Y-17254161D01*
X4061033Y-17301780D02*
X4070557Y-17311304D01*
X4070557Y-17311304D02*
X4061033Y-17320828D01*
X4061033Y-17320828D02*
X4051509Y-17311304D01*
X4051509Y-17311304D02*
X4061033Y-17301780D01*
X4061033Y-17301780D02*
X4061033Y-17320828D01*
X4184843Y-17206542D02*
X4165795Y-17197018D01*
X4165795Y-17197018D02*
X4156271Y-17187494D01*
X4156271Y-17187494D02*
X4146747Y-17168447D01*
X4146747Y-17168447D02*
X4146747Y-17158923D01*
X4146747Y-17158923D02*
X4156271Y-17139875D01*
X4156271Y-17139875D02*
X4165795Y-17130352D01*
X4165795Y-17130352D02*
X4184843Y-17120828D01*
X4184843Y-17120828D02*
X4222938Y-17120828D01*
X4222938Y-17120828D02*
X4241986Y-17130352D01*
X4241986Y-17130352D02*
X4251509Y-17139875D01*
X4251509Y-17139875D02*
X4261033Y-17158923D01*
X4261033Y-17158923D02*
X4261033Y-17168447D01*
X4261033Y-17168447D02*
X4251509Y-17187494D01*
X4251509Y-17187494D02*
X4241986Y-17197018D01*
X4241986Y-17197018D02*
X4222938Y-17206542D01*
X4222938Y-17206542D02*
X4184843Y-17206542D01*
X4184843Y-17206542D02*
X4165795Y-17216066D01*
X4165795Y-17216066D02*
X4156271Y-17225590D01*
X4156271Y-17225590D02*
X4146747Y-17244637D01*
X4146747Y-17244637D02*
X4146747Y-17282732D01*
X4146747Y-17282732D02*
X4156271Y-17301780D01*
X4156271Y-17301780D02*
X4165795Y-17311304D01*
X4165795Y-17311304D02*
X4184843Y-17320828D01*
X4184843Y-17320828D02*
X4222938Y-17320828D01*
X4222938Y-17320828D02*
X4241986Y-17311304D01*
X4241986Y-17311304D02*
X4251509Y-17301780D01*
X4251509Y-17301780D02*
X4261033Y-17282732D01*
X4261033Y-17282732D02*
X4261033Y-17244637D01*
X4261033Y-17244637D02*
X4251509Y-17225590D01*
X4251509Y-17225590D02*
X4241986Y-17216066D01*
X4241986Y-17216066D02*
X4222938Y-17206542D01*
X4384843Y-17120828D02*
X4403890Y-17120828D01*
X4403890Y-17120828D02*
X4422938Y-17130352D01*
X4422938Y-17130352D02*
X4432462Y-17139875D01*
X4432462Y-17139875D02*
X4441986Y-17158923D01*
X4441986Y-17158923D02*
X4451509Y-17197018D01*
X4451509Y-17197018D02*
X4451509Y-17244637D01*
X4451509Y-17244637D02*
X4441986Y-17282732D01*
X4441986Y-17282732D02*
X4432462Y-17301780D01*
X4432462Y-17301780D02*
X4422938Y-17311304D01*
X4422938Y-17311304D02*
X4403890Y-17320828D01*
X4403890Y-17320828D02*
X4384843Y-17320828D01*
X4384843Y-17320828D02*
X4365795Y-17311304D01*
X4365795Y-17311304D02*
X4356271Y-17301780D01*
X4356271Y-17301780D02*
X4346747Y-17282732D01*
X4346747Y-17282732D02*
X4337224Y-17244637D01*
X4337224Y-17244637D02*
X4337224Y-17197018D01*
X4337224Y-17197018D02*
X4346747Y-17158923D01*
X4346747Y-17158923D02*
X4356271Y-17139875D01*
X4356271Y-17139875D02*
X4365795Y-17130352D01*
X4365795Y-17130352D02*
X4384843Y-17120828D01*
X4575319Y-17120828D02*
X4594367Y-17120828D01*
X4594367Y-17120828D02*
X4613414Y-17130352D01*
X4613414Y-17130352D02*
X4622938Y-17139875D01*
X4622938Y-17139875D02*
X4632462Y-17158923D01*
X4632462Y-17158923D02*
X4641986Y-17197018D01*
X4641986Y-17197018D02*
X4641986Y-17244637D01*
X4641986Y-17244637D02*
X4632462Y-17282732D01*
X4632462Y-17282732D02*
X4622938Y-17301780D01*
X4622938Y-17301780D02*
X4613414Y-17311304D01*
X4613414Y-17311304D02*
X4594367Y-17320828D01*
X4594367Y-17320828D02*
X4575319Y-17320828D01*
X4575319Y-17320828D02*
X4556271Y-17311304D01*
X4556271Y-17311304D02*
X4546747Y-17301780D01*
X4546747Y-17301780D02*
X4537224Y-17282732D01*
X4537224Y-17282732D02*
X4527700Y-17244637D01*
X4527700Y-17244637D02*
X4527700Y-17197018D01*
X4527700Y-17197018D02*
X4537224Y-17158923D01*
X4537224Y-17158923D02*
X4546747Y-17139875D01*
X4546747Y-17139875D02*
X4556271Y-17130352D01*
X4556271Y-17130352D02*
X4575319Y-17120828D01*
X4727700Y-17320828D02*
X4727700Y-17187494D01*
X4727700Y-17206542D02*
X4737224Y-17197018D01*
X4737224Y-17197018D02*
X4756271Y-17187494D01*
X4756271Y-17187494D02*
X4784843Y-17187494D01*
X4784843Y-17187494D02*
X4803890Y-17197018D01*
X4803890Y-17197018D02*
X4813414Y-17216066D01*
X4813414Y-17216066D02*
X4813414Y-17320828D01*
X4813414Y-17216066D02*
X4822938Y-17197018D01*
X4822938Y-17197018D02*
X4841986Y-17187494D01*
X4841986Y-17187494D02*
X4870557Y-17187494D01*
X4870557Y-17187494D02*
X4889605Y-17197018D01*
X4889605Y-17197018D02*
X4899128Y-17216066D01*
X4899128Y-17216066D02*
X4899128Y-17320828D01*
X4994367Y-17320828D02*
X4994367Y-17187494D01*
X4994367Y-17206542D02*
X5003890Y-17197018D01*
X5003890Y-17197018D02*
X5022938Y-17187494D01*
X5022938Y-17187494D02*
X5051509Y-17187494D01*
X5051509Y-17187494D02*
X5070557Y-17197018D01*
X5070557Y-17197018D02*
X5080081Y-17216066D01*
X5080081Y-17216066D02*
X5080081Y-17320828D01*
X5080081Y-17216066D02*
X5089605Y-17197018D01*
X5089605Y-17197018D02*
X5108652Y-17187494D01*
X5108652Y-17187494D02*
X5137224Y-17187494D01*
X5137224Y-17187494D02*
X5156271Y-17197018D01*
X5156271Y-17197018D02*
X5165795Y-17216066D01*
X5165795Y-17216066D02*
X5165795Y-17320828D01*
X5556271Y-17111304D02*
X5384843Y-17368447D01*
X5813414Y-17120828D02*
X5832462Y-17120828D01*
X5832462Y-17120828D02*
X5851509Y-17130352D01*
X5851509Y-17130352D02*
X5861033Y-17139875D01*
X5861033Y-17139875D02*
X5870557Y-17158923D01*
X5870557Y-17158923D02*
X5880081Y-17197018D01*
X5880081Y-17197018D02*
X5880081Y-17244637D01*
X5880081Y-17244637D02*
X5870557Y-17282732D01*
X5870557Y-17282732D02*
X5861033Y-17301780D01*
X5861033Y-17301780D02*
X5851509Y-17311304D01*
X5851509Y-17311304D02*
X5832462Y-17320828D01*
X5832462Y-17320828D02*
X5813414Y-17320828D01*
X5813414Y-17320828D02*
X5794367Y-17311304D01*
X5794367Y-17311304D02*
X5784843Y-17301780D01*
X5784843Y-17301780D02*
X5775319Y-17282732D01*
X5775319Y-17282732D02*
X5765795Y-17244637D01*
X5765795Y-17244637D02*
X5765795Y-17197018D01*
X5765795Y-17197018D02*
X5775319Y-17158923D01*
X5775319Y-17158923D02*
X5784843Y-17139875D01*
X5784843Y-17139875D02*
X5794367Y-17130352D01*
X5794367Y-17130352D02*
X5813414Y-17120828D01*
X5965795Y-17301780D02*
X5975319Y-17311304D01*
X5975319Y-17311304D02*
X5965795Y-17320828D01*
X5965795Y-17320828D02*
X5956271Y-17311304D01*
X5956271Y-17311304D02*
X5965795Y-17301780D01*
X5965795Y-17301780D02*
X5965795Y-17320828D01*
X6165795Y-17320828D02*
X6051509Y-17320828D01*
X6108652Y-17320828D02*
X6108652Y-17120828D01*
X6108652Y-17120828D02*
X6089605Y-17149399D01*
X6089605Y-17149399D02*
X6070557Y-17168447D01*
X6070557Y-17168447D02*
X6051509Y-17177971D01*
X6280081Y-17206542D02*
X6261033Y-17197018D01*
X6261033Y-17197018D02*
X6251509Y-17187494D01*
X6251509Y-17187494D02*
X6241986Y-17168447D01*
X6241986Y-17168447D02*
X6241986Y-17158923D01*
X6241986Y-17158923D02*
X6251509Y-17139875D01*
X6251509Y-17139875D02*
X6261033Y-17130352D01*
X6261033Y-17130352D02*
X6280081Y-17120828D01*
X6280081Y-17120828D02*
X6318176Y-17120828D01*
X6318176Y-17120828D02*
X6337224Y-17130352D01*
X6337224Y-17130352D02*
X6346748Y-17139875D01*
X6346748Y-17139875D02*
X6356271Y-17158923D01*
X6356271Y-17158923D02*
X6356271Y-17168447D01*
X6356271Y-17168447D02*
X6346748Y-17187494D01*
X6346748Y-17187494D02*
X6337224Y-17197018D01*
X6337224Y-17197018D02*
X6318176Y-17206542D01*
X6318176Y-17206542D02*
X6280081Y-17206542D01*
X6280081Y-17206542D02*
X6261033Y-17216066D01*
X6261033Y-17216066D02*
X6251509Y-17225590D01*
X6251509Y-17225590D02*
X6241986Y-17244637D01*
X6241986Y-17244637D02*
X6241986Y-17282732D01*
X6241986Y-17282732D02*
X6251509Y-17301780D01*
X6251509Y-17301780D02*
X6261033Y-17311304D01*
X6261033Y-17311304D02*
X6280081Y-17320828D01*
X6280081Y-17320828D02*
X6318176Y-17320828D01*
X6318176Y-17320828D02*
X6337224Y-17311304D01*
X6337224Y-17311304D02*
X6346748Y-17301780D01*
X6346748Y-17301780D02*
X6356271Y-17282732D01*
X6356271Y-17282732D02*
X6356271Y-17244637D01*
X6356271Y-17244637D02*
X6346748Y-17225590D01*
X6346748Y-17225590D02*
X6337224Y-17216066D01*
X6337224Y-17216066D02*
X6318176Y-17206542D01*
X6451509Y-17320828D02*
X6489605Y-17320828D01*
X6489605Y-17320828D02*
X6508652Y-17311304D01*
X6508652Y-17311304D02*
X6518176Y-17301780D01*
X6518176Y-17301780D02*
X6537224Y-17273209D01*
X6537224Y-17273209D02*
X6546748Y-17235113D01*
X6546748Y-17235113D02*
X6546748Y-17158923D01*
X6546748Y-17158923D02*
X6537224Y-17139875D01*
X6537224Y-17139875D02*
X6527700Y-17130352D01*
X6527700Y-17130352D02*
X6508652Y-17120828D01*
X6508652Y-17120828D02*
X6470557Y-17120828D01*
X6470557Y-17120828D02*
X6451509Y-17130352D01*
X6451509Y-17130352D02*
X6441986Y-17139875D01*
X6441986Y-17139875D02*
X6432462Y-17158923D01*
X6432462Y-17158923D02*
X6432462Y-17206542D01*
X6432462Y-17206542D02*
X6441986Y-17225590D01*
X6441986Y-17225590D02*
X6451509Y-17235113D01*
X6451509Y-17235113D02*
X6470557Y-17244637D01*
X6470557Y-17244637D02*
X6508652Y-17244637D01*
X6508652Y-17244637D02*
X6527700Y-17235113D01*
X6527700Y-17235113D02*
X6537224Y-17225590D01*
X6537224Y-17225590D02*
X6546748Y-17206542D01*
X6670557Y-17120828D02*
X6689605Y-17120828D01*
X6689605Y-17120828D02*
X6708652Y-17130352D01*
X6708652Y-17130352D02*
X6718176Y-17139875D01*
X6718176Y-17139875D02*
X6727700Y-17158923D01*
X6727700Y-17158923D02*
X6737224Y-17197018D01*
X6737224Y-17197018D02*
X6737224Y-17244637D01*
X6737224Y-17244637D02*
X6727700Y-17282732D01*
X6727700Y-17282732D02*
X6718176Y-17301780D01*
X6718176Y-17301780D02*
X6708652Y-17311304D01*
X6708652Y-17311304D02*
X6689605Y-17320828D01*
X6689605Y-17320828D02*
X6670557Y-17320828D01*
X6670557Y-17320828D02*
X6651509Y-17311304D01*
X6651509Y-17311304D02*
X6641986Y-17301780D01*
X6641986Y-17301780D02*
X6632462Y-17282732D01*
X6632462Y-17282732D02*
X6622938Y-17244637D01*
X6622938Y-17244637D02*
X6622938Y-17197018D01*
X6622938Y-17197018D02*
X6632462Y-17158923D01*
X6632462Y-17158923D02*
X6641986Y-17139875D01*
X6641986Y-17139875D02*
X6651509Y-17130352D01*
X6651509Y-17130352D02*
X6670557Y-17120828D01*
X6813414Y-17120828D02*
X6813414Y-17158923D01*
X6889605Y-17120828D02*
X6889605Y-17158923D01*
X7184843Y-17397018D02*
X7175319Y-17387494D01*
X7175319Y-17387494D02*
X7156271Y-17358923D01*
X7156271Y-17358923D02*
X7146748Y-17339875D01*
X7146748Y-17339875D02*
X7137224Y-17311304D01*
X7137224Y-17311304D02*
X7127700Y-17263685D01*
X7127700Y-17263685D02*
X7127700Y-17225590D01*
X7127700Y-17225590D02*
X7137224Y-17177971D01*
X7137224Y-17177971D02*
X7146748Y-17149399D01*
X7146748Y-17149399D02*
X7156271Y-17130352D01*
X7156271Y-17130352D02*
X7175319Y-17101780D01*
X7175319Y-17101780D02*
X7184843Y-17092256D01*
X7251510Y-17139875D02*
X7261033Y-17130352D01*
X7261033Y-17130352D02*
X7280081Y-17120828D01*
X7280081Y-17120828D02*
X7327700Y-17120828D01*
X7327700Y-17120828D02*
X7346748Y-17130352D01*
X7346748Y-17130352D02*
X7356271Y-17139875D01*
X7356271Y-17139875D02*
X7365795Y-17158923D01*
X7365795Y-17158923D02*
X7365795Y-17177971D01*
X7365795Y-17177971D02*
X7356271Y-17206542D01*
X7356271Y-17206542D02*
X7241986Y-17320828D01*
X7241986Y-17320828D02*
X7365795Y-17320828D01*
X7461033Y-17320828D02*
X7499129Y-17320828D01*
X7499129Y-17320828D02*
X7518176Y-17311304D01*
X7518176Y-17311304D02*
X7527700Y-17301780D01*
X7527700Y-17301780D02*
X7546748Y-17273209D01*
X7546748Y-17273209D02*
X7556271Y-17235113D01*
X7556271Y-17235113D02*
X7556271Y-17158923D01*
X7556271Y-17158923D02*
X7546748Y-17139875D01*
X7546748Y-17139875D02*
X7537224Y-17130352D01*
X7537224Y-17130352D02*
X7518176Y-17120828D01*
X7518176Y-17120828D02*
X7480081Y-17120828D01*
X7480081Y-17120828D02*
X7461033Y-17130352D01*
X7461033Y-17130352D02*
X7451510Y-17139875D01*
X7451510Y-17139875D02*
X7441986Y-17158923D01*
X7441986Y-17158923D02*
X7441986Y-17206542D01*
X7441986Y-17206542D02*
X7451510Y-17225590D01*
X7451510Y-17225590D02*
X7461033Y-17235113D01*
X7461033Y-17235113D02*
X7480081Y-17244637D01*
X7480081Y-17244637D02*
X7518176Y-17244637D01*
X7518176Y-17244637D02*
X7537224Y-17235113D01*
X7537224Y-17235113D02*
X7546748Y-17225590D01*
X7546748Y-17225590D02*
X7556271Y-17206542D01*
X7794367Y-17320828D02*
X7794367Y-17120828D01*
X7880081Y-17320828D02*
X7880081Y-17216066D01*
X7880081Y-17216066D02*
X7870557Y-17197018D01*
X7870557Y-17197018D02*
X7851510Y-17187494D01*
X7851510Y-17187494D02*
X7822938Y-17187494D01*
X7822938Y-17187494D02*
X7803891Y-17197018D01*
X7803891Y-17197018D02*
X7794367Y-17206542D01*
X8003891Y-17320828D02*
X7984843Y-17311304D01*
X7984843Y-17311304D02*
X7975319Y-17301780D01*
X7975319Y-17301780D02*
X7965795Y-17282732D01*
X7965795Y-17282732D02*
X7965795Y-17225590D01*
X7965795Y-17225590D02*
X7975319Y-17206542D01*
X7975319Y-17206542D02*
X7984843Y-17197018D01*
X7984843Y-17197018D02*
X8003891Y-17187494D01*
X8003891Y-17187494D02*
X8032462Y-17187494D01*
X8032462Y-17187494D02*
X8051510Y-17197018D01*
X8051510Y-17197018D02*
X8061033Y-17206542D01*
X8061033Y-17206542D02*
X8070557Y-17225590D01*
X8070557Y-17225590D02*
X8070557Y-17282732D01*
X8070557Y-17282732D02*
X8061033Y-17301780D01*
X8061033Y-17301780D02*
X8051510Y-17311304D01*
X8051510Y-17311304D02*
X8032462Y-17320828D01*
X8032462Y-17320828D02*
X8003891Y-17320828D01*
X8184843Y-17320828D02*
X8165795Y-17311304D01*
X8165795Y-17311304D02*
X8156272Y-17292256D01*
X8156272Y-17292256D02*
X8156272Y-17120828D01*
X8337224Y-17311304D02*
X8318176Y-17320828D01*
X8318176Y-17320828D02*
X8280081Y-17320828D01*
X8280081Y-17320828D02*
X8261033Y-17311304D01*
X8261033Y-17311304D02*
X8251510Y-17292256D01*
X8251510Y-17292256D02*
X8251510Y-17216066D01*
X8251510Y-17216066D02*
X8261033Y-17197018D01*
X8261033Y-17197018D02*
X8280081Y-17187494D01*
X8280081Y-17187494D02*
X8318176Y-17187494D01*
X8318176Y-17187494D02*
X8337224Y-17197018D01*
X8337224Y-17197018D02*
X8346748Y-17216066D01*
X8346748Y-17216066D02*
X8346748Y-17235113D01*
X8346748Y-17235113D02*
X8251510Y-17254161D01*
X8422938Y-17311304D02*
X8441986Y-17320828D01*
X8441986Y-17320828D02*
X8480081Y-17320828D01*
X8480081Y-17320828D02*
X8499129Y-17311304D01*
X8499129Y-17311304D02*
X8508653Y-17292256D01*
X8508653Y-17292256D02*
X8508653Y-17282732D01*
X8508653Y-17282732D02*
X8499129Y-17263685D01*
X8499129Y-17263685D02*
X8480081Y-17254161D01*
X8480081Y-17254161D02*
X8451510Y-17254161D01*
X8451510Y-17254161D02*
X8432462Y-17244637D01*
X8432462Y-17244637D02*
X8422938Y-17225590D01*
X8422938Y-17225590D02*
X8422938Y-17216066D01*
X8422938Y-17216066D02*
X8432462Y-17197018D01*
X8432462Y-17197018D02*
X8451510Y-17187494D01*
X8451510Y-17187494D02*
X8480081Y-17187494D01*
X8480081Y-17187494D02*
X8499129Y-17197018D01*
X8575319Y-17397018D02*
X8584843Y-17387494D01*
X8584843Y-17387494D02*
X8603891Y-17358923D01*
X8603891Y-17358923D02*
X8613415Y-17339875D01*
X8613415Y-17339875D02*
X8622938Y-17311304D01*
X8622938Y-17311304D02*
X8632462Y-17263685D01*
X8632462Y-17263685D02*
X8632462Y-17225590D01*
X8632462Y-17225590D02*
X8622938Y-17177971D01*
X8622938Y-17177971D02*
X8613415Y-17149399D01*
X8613415Y-17149399D02*
X8603891Y-17130352D01*
X8603891Y-17130352D02*
X8584843Y-17101780D01*
X8584843Y-17101780D02*
X8575319Y-17092256D01*
X8937224Y-17397018D02*
X8927700Y-17387494D01*
X8927700Y-17387494D02*
X8908653Y-17358923D01*
X8908653Y-17358923D02*
X8899129Y-17339875D01*
X8899129Y-17339875D02*
X8889605Y-17311304D01*
X8889605Y-17311304D02*
X8880081Y-17263685D01*
X8880081Y-17263685D02*
X8880081Y-17225590D01*
X8880081Y-17225590D02*
X8889605Y-17177971D01*
X8889605Y-17177971D02*
X8899129Y-17149399D01*
X8899129Y-17149399D02*
X8908653Y-17130352D01*
X8908653Y-17130352D02*
X8927700Y-17101780D01*
X8927700Y-17101780D02*
X8937224Y-17092256D01*
X9013415Y-17187494D02*
X9013415Y-17320828D01*
X9013415Y-17206542D02*
X9022938Y-17197018D01*
X9022938Y-17197018D02*
X9041986Y-17187494D01*
X9041986Y-17187494D02*
X9070557Y-17187494D01*
X9070557Y-17187494D02*
X9089605Y-17197018D01*
X9089605Y-17197018D02*
X9099129Y-17216066D01*
X9099129Y-17216066D02*
X9099129Y-17320828D01*
X9222938Y-17320828D02*
X9203891Y-17311304D01*
X9203891Y-17311304D02*
X9194367Y-17301780D01*
X9194367Y-17301780D02*
X9184843Y-17282732D01*
X9184843Y-17282732D02*
X9184843Y-17225590D01*
X9184843Y-17225590D02*
X9194367Y-17206542D01*
X9194367Y-17206542D02*
X9203891Y-17197018D01*
X9203891Y-17197018D02*
X9222938Y-17187494D01*
X9222938Y-17187494D02*
X9251510Y-17187494D01*
X9251510Y-17187494D02*
X9270557Y-17197018D01*
X9270557Y-17197018D02*
X9280081Y-17206542D01*
X9280081Y-17206542D02*
X9289605Y-17225590D01*
X9289605Y-17225590D02*
X9289605Y-17282732D01*
X9289605Y-17282732D02*
X9280081Y-17301780D01*
X9280081Y-17301780D02*
X9270557Y-17311304D01*
X9270557Y-17311304D02*
X9251510Y-17320828D01*
X9251510Y-17320828D02*
X9222938Y-17320828D01*
X9346748Y-17187494D02*
X9422938Y-17187494D01*
X9375319Y-17120828D02*
X9375319Y-17292256D01*
X9375319Y-17292256D02*
X9384843Y-17311304D01*
X9384843Y-17311304D02*
X9403891Y-17320828D01*
X9403891Y-17320828D02*
X9422938Y-17320828D01*
X9641986Y-17187494D02*
X9641986Y-17387494D01*
X9641986Y-17197018D02*
X9661034Y-17187494D01*
X9661034Y-17187494D02*
X9699129Y-17187494D01*
X9699129Y-17187494D02*
X9718177Y-17197018D01*
X9718177Y-17197018D02*
X9727700Y-17206542D01*
X9727700Y-17206542D02*
X9737224Y-17225590D01*
X9737224Y-17225590D02*
X9737224Y-17282732D01*
X9737224Y-17282732D02*
X9727700Y-17301780D01*
X9727700Y-17301780D02*
X9718177Y-17311304D01*
X9718177Y-17311304D02*
X9699129Y-17320828D01*
X9699129Y-17320828D02*
X9661034Y-17320828D01*
X9661034Y-17320828D02*
X9641986Y-17311304D01*
X9851510Y-17320828D02*
X9832462Y-17311304D01*
X9832462Y-17311304D02*
X9822938Y-17292256D01*
X9822938Y-17292256D02*
X9822938Y-17120828D01*
X10013415Y-17320828D02*
X10013415Y-17216066D01*
X10013415Y-17216066D02*
X10003891Y-17197018D01*
X10003891Y-17197018D02*
X9984843Y-17187494D01*
X9984843Y-17187494D02*
X9946748Y-17187494D01*
X9946748Y-17187494D02*
X9927700Y-17197018D01*
X10013415Y-17311304D02*
X9994367Y-17320828D01*
X9994367Y-17320828D02*
X9946748Y-17320828D01*
X9946748Y-17320828D02*
X9927700Y-17311304D01*
X9927700Y-17311304D02*
X9918177Y-17292256D01*
X9918177Y-17292256D02*
X9918177Y-17273209D01*
X9918177Y-17273209D02*
X9927700Y-17254161D01*
X9927700Y-17254161D02*
X9946748Y-17244637D01*
X9946748Y-17244637D02*
X9994367Y-17244637D01*
X9994367Y-17244637D02*
X10013415Y-17235113D01*
X10080081Y-17187494D02*
X10156272Y-17187494D01*
X10108653Y-17120828D02*
X10108653Y-17292256D01*
X10108653Y-17292256D02*
X10118177Y-17311304D01*
X10118177Y-17311304D02*
X10137224Y-17320828D01*
X10137224Y-17320828D02*
X10156272Y-17320828D01*
X10299129Y-17311304D02*
X10280081Y-17320828D01*
X10280081Y-17320828D02*
X10241986Y-17320828D01*
X10241986Y-17320828D02*
X10222938Y-17311304D01*
X10222938Y-17311304D02*
X10213415Y-17292256D01*
X10213415Y-17292256D02*
X10213415Y-17216066D01*
X10213415Y-17216066D02*
X10222938Y-17197018D01*
X10222938Y-17197018D02*
X10241986Y-17187494D01*
X10241986Y-17187494D02*
X10280081Y-17187494D01*
X10280081Y-17187494D02*
X10299129Y-17197018D01*
X10299129Y-17197018D02*
X10308653Y-17216066D01*
X10308653Y-17216066D02*
X10308653Y-17235113D01*
X10308653Y-17235113D02*
X10213415Y-17254161D01*
X10480081Y-17320828D02*
X10480081Y-17120828D01*
X10480081Y-17311304D02*
X10461034Y-17320828D01*
X10461034Y-17320828D02*
X10422938Y-17320828D01*
X10422938Y-17320828D02*
X10403891Y-17311304D01*
X10403891Y-17311304D02*
X10394367Y-17301780D01*
X10394367Y-17301780D02*
X10384843Y-17282732D01*
X10384843Y-17282732D02*
X10384843Y-17225590D01*
X10384843Y-17225590D02*
X10394367Y-17206542D01*
X10394367Y-17206542D02*
X10403891Y-17197018D01*
X10403891Y-17197018D02*
X10422938Y-17187494D01*
X10422938Y-17187494D02*
X10461034Y-17187494D01*
X10461034Y-17187494D02*
X10480081Y-17197018D01*
X10556272Y-17397018D02*
X10565796Y-17387494D01*
X10565796Y-17387494D02*
X10584843Y-17358923D01*
X10584843Y-17358923D02*
X10594367Y-17339875D01*
X10594367Y-17339875D02*
X10603891Y-17311304D01*
X10603891Y-17311304D02*
X10613415Y-17263685D01*
X10613415Y-17263685D02*
X10613415Y-17225590D01*
X10613415Y-17225590D02*
X10603891Y-17177971D01*
X10603891Y-17177971D02*
X10594367Y-17149399D01*
X10594367Y-17149399D02*
X10584843Y-17130352D01*
X10584843Y-17130352D02*
X10565796Y-17101780D01*
X10565796Y-17101780D02*
X10556272Y-17092256D01*
M02*
