G04 #@! TF.GenerationSoftware,KiCad,Pcbnew,9.0.6*
G04 #@! TF.CreationDate,2025-12-07T22:08:42+09:00*
G04 #@! TF.ProjectId,tarakkie_v1_light,74617261-6b6b-4696-955f-76315f6c6967,rev?*
G04 #@! TF.SameCoordinates,Original*
G04 #@! TF.FileFunction,Soldermask,Top*
G04 #@! TF.FilePolarity,Negative*
%FSLAX46Y46*%
G04 Gerber Fmt 4.6, Leading zero omitted, Abs format (unit mm)*
G04 Created by KiCad (PCBNEW 9.0.6) date 2025-12-07 22:08:42*
%MOMM*%
%LPD*%
G01*
G04 APERTURE LIST*
G04 Aperture macros list*
%AMRoundRect*
0 Rectangle with rounded corners*
0 $1 Rounding radius*
0 $2 $3 $4 $5 $6 $7 $8 $9 X,Y pos of 4 corners*
0 Add a 4 corners polygon primitive as box body*
4,1,4,$2,$3,$4,$5,$6,$7,$8,$9,$2,$3,0*
0 Add four circle primitives for the rounded corners*
1,1,$1+$1,$2,$3*
1,1,$1+$1,$4,$5*
1,1,$1+$1,$6,$7*
1,1,$1+$1,$8,$9*
0 Add four rect primitives between the rounded corners*
20,1,$1+$1,$2,$3,$4,$5,0*
20,1,$1+$1,$4,$5,$6,$7,0*
20,1,$1+$1,$6,$7,$8,$9,0*
20,1,$1+$1,$8,$9,$2,$3,0*%
%AMRotRect*
0 Rectangle, with rotation*
0 The origin of the aperture is its center*
0 $1 length*
0 $2 width*
0 $3 Rotation angle, in degrees counterclockwise*
0 Add horizontal line*
21,1,$1,$2,0,0,$3*%
G04 Aperture macros list end*
%ADD10C,3.000000*%
%ADD11C,4.800000*%
%ADD12C,1.000000*%
%ADD13R,1.397000X1.397000*%
%ADD14C,1.397000*%
%ADD15RotRect,1.397000X1.397000X190.000000*%
%ADD16RotRect,1.397000X1.397000X200.000000*%
%ADD17O,1.700000X1.700000*%
%ADD18C,1.524000*%
%ADD19RoundRect,0.250000X0.550000X-0.550000X0.550000X0.550000X-0.550000X0.550000X-0.550000X-0.550000X0*%
%ADD20C,1.600000*%
G04 APERTURE END LIST*
D10*
X147400000Y-113237500D03*
D11*
X152400000Y-109537500D03*
D10*
X152400000Y-115437500D03*
D12*
X157400000Y-103987500D03*
D13*
X96678750Y-107156250D03*
D14*
X89058750Y-107156250D03*
D13*
X153828750Y-102393750D03*
D14*
X146208750Y-102393750D03*
D10*
X128350000Y-98950000D03*
D11*
X133350000Y-95250000D03*
D10*
X133350000Y-101150000D03*
D12*
X138350000Y-89700000D03*
D10*
X109300000Y-108475000D03*
D11*
X114300000Y-104775000D03*
D10*
X114300000Y-110675000D03*
D12*
X119300000Y-99225000D03*
D13*
X153828750Y-121443750D03*
D14*
X146208750Y-121443750D03*
D13*
X96678750Y-88106250D03*
D14*
X89058750Y-88106250D03*
D13*
X96678750Y-69056250D03*
D14*
X89058750Y-69056250D03*
D13*
X127635000Y-130968750D03*
D14*
X120015000Y-130968750D03*
D10*
X90250000Y-118000000D03*
D11*
X95250000Y-114300000D03*
D10*
X95250000Y-120200000D03*
D12*
X100250000Y-108750000D03*
D13*
X77628750Y-111918750D03*
D14*
X70008750Y-111918750D03*
D13*
X172878750Y-83343750D03*
D14*
X165258750Y-83343750D03*
D10*
X52150000Y-122762500D03*
D11*
X57150000Y-119062500D03*
D10*
X57150000Y-124962500D03*
D12*
X62150000Y-113512500D03*
D10*
X102632500Y-141812500D03*
D11*
X107632500Y-138112500D03*
D10*
X107632500Y-144012500D03*
D12*
X112632500Y-132562500D03*
D10*
X121682500Y-141812500D03*
D11*
X126682500Y-138112500D03*
D10*
X126682500Y-144012500D03*
D12*
X131682500Y-132562500D03*
D13*
X134778750Y-50006250D03*
D14*
X127158750Y-50006250D03*
D13*
X172878750Y-64293750D03*
D14*
X165258750Y-64293750D03*
D13*
X134778750Y-69056250D03*
D14*
X127158750Y-69056250D03*
D10*
X71200000Y-65612500D03*
D11*
X76200000Y-61912500D03*
D10*
X76200000Y-67812500D03*
D12*
X81200000Y-56362500D03*
D10*
X71200000Y-122762500D03*
D11*
X76200000Y-119062500D03*
D10*
X76200000Y-124962500D03*
D12*
X81200000Y-113512500D03*
D10*
X90250000Y-98950000D03*
D11*
X95250000Y-95250000D03*
D10*
X95250000Y-101150000D03*
D12*
X100250000Y-89700000D03*
D13*
X108585000Y-130968750D03*
D14*
X100965000Y-130968750D03*
D15*
X87095870Y-132688400D03*
D14*
X79591630Y-134011600D03*
D13*
X134778750Y-88106250D03*
D14*
X127158750Y-88106250D03*
D13*
X58578750Y-111918750D03*
D14*
X50958750Y-111918750D03*
D13*
X77628750Y-92868750D03*
D14*
X70008750Y-92868750D03*
D13*
X77628750Y-54768750D03*
D14*
X70008750Y-54768750D03*
D10*
X166450000Y-132287500D03*
D11*
X171450000Y-128587500D03*
D10*
X171450000Y-134487500D03*
D12*
X176450000Y-123037500D03*
D13*
X77628750Y-73818750D03*
D14*
X70008750Y-73818750D03*
D10*
X147400000Y-94187500D03*
D11*
X152400000Y-90487500D03*
D10*
X152400000Y-96387500D03*
D12*
X157400000Y-84937500D03*
D10*
X166450000Y-113237500D03*
D11*
X171450000Y-109537500D03*
D10*
X171450000Y-115437500D03*
D12*
X176450000Y-103987500D03*
D10*
X147400000Y-132287500D03*
D11*
X152400000Y-128587500D03*
D10*
X152400000Y-134487500D03*
D12*
X157400000Y-123037500D03*
D10*
X109300000Y-70375000D03*
D11*
X114300000Y-66675000D03*
D10*
X114300000Y-72575000D03*
D12*
X119300000Y-61125000D03*
D16*
X65492729Y-139190653D03*
D14*
X58332271Y-141796847D03*
D10*
X90250000Y-60850000D03*
D11*
X95250000Y-57150000D03*
D10*
X95250000Y-63050000D03*
D12*
X100250000Y-51600000D03*
D10*
X71200000Y-103712500D03*
D11*
X76200000Y-100012500D03*
D10*
X76200000Y-105912500D03*
D12*
X81200000Y-94462500D03*
D13*
X115728750Y-40481251D03*
D14*
X108108750Y-40481249D03*
D10*
X109300000Y-51325000D03*
D11*
X114300000Y-47625000D03*
D10*
X114300000Y-53525000D03*
D12*
X119300000Y-42075000D03*
D13*
X172878750Y-121443750D03*
D14*
X165258750Y-121443750D03*
D13*
X115122500Y-78581250D03*
D14*
X107502500Y-78581250D03*
D10*
X147400000Y-75137500D03*
D11*
X152400000Y-71437500D03*
D10*
X152400000Y-77337500D03*
D12*
X157400000Y-65887500D03*
D10*
X166450000Y-75137500D03*
D11*
X171450000Y-71437500D03*
D10*
X171450000Y-77337500D03*
D12*
X176450000Y-65887500D03*
D13*
X96678750Y-50006250D03*
D14*
X89058750Y-50006250D03*
D10*
X128350000Y-118000000D03*
D11*
X133350000Y-114300000D03*
D10*
X133350000Y-120200000D03*
D12*
X138350000Y-108750000D03*
D13*
X115122500Y-59531250D03*
D14*
X107502500Y-59531250D03*
D10*
X128350000Y-79900000D03*
D11*
X133350000Y-76200000D03*
D10*
X133350000Y-82100000D03*
D12*
X138350000Y-70650000D03*
D10*
X82718459Y-144412030D03*
D11*
X87000000Y-139900000D03*
D10*
X88024524Y-145710366D03*
D12*
X90960291Y-133566076D03*
D13*
X153828750Y-64293750D03*
D14*
X146208750Y-64293750D03*
D10*
X166450000Y-94187500D03*
D11*
X171450000Y-90487500D03*
D10*
X171450000Y-96387500D03*
D12*
X176450000Y-84937500D03*
D10*
X71200000Y-84662500D03*
D11*
X76200000Y-80962500D03*
D10*
X76200000Y-86862500D03*
D12*
X81200000Y-75412500D03*
D10*
X109300000Y-89425000D03*
D11*
X114300000Y-85725000D03*
D10*
X114300000Y-91625000D03*
D12*
X119300000Y-80175000D03*
D10*
X128350000Y-60850000D03*
D11*
X133350000Y-57150000D03*
D10*
X133350000Y-63050000D03*
D12*
X138350000Y-51600000D03*
D10*
X63567011Y-150486962D03*
D11*
X67000000Y-145300000D03*
D10*
X69017919Y-150844186D03*
D12*
X69800251Y-138374605D03*
D10*
X90250000Y-79900000D03*
D11*
X95250000Y-76200000D03*
D10*
X95250000Y-82100000D03*
D12*
X100250000Y-70650000D03*
D13*
X115728750Y-97631250D03*
D14*
X108108750Y-97631250D03*
D13*
X153828750Y-83343750D03*
D14*
X146208750Y-83343750D03*
D13*
X134778750Y-107156250D03*
D14*
X127158750Y-107156250D03*
D13*
X172878750Y-102393750D03*
D14*
X165258750Y-102393750D03*
D17*
X146256250Y-39060000D03*
X144256250Y-39060000D03*
X150018750Y-56172500D03*
X148018750Y-56172500D03*
D18*
X173400000Y-36380000D03*
X173400000Y-38920000D03*
X173400000Y-41460000D03*
X173400000Y-44000000D03*
X173400000Y-46540000D03*
X173400000Y-49080000D03*
X173400000Y-51620000D03*
X158160000Y-51620000D03*
X158160000Y-49080000D03*
X158160000Y-46540000D03*
X158160000Y-44000000D03*
X158160000Y-41460000D03*
X158160000Y-38920000D03*
X158160000Y-36380000D03*
D19*
X135890000Y-44060000D03*
D20*
X133350000Y-44060000D03*
X130810000Y-44060000D03*
X130810000Y-36440000D03*
X133350000Y-36440000D03*
X135890000Y-36440000D03*
D17*
X150018750Y-49028750D03*
X148018750Y-49028750D03*
M02*
