M48
; DRILL file {KiCad 9.0.6} date 2025-12-07T22:10:17+0900
; FORMAT={-:-/ absolute / metric / decimal}
; #@! TF.CreationDate,2025-12-07T22:10:17+09:00
; #@! TF.GenerationSoftware,Kicad,Pcbnew,9.0.6
; #@! TF.FileFunction,NonPlated,1,2,NPTH
FMAT,2
METRIC
; #@! TA.AperFunction,NonPlated,NPTH,ComponentDrill
T1C1.000
; #@! TA.AperFunction,NonPlated,NPTH,ComponentDrill
T2C3.000
; #@! TA.AperFunction,NonPlated,NPTH,ComponentDrill
T3C4.800
%
G90
G05
T1
X62.15Y-113.512
X69.8Y-138.375
X81.2Y-56.362
X81.2Y-75.412
X81.2Y-94.462
X81.2Y-113.512
X90.96Y-133.566
X100.25Y-51.6
X100.25Y-70.65
X100.25Y-89.7
X100.25Y-108.75
X112.632Y-132.562
X119.3Y-42.075
X119.3Y-61.125
X119.3Y-80.175
X119.3Y-99.225
X131.683Y-132.562
X138.35Y-51.6
X138.35Y-70.65
X138.35Y-89.7
X138.35Y-108.75
X157.4Y-65.888
X157.4Y-84.938
X157.4Y-103.987
X157.4Y-123.037
X176.45Y-65.888
X176.45Y-84.938
X176.45Y-103.987
X176.45Y-123.037
T2
X52.15Y-122.762
X57.15Y-124.962
X63.567Y-150.487
X69.018Y-150.844
X71.2Y-65.612
X71.2Y-84.662
X71.2Y-103.712
X71.2Y-122.762
X76.2Y-67.812
X76.2Y-86.862
X76.2Y-105.912
X76.2Y-124.962
X82.718Y-144.412
X88.025Y-145.71
X90.25Y-60.85
X90.25Y-79.9
X90.25Y-98.95
X90.25Y-118.0
X95.25Y-63.05
X95.25Y-82.1
X95.25Y-101.15
X95.25Y-120.2
X102.632Y-141.812
X107.632Y-144.012
X109.3Y-51.325
X109.3Y-70.375
X109.3Y-89.425
X109.3Y-108.475
X114.3Y-53.525
X114.3Y-72.575
X114.3Y-91.625
X114.3Y-110.675
X121.682Y-141.812
X126.682Y-144.012
X128.35Y-60.85
X128.35Y-79.9
X128.35Y-98.95
X128.35Y-118.0
X133.35Y-63.05
X133.35Y-82.1
X133.35Y-101.15
X133.35Y-120.2
X147.4Y-75.138
X147.4Y-94.188
X147.4Y-113.237
X147.4Y-132.287
X152.4Y-77.337
X152.4Y-96.387
X152.4Y-115.438
X152.4Y-134.487
X166.45Y-75.138
X166.45Y-94.188
X166.45Y-113.237
X166.45Y-132.287
X171.45Y-77.337
X171.45Y-96.387
X171.45Y-115.438
X171.45Y-134.487
T3
X57.15Y-119.062
X67.0Y-145.3
X76.2Y-61.912
X76.2Y-80.962
X76.2Y-100.012
X76.2Y-119.062
X87.0Y-139.9
X95.25Y-57.15
X95.25Y-76.2
X95.25Y-95.25
X95.25Y-114.3
X107.632Y-138.112
X114.3Y-47.625
X114.3Y-66.675
X114.3Y-85.725
X114.3Y-104.775
X126.682Y-138.112
X133.35Y-57.15
X133.35Y-76.2
X133.35Y-95.25
X133.35Y-114.3
X152.4Y-71.438
X152.4Y-90.487
X152.4Y-109.537
X152.4Y-128.588
X171.45Y-71.438
X171.45Y-90.487
X171.45Y-109.537
X171.45Y-128.588
M30
