G04 #@! TF.GenerationSoftware,KiCad,Pcbnew,9.0.6*
G04 #@! TF.CreationDate,2025-12-07T22:08:42+09:00*
G04 #@! TF.ProjectId,tarakkie_v1_light,74617261-6b6b-4696-955f-76315f6c6967,rev?*
G04 #@! TF.SameCoordinates,Original*
G04 #@! TF.FileFunction,Soldermask,Bot*
G04 #@! TF.FilePolarity,Negative*
%FSLAX46Y46*%
G04 Gerber Fmt 4.6, Leading zero omitted, Abs format (unit mm)*
G04 Created by KiCad (PCBNEW 9.0.6) date 2025-12-07 22:08:42*
%MOMM*%
%LPD*%
G01*
G04 APERTURE LIST*
G04 Aperture macros list*
%AMRoundRect*
0 Rectangle with rounded corners*
0 $1 Rounding radius*
0 $2 $3 $4 $5 $6 $7 $8 $9 X,Y pos of 4 corners*
0 Add a 4 corners polygon primitive as box body*
4,1,4,$2,$3,$4,$5,$6,$7,$8,$9,$2,$3,0*
0 Add four circle primitives for the rounded corners*
1,1,$1+$1,$2,$3*
1,1,$1+$1,$4,$5*
1,1,$1+$1,$6,$7*
1,1,$1+$1,$8,$9*
0 Add four rect primitives between the rounded corners*
20,1,$1+$1,$2,$3,$4,$5,0*
20,1,$1+$1,$4,$5,$6,$7,0*
20,1,$1+$1,$6,$7,$8,$9,0*
20,1,$1+$1,$8,$9,$2,$3,0*%
%AMRotRect*
0 Rectangle, with rotation*
0 The origin of the aperture is its center*
0 $1 length*
0 $2 width*
0 $3 Rotation angle, in degrees counterclockwise*
0 Add horizontal line*
21,1,$1,$2,0,0,$3*%
G04 Aperture macros list end*
%ADD10C,3.000000*%
%ADD11C,4.800000*%
%ADD12C,1.000000*%
%ADD13R,3.000000X3.500000*%
%ADD14R,1.397000X1.397000*%
%ADD15R,1.300000X0.950000*%
%ADD16C,1.397000*%
%ADD17RotRect,1.397000X1.397000X190.000000*%
%ADD18RotRect,1.300000X0.950000X190.000000*%
%ADD19RotRect,1.397000X1.397000X200.000000*%
%ADD20RotRect,1.300000X0.950000X200.000000*%
%ADD21RotRect,3.000000X3.500000X190.000000*%
%ADD22RotRect,3.000000X3.500000X200.000000*%
%ADD23O,1.700000X1.700000*%
%ADD24C,1.524000*%
%ADD25RoundRect,0.152400X-1.063600X-0.609600X1.063600X-0.609600X1.063600X0.609600X-1.063600X0.609600X0*%
%ADD26RoundRect,0.152400X1.063600X0.609600X-1.063600X0.609600X-1.063600X-0.609600X1.063600X-0.609600X0*%
%ADD27RoundRect,0.250000X0.550000X-0.550000X0.550000X0.550000X-0.550000X0.550000X-0.550000X-0.550000X0*%
%ADD28C,1.600000*%
G04 APERTURE END LIST*
D10*
X147400000Y-113237500D03*
D11*
X152400000Y-109537500D03*
D10*
X152400000Y-115437500D03*
D12*
X157400000Y-103987500D03*
D13*
X144050000Y-113237500D03*
X155950000Y-115437500D03*
D14*
X96678750Y-107156250D03*
D15*
X94643750Y-107156250D03*
X91093750Y-107156250D03*
D16*
X89058750Y-107156250D03*
D14*
X153828750Y-102393750D03*
D15*
X151793750Y-102393750D03*
X148243750Y-102393750D03*
D16*
X146208750Y-102393750D03*
D10*
X128350000Y-98950000D03*
D11*
X133350000Y-95250000D03*
D10*
X133350000Y-101150000D03*
D12*
X138350000Y-89700000D03*
D13*
X125000000Y-98950000D03*
X136900000Y-101150000D03*
D10*
X109300000Y-108475000D03*
D11*
X114300000Y-104775000D03*
D10*
X114300000Y-110675000D03*
D12*
X119300000Y-99225000D03*
D13*
X105950000Y-108475000D03*
X117850000Y-110675000D03*
D14*
X153828750Y-121443750D03*
D15*
X151793750Y-121443750D03*
X148243750Y-121443750D03*
D16*
X146208750Y-121443750D03*
D14*
X96678750Y-88106250D03*
D15*
X94643750Y-88106250D03*
X91093750Y-88106250D03*
D16*
X89058750Y-88106250D03*
D14*
X96678750Y-69056250D03*
D15*
X94643750Y-69056250D03*
X91093750Y-69056250D03*
D16*
X89058750Y-69056250D03*
D14*
X127635000Y-130968750D03*
D15*
X125600000Y-130968750D03*
X122050000Y-130968750D03*
D16*
X120015000Y-130968750D03*
D10*
X90250000Y-118000000D03*
D11*
X95250000Y-114300000D03*
D10*
X95250000Y-120200000D03*
D12*
X100250000Y-108750000D03*
D13*
X86900000Y-118000000D03*
X98800000Y-120200000D03*
D14*
X77628750Y-111918750D03*
D15*
X75593750Y-111918750D03*
X72043750Y-111918750D03*
D16*
X70008750Y-111918750D03*
D14*
X172878750Y-83343750D03*
D15*
X170843750Y-83343750D03*
X167293750Y-83343750D03*
D16*
X165258750Y-83343750D03*
D10*
X52150000Y-122762500D03*
D11*
X57150000Y-119062500D03*
D10*
X57150000Y-124962500D03*
D12*
X62150000Y-113512500D03*
D13*
X48800000Y-122762500D03*
X60700000Y-124962500D03*
D10*
X102632500Y-141812500D03*
D11*
X107632500Y-138112500D03*
D10*
X107632500Y-144012500D03*
D12*
X112632500Y-132562500D03*
D13*
X99282500Y-141812500D03*
X111182500Y-144012500D03*
D10*
X121682500Y-141812500D03*
D11*
X126682500Y-138112500D03*
D10*
X126682500Y-144012500D03*
D12*
X131682500Y-132562500D03*
D13*
X118332500Y-141812500D03*
X130232500Y-144012500D03*
D14*
X134778750Y-50006250D03*
D15*
X132743750Y-50006250D03*
X129193750Y-50006250D03*
D16*
X127158750Y-50006250D03*
D14*
X172878750Y-64293750D03*
D15*
X170843750Y-64293750D03*
X167293750Y-64293750D03*
D16*
X165258750Y-64293750D03*
D14*
X134778750Y-69056250D03*
D15*
X132743750Y-69056250D03*
X129193750Y-69056250D03*
D16*
X127158750Y-69056250D03*
D10*
X71200000Y-65612500D03*
D11*
X76200000Y-61912500D03*
D10*
X76200000Y-67812500D03*
D12*
X81200000Y-56362500D03*
D13*
X67850000Y-65612500D03*
X79750000Y-67812500D03*
D10*
X71200000Y-122762500D03*
D11*
X76200000Y-119062500D03*
D10*
X76200000Y-124962500D03*
D12*
X81200000Y-113512500D03*
D13*
X67850000Y-122762500D03*
X79750000Y-124962500D03*
D10*
X90250000Y-98950000D03*
D11*
X95250000Y-95250000D03*
D10*
X95250000Y-101150000D03*
D12*
X100250000Y-89700000D03*
D13*
X86900000Y-98950000D03*
X98800000Y-101150000D03*
D14*
X108585000Y-130968750D03*
D15*
X106550000Y-130968750D03*
X103000000Y-130968750D03*
D16*
X100965000Y-130968750D03*
D17*
X87095870Y-132688400D03*
D18*
X85091784Y-133041774D03*
X81595716Y-133658226D03*
D16*
X79591630Y-134011600D03*
D14*
X134778750Y-88106250D03*
D15*
X132743750Y-88106250D03*
X129193750Y-88106250D03*
D16*
X127158750Y-88106250D03*
D14*
X58578750Y-111918750D03*
D15*
X56543750Y-111918750D03*
X52993750Y-111918750D03*
D16*
X50958750Y-111918750D03*
D14*
X77628750Y-92868750D03*
D15*
X75593750Y-92868750D03*
X72043750Y-92868750D03*
D16*
X70008750Y-92868750D03*
D14*
X77628750Y-54768750D03*
D15*
X75593750Y-54768750D03*
X72043750Y-54768750D03*
D16*
X70008750Y-54768750D03*
D10*
X166450000Y-132287500D03*
D11*
X171450000Y-128587500D03*
D10*
X171450000Y-134487500D03*
D12*
X176450000Y-123037500D03*
D13*
X163100000Y-132287500D03*
X175000000Y-134487500D03*
D14*
X77628750Y-73818750D03*
D15*
X75593750Y-73818750D03*
X72043750Y-73818750D03*
D16*
X70008750Y-73818750D03*
D10*
X147400000Y-94187500D03*
D11*
X152400000Y-90487500D03*
D10*
X152400000Y-96387500D03*
D12*
X157400000Y-84937500D03*
D13*
X144050000Y-94187500D03*
X155950000Y-96387500D03*
D10*
X166450000Y-113237500D03*
D11*
X171450000Y-109537500D03*
D10*
X171450000Y-115437500D03*
D12*
X176450000Y-103987500D03*
D13*
X163100000Y-113237500D03*
X175000000Y-115437500D03*
D10*
X147400000Y-132287500D03*
D11*
X152400000Y-128587500D03*
D10*
X152400000Y-134487500D03*
D12*
X157400000Y-123037500D03*
D13*
X144050000Y-132287500D03*
X155950000Y-134487500D03*
D10*
X109300000Y-70375000D03*
D11*
X114300000Y-66675000D03*
D10*
X114300000Y-72575000D03*
D12*
X119300000Y-61125000D03*
D13*
X105950000Y-70375000D03*
X117850000Y-72575000D03*
D19*
X65492729Y-139190653D03*
D20*
X63580454Y-139886664D03*
X60244546Y-141100836D03*
D16*
X58332271Y-141796847D03*
D10*
X90250000Y-60850000D03*
D11*
X95250000Y-57150000D03*
D10*
X95250000Y-63050000D03*
D12*
X100250000Y-51600000D03*
D13*
X86900000Y-60850000D03*
X98800000Y-63050000D03*
D10*
X71200000Y-103712500D03*
D11*
X76200000Y-100012500D03*
D10*
X76200000Y-105912500D03*
D12*
X81200000Y-94462500D03*
D13*
X67850000Y-103712500D03*
X79750000Y-105912500D03*
D14*
X115728750Y-40481251D03*
D15*
X113693750Y-40481251D03*
X110143750Y-40481249D03*
D16*
X108108750Y-40481249D03*
D10*
X109300000Y-51325000D03*
D11*
X114300000Y-47625000D03*
D10*
X114300000Y-53525000D03*
D12*
X119300000Y-42075000D03*
D13*
X105950000Y-51325000D03*
X117850000Y-53525000D03*
D14*
X172878750Y-121443750D03*
D15*
X170843750Y-121443750D03*
X167293750Y-121443750D03*
D16*
X165258750Y-121443750D03*
D14*
X115122500Y-78581250D03*
D15*
X113087500Y-78581250D03*
X109537500Y-78581250D03*
D16*
X107502500Y-78581250D03*
D10*
X147400000Y-75137500D03*
D11*
X152400000Y-71437500D03*
D10*
X152400000Y-77337500D03*
D12*
X157400000Y-65887500D03*
D13*
X144050000Y-75137500D03*
X155950000Y-77337500D03*
D10*
X166450000Y-75137500D03*
D11*
X171450000Y-71437500D03*
D10*
X171450000Y-77337500D03*
D12*
X176450000Y-65887500D03*
D13*
X163100000Y-75137500D03*
X175000000Y-77337500D03*
D14*
X96678750Y-50006250D03*
D15*
X94643750Y-50006250D03*
X91093750Y-50006250D03*
D16*
X89058750Y-50006250D03*
D10*
X128350000Y-118000000D03*
D11*
X133350000Y-114300000D03*
D10*
X133350000Y-120200000D03*
D12*
X138350000Y-108750000D03*
D13*
X125000000Y-118000000D03*
X136900000Y-120200000D03*
D14*
X115122500Y-59531250D03*
D15*
X113087500Y-59531250D03*
X109537500Y-59531250D03*
D16*
X107502500Y-59531250D03*
D10*
X128350000Y-79900000D03*
D11*
X133350000Y-76200000D03*
D10*
X133350000Y-82100000D03*
D12*
X138350000Y-70650000D03*
D13*
X125000000Y-79900000D03*
X136900000Y-82100000D03*
D10*
X82718459Y-144412030D03*
D11*
X87000000Y-139900000D03*
D10*
X88024524Y-145710366D03*
D12*
X90960291Y-133566076D03*
D21*
X79419354Y-144993751D03*
X91520592Y-145093915D03*
D14*
X153828750Y-64293750D03*
D15*
X151793750Y-64293750D03*
X148243750Y-64293750D03*
D16*
X146208750Y-64293750D03*
D10*
X166450000Y-94187500D03*
D11*
X171450000Y-90487500D03*
D10*
X171450000Y-96387500D03*
D12*
X176450000Y-84937500D03*
D13*
X163100000Y-94187500D03*
X175000000Y-96387500D03*
D10*
X71200000Y-84662500D03*
D11*
X76200000Y-80962500D03*
D10*
X76200000Y-86862500D03*
D12*
X81200000Y-75412500D03*
D13*
X67850000Y-84662500D03*
X79750000Y-86862500D03*
D10*
X109300000Y-89425000D03*
D11*
X114300000Y-85725000D03*
D10*
X114300000Y-91625000D03*
D12*
X119300000Y-80175000D03*
D13*
X105950000Y-89425000D03*
X117850000Y-91625000D03*
D10*
X128350000Y-60850000D03*
D11*
X133350000Y-57150000D03*
D10*
X133350000Y-63050000D03*
D12*
X138350000Y-51600000D03*
D13*
X125000000Y-60850000D03*
X136900000Y-63050000D03*
D10*
X63567011Y-150486962D03*
D11*
X67000000Y-145300000D03*
D10*
X69017919Y-150844186D03*
D12*
X69800251Y-138374605D03*
D22*
X60419041Y-151632731D03*
X72353828Y-149630015D03*
D10*
X90250000Y-79900000D03*
D11*
X95250000Y-76200000D03*
D10*
X95250000Y-82100000D03*
D12*
X100250000Y-70650000D03*
D13*
X86900000Y-79900000D03*
X98800000Y-82100000D03*
D14*
X115728750Y-97631250D03*
D15*
X113693750Y-97631250D03*
X110143750Y-97631250D03*
D16*
X108108750Y-97631250D03*
D14*
X153828750Y-83343750D03*
D15*
X151793750Y-83343750D03*
X148243750Y-83343750D03*
D16*
X146208750Y-83343750D03*
D14*
X134778750Y-107156250D03*
D15*
X132743750Y-107156250D03*
X129193750Y-107156250D03*
D16*
X127158750Y-107156250D03*
D14*
X172878750Y-102393750D03*
D15*
X170843750Y-102393750D03*
X167293750Y-102393750D03*
D16*
X165258750Y-102393750D03*
D23*
X146256250Y-39060000D03*
X144256250Y-39060000D03*
X150018750Y-56172500D03*
X148018750Y-56172500D03*
D24*
X173400000Y-36380000D03*
D25*
X174235000Y-36380000D03*
D24*
X173400000Y-38920000D03*
D25*
X174235000Y-38920000D03*
D24*
X173400000Y-41460000D03*
D25*
X174235000Y-41460000D03*
D24*
X173400000Y-44000000D03*
D25*
X174235000Y-44000000D03*
D24*
X173400000Y-46540000D03*
D25*
X174235000Y-46540000D03*
D24*
X173400000Y-49080000D03*
D25*
X174235000Y-49080000D03*
D24*
X173400000Y-51620000D03*
D25*
X174235000Y-51620000D03*
D26*
X157325000Y-51620000D03*
D24*
X158160000Y-51620000D03*
D26*
X157325000Y-49080000D03*
D24*
X158160000Y-49080000D03*
D26*
X157325000Y-46540000D03*
D24*
X158160000Y-46540000D03*
D26*
X157325000Y-44000000D03*
D24*
X158160000Y-44000000D03*
D26*
X157325000Y-41460000D03*
D24*
X158160000Y-41460000D03*
D26*
X157325000Y-38920000D03*
D24*
X158160000Y-38920000D03*
D26*
X157325000Y-36380000D03*
D24*
X158160000Y-36380000D03*
D27*
X135890000Y-44060000D03*
D28*
X133350000Y-44060000D03*
X130810000Y-44060000D03*
X130810000Y-36440000D03*
X133350000Y-36440000D03*
X135890000Y-36440000D03*
D23*
X150018750Y-49028750D03*
X148018750Y-49028750D03*
M02*
