G04 #@! TF.GenerationSoftware,KiCad,Pcbnew,9.0.6*
G04 #@! TF.CreationDate,2025-12-07T22:08:42+09:00*
G04 #@! TF.ProjectId,tarakkie_v1_light,74617261-6b6b-4696-955f-76315f6c6967,rev?*
G04 #@! TF.SameCoordinates,Original*
G04 #@! TF.FileFunction,Copper,L2,Bot*
G04 #@! TF.FilePolarity,Positive*
%FSLAX46Y46*%
G04 Gerber Fmt 4.6, Leading zero omitted, Abs format (unit mm)*
G04 Created by KiCad (PCBNEW 9.0.6) date 2025-12-07 22:08:42*
%MOMM*%
%LPD*%
G01*
G04 APERTURE LIST*
G04 Aperture macros list*
%AMRoundRect*
0 Rectangle with rounded corners*
0 $1 Rounding radius*
0 $2 $3 $4 $5 $6 $7 $8 $9 X,Y pos of 4 corners*
0 Add a 4 corners polygon primitive as box body*
4,1,4,$2,$3,$4,$5,$6,$7,$8,$9,$2,$3,0*
0 Add four circle primitives for the rounded corners*
1,1,$1+$1,$2,$3*
1,1,$1+$1,$4,$5*
1,1,$1+$1,$6,$7*
1,1,$1+$1,$8,$9*
0 Add four rect primitives between the rounded corners*
20,1,$1+$1,$2,$3,$4,$5,0*
20,1,$1+$1,$4,$5,$6,$7,0*
20,1,$1+$1,$6,$7,$8,$9,0*
20,1,$1+$1,$8,$9,$2,$3,0*%
%AMRotRect*
0 Rectangle, with rotation*
0 The origin of the aperture is its center*
0 $1 length*
0 $2 width*
0 $3 Rotation angle, in degrees counterclockwise*
0 Add horizontal line*
21,1,$1,$2,0,0,$3*%
G04 Aperture macros list end*
G04 #@! TA.AperFunction,SMDPad,CuDef*
%ADD10R,3.000000X3.500000*%
G04 #@! TD*
G04 #@! TA.AperFunction,ComponentPad*
%ADD11R,1.397000X1.397000*%
G04 #@! TD*
G04 #@! TA.AperFunction,SMDPad,CuDef*
%ADD12R,1.300000X0.950000*%
G04 #@! TD*
G04 #@! TA.AperFunction,ComponentPad*
%ADD13C,1.397000*%
G04 #@! TD*
G04 #@! TA.AperFunction,ComponentPad*
%ADD14RotRect,1.397000X1.397000X190.000000*%
G04 #@! TD*
G04 #@! TA.AperFunction,SMDPad,CuDef*
%ADD15RotRect,1.300000X0.950000X190.000000*%
G04 #@! TD*
G04 #@! TA.AperFunction,ComponentPad*
%ADD16RotRect,1.397000X1.397000X200.000000*%
G04 #@! TD*
G04 #@! TA.AperFunction,SMDPad,CuDef*
%ADD17RotRect,1.300000X0.950000X200.000000*%
G04 #@! TD*
G04 #@! TA.AperFunction,SMDPad,CuDef*
%ADD18RotRect,3.000000X3.500000X190.000000*%
G04 #@! TD*
G04 #@! TA.AperFunction,SMDPad,CuDef*
%ADD19RotRect,3.000000X3.500000X200.000000*%
G04 #@! TD*
G04 #@! TA.AperFunction,ComponentPad*
%ADD20O,1.700000X1.700000*%
G04 #@! TD*
G04 #@! TA.AperFunction,ComponentPad*
%ADD21C,1.524000*%
G04 #@! TD*
G04 #@! TA.AperFunction,SMDPad,CuDef*
%ADD22RoundRect,0.152400X-1.063600X-0.609600X1.063600X-0.609600X1.063600X0.609600X-1.063600X0.609600X0*%
G04 #@! TD*
G04 #@! TA.AperFunction,SMDPad,CuDef*
%ADD23RoundRect,0.152400X1.063600X0.609600X-1.063600X0.609600X-1.063600X-0.609600X1.063600X-0.609600X0*%
G04 #@! TD*
G04 #@! TA.AperFunction,ComponentPad*
%ADD24RoundRect,0.250000X0.550000X-0.550000X0.550000X0.550000X-0.550000X0.550000X-0.550000X-0.550000X0*%
G04 #@! TD*
G04 #@! TA.AperFunction,ComponentPad*
%ADD25C,1.600000*%
G04 #@! TD*
G04 #@! TA.AperFunction,ViaPad*
%ADD26C,0.600000*%
G04 #@! TD*
G04 #@! TA.AperFunction,Conductor*
%ADD27C,0.250000*%
G04 #@! TD*
G04 #@! TA.AperFunction,Conductor*
%ADD28C,0.200000*%
G04 #@! TD*
G04 #@! TA.AperFunction,Conductor*
%ADD29C,0.500000*%
G04 #@! TD*
G04 APERTURE END LIST*
D10*
X144050000Y-113237500D03*
X155950000Y-115437500D03*
D11*
X96678750Y-107156250D03*
D12*
X94643750Y-107156250D03*
X91093750Y-107156250D03*
D13*
X89058750Y-107156250D03*
D11*
X153828750Y-102393750D03*
D12*
X151793750Y-102393750D03*
X148243750Y-102393750D03*
D13*
X146208750Y-102393750D03*
D10*
X125000000Y-98950000D03*
X136900000Y-101150000D03*
X105950000Y-108475000D03*
X117850000Y-110675000D03*
D11*
X153828750Y-121443750D03*
D12*
X151793750Y-121443750D03*
X148243750Y-121443750D03*
D13*
X146208750Y-121443750D03*
D11*
X96678750Y-88106250D03*
D12*
X94643750Y-88106250D03*
X91093750Y-88106250D03*
D13*
X89058750Y-88106250D03*
D11*
X96678750Y-69056250D03*
D12*
X94643750Y-69056250D03*
X91093750Y-69056250D03*
D13*
X89058750Y-69056250D03*
D11*
X127635000Y-130968750D03*
D12*
X125600000Y-130968750D03*
X122050000Y-130968750D03*
D13*
X120015000Y-130968750D03*
D10*
X86900000Y-118000000D03*
X98800000Y-120200000D03*
D11*
X77628750Y-111918750D03*
D12*
X75593750Y-111918750D03*
X72043750Y-111918750D03*
D13*
X70008750Y-111918750D03*
D11*
X172878750Y-83343750D03*
D12*
X170843750Y-83343750D03*
X167293750Y-83343750D03*
D13*
X165258750Y-83343750D03*
D10*
X48800000Y-122762500D03*
X60700000Y-124962500D03*
X99282500Y-141812500D03*
X111182500Y-144012500D03*
X118332500Y-141812500D03*
X130232500Y-144012500D03*
D11*
X134778750Y-50006250D03*
D12*
X132743750Y-50006250D03*
X129193750Y-50006250D03*
D13*
X127158750Y-50006250D03*
D11*
X172878750Y-64293750D03*
D12*
X170843750Y-64293750D03*
X167293750Y-64293750D03*
D13*
X165258750Y-64293750D03*
D11*
X134778750Y-69056250D03*
D12*
X132743750Y-69056250D03*
X129193750Y-69056250D03*
D13*
X127158750Y-69056250D03*
D10*
X67850000Y-65612500D03*
X79750000Y-67812500D03*
X67850000Y-122762500D03*
X79750000Y-124962500D03*
X86900000Y-98950000D03*
X98800000Y-101150000D03*
D11*
X108585000Y-130968750D03*
D12*
X106550000Y-130968750D03*
X103000000Y-130968750D03*
D13*
X100965000Y-130968750D03*
D14*
X87095870Y-132688400D03*
D15*
X85091784Y-133041774D03*
X81595716Y-133658226D03*
D13*
X79591630Y-134011600D03*
D11*
X134778750Y-88106250D03*
D12*
X132743750Y-88106250D03*
X129193750Y-88106250D03*
D13*
X127158750Y-88106250D03*
D11*
X58578750Y-111918750D03*
D12*
X56543750Y-111918750D03*
X52993750Y-111918750D03*
D13*
X50958750Y-111918750D03*
D11*
X77628750Y-92868750D03*
D12*
X75593750Y-92868750D03*
X72043750Y-92868750D03*
D13*
X70008750Y-92868750D03*
D11*
X77628750Y-54768750D03*
D12*
X75593750Y-54768750D03*
X72043750Y-54768750D03*
D13*
X70008750Y-54768750D03*
D10*
X163100000Y-132287500D03*
X175000000Y-134487500D03*
D11*
X77628750Y-73818750D03*
D12*
X75593750Y-73818750D03*
X72043750Y-73818750D03*
D13*
X70008750Y-73818750D03*
D10*
X144050000Y-94187500D03*
X155950000Y-96387500D03*
X163100000Y-113237500D03*
X175000000Y-115437500D03*
X144050000Y-132287500D03*
X155950000Y-134487500D03*
X105950000Y-70375000D03*
X117850000Y-72575000D03*
D16*
X65492729Y-139190653D03*
D17*
X63580454Y-139886664D03*
X60244546Y-141100836D03*
D13*
X58332271Y-141796847D03*
D10*
X86900000Y-60850000D03*
X98800000Y-63050000D03*
X67850000Y-103712500D03*
X79750000Y-105912500D03*
D11*
X115728750Y-40481251D03*
D12*
X113693750Y-40481251D03*
X110143750Y-40481249D03*
D13*
X108108750Y-40481249D03*
D10*
X105950000Y-51325000D03*
X117850000Y-53525000D03*
D11*
X172878750Y-121443750D03*
D12*
X170843750Y-121443750D03*
X167293750Y-121443750D03*
D13*
X165258750Y-121443750D03*
D11*
X115122500Y-78581250D03*
D12*
X113087500Y-78581250D03*
X109537500Y-78581250D03*
D13*
X107502500Y-78581250D03*
D10*
X144050000Y-75137500D03*
X155950000Y-77337500D03*
X163100000Y-75137500D03*
X175000000Y-77337500D03*
D11*
X96678750Y-50006250D03*
D12*
X94643750Y-50006250D03*
X91093750Y-50006250D03*
D13*
X89058750Y-50006250D03*
D10*
X125000000Y-118000000D03*
X136900000Y-120200000D03*
D11*
X115122500Y-59531250D03*
D12*
X113087500Y-59531250D03*
X109537500Y-59531250D03*
D13*
X107502500Y-59531250D03*
D10*
X125000000Y-79900000D03*
X136900000Y-82100000D03*
D18*
X79419354Y-144993751D03*
X91520592Y-145093915D03*
D11*
X153828750Y-64293750D03*
D12*
X151793750Y-64293750D03*
X148243750Y-64293750D03*
D13*
X146208750Y-64293750D03*
D10*
X163100000Y-94187500D03*
X175000000Y-96387500D03*
X67850000Y-84662500D03*
X79750000Y-86862500D03*
X105950000Y-89425000D03*
X117850000Y-91625000D03*
X125000000Y-60850000D03*
X136900000Y-63050000D03*
D19*
X60419041Y-151632731D03*
X72353828Y-149630015D03*
D10*
X86900000Y-79900000D03*
X98800000Y-82100000D03*
D11*
X115728750Y-97631250D03*
D12*
X113693750Y-97631250D03*
X110143750Y-97631250D03*
D13*
X108108750Y-97631250D03*
D11*
X153828750Y-83343750D03*
D12*
X151793750Y-83343750D03*
X148243750Y-83343750D03*
D13*
X146208750Y-83343750D03*
D11*
X134778750Y-107156250D03*
D12*
X132743750Y-107156250D03*
X129193750Y-107156250D03*
D13*
X127158750Y-107156250D03*
D11*
X172878750Y-102393750D03*
D12*
X170843750Y-102393750D03*
X167293750Y-102393750D03*
D13*
X165258750Y-102393750D03*
D20*
X146256250Y-39060000D03*
X144256250Y-39060000D03*
X150018750Y-56172500D03*
X148018750Y-56172500D03*
D21*
X173400000Y-36380000D03*
D22*
X174235000Y-36380000D03*
D21*
X173400000Y-38920000D03*
D22*
X174235000Y-38920000D03*
D21*
X173400000Y-41460000D03*
D22*
X174235000Y-41460000D03*
D21*
X173400000Y-44000000D03*
D22*
X174235000Y-44000000D03*
D21*
X173400000Y-46540000D03*
D22*
X174235000Y-46540000D03*
D21*
X173400000Y-49080000D03*
D22*
X174235000Y-49080000D03*
D21*
X173400000Y-51620000D03*
D22*
X174235000Y-51620000D03*
D23*
X157325000Y-51620000D03*
D21*
X158160000Y-51620000D03*
D23*
X157325000Y-49080000D03*
D21*
X158160000Y-49080000D03*
D23*
X157325000Y-46540000D03*
D21*
X158160000Y-46540000D03*
D23*
X157325000Y-44000000D03*
D21*
X158160000Y-44000000D03*
D23*
X157325000Y-41460000D03*
D21*
X158160000Y-41460000D03*
D23*
X157325000Y-38920000D03*
D21*
X158160000Y-38920000D03*
D23*
X157325000Y-36380000D03*
D21*
X158160000Y-36380000D03*
D24*
X135890000Y-44060000D03*
D25*
X133350000Y-44060000D03*
X130810000Y-44060000D03*
X130810000Y-36440000D03*
X133350000Y-36440000D03*
X135890000Y-36440000D03*
D20*
X150018750Y-49028750D03*
X148018750Y-49028750D03*
D26*
X176500000Y-38000000D03*
X177500000Y-40500000D03*
X178500000Y-43000000D03*
X179500000Y-46000000D03*
X178500000Y-138000000D03*
X180500000Y-53500000D03*
X67850000Y-54150000D03*
X86900000Y-48900000D03*
X158500000Y-68000000D03*
X147000000Y-68000000D03*
X61000000Y-144000000D03*
X69500000Y-148843186D03*
X81500000Y-137500000D03*
X88573595Y-143735265D03*
X103000000Y-133500000D03*
X108500000Y-142000000D03*
X122000000Y-134000000D03*
X127001965Y-141987545D03*
D27*
X94643750Y-50006250D02*
X96678750Y-50006250D01*
X75593750Y-54768750D02*
X77628750Y-54768750D01*
X132743750Y-50006250D02*
X134778750Y-50006250D01*
D28*
X176500000Y-38000000D02*
X176500000Y-60672500D01*
X176500000Y-60672500D02*
X172878750Y-64293750D01*
D27*
X151793750Y-64293750D02*
X153828750Y-64293750D01*
X113693750Y-40481251D02*
X115728750Y-40481251D01*
X170843750Y-64293750D02*
X172878750Y-64293750D01*
D28*
X177500000Y-80315996D02*
X174472246Y-83343750D01*
D27*
X170843750Y-83343750D02*
X172878750Y-83343750D01*
X113087500Y-59531250D02*
X115122500Y-59531250D01*
X151793750Y-83343750D02*
X153828750Y-83343750D01*
D28*
X177500000Y-40500000D02*
X177500000Y-80315996D01*
X174472246Y-83343750D02*
X172878750Y-83343750D01*
D27*
X132743750Y-69056250D02*
X134778750Y-69056250D01*
X94643750Y-69056250D02*
X96678750Y-69056250D01*
X75593750Y-73818750D02*
X77628750Y-73818750D01*
D28*
X176000000Y-102500000D02*
X175893750Y-102393750D01*
X178500000Y-100000000D02*
X176000000Y-102500000D01*
D27*
X151793750Y-102393750D02*
X153828750Y-102393750D01*
D28*
X178500000Y-43000000D02*
X178500000Y-100000000D01*
D27*
X113087500Y-78581250D02*
X115122500Y-78581250D01*
X94643750Y-88106250D02*
X96678750Y-88106250D01*
X132743750Y-88106250D02*
X134778750Y-88106250D01*
X170843750Y-102393750D02*
X172878750Y-102393750D01*
X75593750Y-92868750D02*
X77628750Y-92868750D01*
D28*
X175893750Y-102393750D02*
X172878750Y-102393750D01*
D27*
X113693750Y-97631250D02*
X115728750Y-97631250D01*
X132743750Y-107156250D02*
X134778750Y-107156250D01*
X75593750Y-111918750D02*
X77628750Y-111918750D01*
X94643750Y-107156250D02*
X96678750Y-107156250D01*
D28*
X175943750Y-121443750D02*
X172878750Y-121443750D01*
X176000000Y-121500000D02*
X175943750Y-121443750D01*
X179500000Y-46000000D02*
X179500000Y-118000000D01*
D27*
X151793750Y-121443750D02*
X153828750Y-121443750D01*
D28*
X179500000Y-118000000D02*
X176000000Y-121500000D01*
D27*
X170843750Y-121443750D02*
X172878750Y-121443750D01*
X86742494Y-133041774D02*
X87095868Y-132688400D01*
D28*
X180500000Y-136000000D02*
X178500000Y-138000000D01*
D27*
X106550000Y-130968750D02*
X108585000Y-130968750D01*
X63580454Y-139886664D02*
X64796718Y-139886664D01*
X64796718Y-139886664D02*
X65492729Y-139190653D01*
X56543750Y-111918750D02*
X58578750Y-111918750D01*
D28*
X180500000Y-53500000D02*
X180500000Y-136000000D01*
D27*
X125600000Y-130968750D02*
X127635000Y-130968750D01*
X85091784Y-133041774D02*
X86742494Y-133041774D01*
D29*
X142000000Y-36500000D02*
X145000000Y-36500000D01*
X144256250Y-37243750D02*
X144256250Y-39060000D01*
X153000000Y-36500000D02*
X145000000Y-36500000D01*
X140809000Y-37691000D02*
X142000000Y-36500000D01*
X155238500Y-38738500D02*
X153000000Y-36500000D01*
X158160000Y-38738500D02*
X155238500Y-38738500D01*
X133350000Y-36440000D02*
X134601000Y-37691000D01*
X134601000Y-37691000D02*
X140809000Y-37691000D01*
X145000000Y-36500000D02*
X144256250Y-37243750D01*
D27*
X52000000Y-129000000D02*
X48800000Y-125800000D01*
D28*
X67850000Y-54150000D02*
X67850000Y-65612500D01*
D27*
X48800000Y-125800000D02*
X48800000Y-122762500D01*
X67850000Y-125150000D02*
X64000000Y-129000000D01*
X64000000Y-129000000D02*
X52000000Y-129000000D01*
X67850000Y-65612500D02*
X67850000Y-122762500D01*
X67850000Y-122762500D02*
X67850000Y-125150000D01*
X86900000Y-118000000D02*
X86900000Y-124100000D01*
X86900000Y-60850000D02*
X86900000Y-118000000D01*
X65993669Y-141006331D02*
X60419041Y-146580959D01*
D28*
X86900000Y-48900000D02*
X86900000Y-60850000D01*
D27*
X69993669Y-141006331D02*
X65993669Y-141006331D01*
X60419041Y-146580959D02*
X60419041Y-151632731D01*
X86900000Y-124100000D02*
X69993669Y-141006331D01*
X105950000Y-121050000D02*
X92000000Y-135000000D01*
D28*
X127500000Y-45500000D02*
X119000000Y-37000000D01*
D27*
X79419354Y-141580646D02*
X79419354Y-144993751D01*
X105950000Y-51325000D02*
X105950000Y-108475000D01*
D28*
X105950000Y-38050000D02*
X105950000Y-51325000D01*
X119000000Y-37000000D02*
X107000000Y-37000000D01*
D27*
X92000000Y-135000000D02*
X86000000Y-135000000D01*
X86000000Y-135000000D02*
X79419354Y-141580646D01*
D28*
X151143870Y-45500000D02*
X127500000Y-45500000D01*
X157082370Y-51438500D02*
X151143870Y-45500000D01*
D27*
X105950000Y-108475000D02*
X105950000Y-121050000D01*
D28*
X107000000Y-37000000D02*
X105950000Y-38050000D01*
X158160000Y-51438500D02*
X157082370Y-51438500D01*
D27*
X99282500Y-139217500D02*
X99282500Y-141812500D01*
X125000000Y-118000000D02*
X125000000Y-123000000D01*
D28*
X140000000Y-49500000D02*
X137500000Y-47000000D01*
D27*
X125000000Y-60850000D02*
X125000000Y-118000000D01*
X114000000Y-134000000D02*
X104500000Y-134000000D01*
D28*
X158160000Y-48898500D02*
X161500000Y-52238500D01*
X126500000Y-47000000D02*
X125000000Y-48500000D01*
D27*
X125000000Y-123000000D02*
X114000000Y-134000000D01*
D28*
X161500000Y-58000000D02*
X147000000Y-58000000D01*
X161500000Y-52238500D02*
X161500000Y-58000000D01*
X137500000Y-47000000D02*
X126500000Y-47000000D01*
X147000000Y-58000000D02*
X140000000Y-51000000D01*
X125000000Y-48500000D02*
X125000000Y-60850000D01*
D27*
X104500000Y-134000000D02*
X99282500Y-139217500D01*
D28*
X140000000Y-51000000D02*
X140000000Y-49500000D01*
D27*
X118332500Y-140167500D02*
X118332500Y-141812500D01*
X119500000Y-140645000D02*
X118332500Y-141812500D01*
X144050000Y-75137500D02*
X144050000Y-132287500D01*
X136712500Y-132287500D02*
X135000000Y-134000000D01*
D28*
X162500000Y-50698500D02*
X162500000Y-64000000D01*
D27*
X124500000Y-134000000D02*
X118332500Y-140167500D01*
X144050000Y-132287500D02*
X136712500Y-132287500D01*
D28*
X144050000Y-69450000D02*
X144050000Y-75137500D01*
X158160000Y-46358500D02*
X162500000Y-50698500D01*
X162500000Y-64000000D02*
X158500000Y-68000000D01*
X145500000Y-68000000D02*
X144050000Y-69450000D01*
X147000000Y-68000000D02*
X145500000Y-68000000D01*
D27*
X135000000Y-134000000D02*
X124500000Y-134000000D01*
X163100000Y-75137500D02*
X163100000Y-132287500D01*
D28*
X158160000Y-43818500D02*
X163100000Y-48758500D01*
X163100000Y-48758500D02*
X163100000Y-75137500D01*
D29*
X150018750Y-49028750D02*
X150018750Y-56172500D01*
X148018750Y-49028750D02*
X148018750Y-56172500D01*
D27*
X70008750Y-54768750D02*
X72043750Y-54768750D01*
X72043750Y-54768750D02*
X72043750Y-62484091D01*
X77749000Y-65811500D02*
X79750000Y-67812500D01*
X72043750Y-62484091D02*
X75371159Y-65811500D01*
X75371159Y-65811500D02*
X77749000Y-65811500D01*
X72043750Y-81534091D02*
X75371159Y-84861500D01*
X72043750Y-73818750D02*
X72043750Y-81534091D01*
X75371159Y-84861500D02*
X77749000Y-84861500D01*
X77749000Y-84861500D02*
X79750000Y-86862500D01*
X70008750Y-73818750D02*
X72043750Y-73818750D01*
X77749000Y-103911500D02*
X79750000Y-105912500D01*
X72043750Y-92868750D02*
X72043750Y-100584091D01*
X75371159Y-103911500D02*
X77749000Y-103911500D01*
X70008750Y-92868750D02*
X72043750Y-92868750D01*
X72043750Y-100584091D02*
X75371159Y-103911500D01*
X72043750Y-119634091D02*
X75371159Y-122961500D01*
X70008750Y-111918750D02*
X72043750Y-111918750D01*
X72043750Y-111918750D02*
X72043750Y-119634091D01*
X77749000Y-122961500D02*
X79750000Y-124962500D01*
X75371159Y-122961500D02*
X77749000Y-122961500D01*
X50958750Y-111918750D02*
X52993750Y-111918750D01*
X56321159Y-122961500D02*
X58699000Y-122961500D01*
X52993750Y-119634091D02*
X56321159Y-122961500D01*
X52993750Y-111918750D02*
X52993750Y-119634091D01*
X58699000Y-122961500D02*
X60700000Y-124962500D01*
X91093750Y-50006250D02*
X91093750Y-57721591D01*
X91093750Y-57721591D02*
X94421159Y-61049000D01*
X94421159Y-61049000D02*
X96799000Y-61049000D01*
X89058750Y-50006250D02*
X91093750Y-50006250D01*
X96799000Y-61049000D02*
X98800000Y-63050000D01*
X91093750Y-76771591D02*
X94421159Y-80099000D01*
X91093750Y-69056250D02*
X91093750Y-76771591D01*
X94421159Y-80099000D02*
X96799000Y-80099000D01*
X96799000Y-80099000D02*
X98800000Y-82100000D01*
X89058750Y-69056250D02*
X91093750Y-69056250D01*
X94421159Y-99149000D02*
X96799000Y-99149000D01*
X91093750Y-95821591D02*
X94421159Y-99149000D01*
X96799000Y-99149000D02*
X98800000Y-101150000D01*
X89058750Y-88106250D02*
X91093750Y-88106250D01*
X91093750Y-88106250D02*
X91093750Y-95821591D01*
X96799000Y-118199000D02*
X98800000Y-120200000D01*
X94421159Y-118199000D02*
X96799000Y-118199000D01*
X91093750Y-114871591D02*
X94421159Y-118199000D01*
X91093750Y-107156250D02*
X91093750Y-114871591D01*
X89058750Y-107156250D02*
X91093750Y-107156250D01*
X60244546Y-143244546D02*
X61000000Y-144000000D01*
X69500000Y-148843186D02*
X71566999Y-148843186D01*
X71566999Y-148843186D02*
X72353828Y-149630015D01*
X60244546Y-141100836D02*
X60244546Y-143244546D01*
X58332271Y-141796847D02*
X59548535Y-141796847D01*
X59548535Y-141796847D02*
X60244546Y-141100836D01*
X108108750Y-40481249D02*
X110143750Y-40481249D01*
X113524000Y-51524000D02*
X115849000Y-51524000D01*
X115849000Y-51524000D02*
X117850000Y-53525000D01*
X110143750Y-48143750D02*
X113524000Y-51524000D01*
X110143750Y-40481249D02*
X110143750Y-48143750D01*
X109537500Y-59531250D02*
X109537500Y-67537500D01*
X109537500Y-67537500D02*
X112299000Y-70299000D01*
X107502500Y-59531250D02*
X109537500Y-59531250D01*
X112299000Y-70299000D02*
X115574000Y-70299000D01*
X115574000Y-70299000D02*
X117850000Y-72575000D01*
X109537500Y-86037501D02*
X113123999Y-89624000D01*
X107502500Y-78581250D02*
X109537500Y-78581250D01*
X109537500Y-78581250D02*
X109537500Y-86037501D01*
X115849000Y-89624000D02*
X117850000Y-91625000D01*
X113123999Y-89624000D02*
X115849000Y-89624000D01*
X108108750Y-97631250D02*
X110143750Y-97631250D01*
X113471159Y-108674000D02*
X115849000Y-108674000D01*
X110143750Y-97631250D02*
X110143750Y-105346591D01*
X110143750Y-105346591D02*
X113471159Y-108674000D01*
X115849000Y-108674000D02*
X117850000Y-110675000D01*
X88573595Y-143735265D02*
X90161942Y-143735265D01*
X81595716Y-133658226D02*
X81595716Y-137404284D01*
X90161942Y-143735265D02*
X91520592Y-145093915D01*
X79591632Y-134011600D02*
X81242342Y-134011600D01*
X81242342Y-134011600D02*
X81595716Y-133658226D01*
X81595716Y-137404284D02*
X81500000Y-137500000D01*
X129193750Y-50006250D02*
X129193750Y-57721591D01*
X127158750Y-50006250D02*
X129193750Y-50006250D01*
X134899000Y-61049000D02*
X136900000Y-63050000D01*
X132521159Y-61049000D02*
X134899000Y-61049000D01*
X129193750Y-57721591D02*
X132521159Y-61049000D01*
X129193750Y-77693750D02*
X131599000Y-80099000D01*
X129193750Y-69056250D02*
X129193750Y-77693750D01*
X134899000Y-80099000D02*
X136900000Y-82100000D01*
X131599000Y-80099000D02*
X134899000Y-80099000D01*
X127158750Y-69056250D02*
X129193750Y-69056250D01*
X134899000Y-99149000D02*
X136900000Y-101150000D01*
X129193750Y-95821591D02*
X132521159Y-99149000D01*
X127158750Y-88106250D02*
X129193750Y-88106250D01*
X132521159Y-99149000D02*
X134899000Y-99149000D01*
X129193750Y-88106250D02*
X129193750Y-95821591D01*
X132521159Y-118199000D02*
X134899000Y-118199000D01*
X127158750Y-107156250D02*
X129193750Y-107156250D01*
X129193750Y-114871591D02*
X132521159Y-118199000D01*
X134899000Y-118199000D02*
X136900000Y-120200000D01*
X129193750Y-107156250D02*
X129193750Y-114871591D01*
X100965000Y-130968750D02*
X103000000Y-130968750D01*
X109170000Y-142000000D02*
X111182500Y-144012500D01*
X108500000Y-142000000D02*
X109170000Y-142000000D01*
X103000000Y-130968750D02*
X103000000Y-133500000D01*
X148243750Y-72009091D02*
X151571159Y-75336500D01*
X146208750Y-64293750D02*
X148243750Y-64293750D01*
X153949000Y-75336500D02*
X155950000Y-77337500D01*
X148243750Y-64293750D02*
X148243750Y-72009091D01*
X151571159Y-75336500D02*
X153949000Y-75336500D01*
X148243750Y-91743750D02*
X150886500Y-94386500D01*
X150886500Y-94386500D02*
X153949000Y-94386500D01*
X146208750Y-83343750D02*
X148243750Y-83343750D01*
X148243750Y-83343750D02*
X148243750Y-91743750D01*
X153949000Y-94386500D02*
X155950000Y-96387500D01*
X148243750Y-110109091D02*
X151571159Y-113436500D01*
X146208750Y-102393750D02*
X148243750Y-102393750D01*
X148243750Y-102393750D02*
X148243750Y-110109091D01*
X153949000Y-113436500D02*
X155950000Y-115437500D01*
X151571159Y-113436500D02*
X153949000Y-113436500D01*
X148243750Y-128743750D02*
X151986500Y-132486500D01*
X148243750Y-121443750D02*
X148243750Y-128743750D01*
X151986500Y-132486500D02*
X153949000Y-132486500D01*
X153949000Y-132486500D02*
X155950000Y-134487500D01*
X146208750Y-121443750D02*
X148243750Y-121443750D01*
X127001965Y-141987545D02*
X128207545Y-141987545D01*
X122050000Y-133950000D02*
X122000000Y-134000000D01*
X128207545Y-141987545D02*
X130232500Y-144012500D01*
X120015000Y-130968750D02*
X122050000Y-130968750D01*
X122050000Y-130968750D02*
X122050000Y-133950000D01*
X165258750Y-64293750D02*
X167293750Y-64293750D01*
X167293750Y-72009091D02*
X170621159Y-75336500D01*
X172999000Y-75336500D02*
X175000000Y-77337500D01*
X170621159Y-75336500D02*
X172999000Y-75336500D01*
X167293750Y-64293750D02*
X167293750Y-72009091D01*
X170621159Y-94386500D02*
X172999000Y-94386500D01*
X172999000Y-94386500D02*
X175000000Y-96387500D01*
X167293750Y-91059091D02*
X170621159Y-94386500D01*
X165258750Y-83343750D02*
X167293750Y-83343750D01*
X167293750Y-83343750D02*
X167293750Y-91059091D01*
X172999000Y-113436500D02*
X175000000Y-115437500D01*
X167293750Y-110109091D02*
X170621159Y-113436500D01*
X165258750Y-102393750D02*
X167293750Y-102393750D01*
X167293750Y-102393750D02*
X167293750Y-110109091D01*
X170621159Y-113436500D02*
X172999000Y-113436500D01*
X172969159Y-132456659D02*
X175000000Y-134487500D01*
X167293750Y-130301409D02*
X169449000Y-132456659D01*
X169449000Y-132456659D02*
X172969159Y-132456659D01*
X167293750Y-121443750D02*
X167293750Y-130301409D01*
X165258750Y-121443750D02*
X167293750Y-121443750D01*
M02*
