M48
; DRILL file {KiCad 9.0.6} date 2025-12-07T22:10:17+0900
; FORMAT={-:-/ absolute / metric / decimal}
; #@! TF.CreationDate,2025-12-07T22:10:17+09:00
; #@! TF.GenerationSoftware,Kicad,Pcbnew,9.0.6
; #@! TF.FileFunction,Plated,1,2,PTH
FMAT,2
METRIC
; #@! TA.AperFunction,Plated,PTH,ViaDrill
T1C0.300
; #@! TA.AperFunction,Plated,PTH,ComponentDrill
T2C0.800
; #@! TA.AperFunction,Plated,PTH,ComponentDrill
T3C0.813
; #@! TA.AperFunction,Plated,PTH,ComponentDrill
T4C0.889
; #@! TA.AperFunction,Plated,PTH,ComponentDrill
T5C1.000
%
G90
G05
T1
X61.0Y-144.0
X67.85Y-54.15
X69.5Y-148.843
X81.5Y-137.5
X86.9Y-48.9
X88.574Y-143.735
X103.0Y-133.5
X108.5Y-142.0
X122.0Y-134.0
X127.002Y-141.988
X147.0Y-68.0
X158.5Y-68.0
X176.5Y-38.0
X177.5Y-40.5
X178.5Y-43.0
X178.5Y-138.0
X179.5Y-46.0
X180.5Y-53.5
T2
X130.81Y-36.44
X130.81Y-44.06
X133.35Y-36.44
X133.35Y-44.06
X135.89Y-36.44
X135.89Y-44.06
T3
X50.959Y-111.919
X58.332Y-141.797
X58.579Y-111.919
X65.493Y-139.191
X70.009Y-54.769
X70.009Y-73.819
X70.009Y-92.869
X70.009Y-111.919
X77.629Y-54.769
X77.629Y-73.819
X77.629Y-92.869
X77.629Y-111.919
X79.592Y-134.012
X87.096Y-132.688
X89.059Y-50.006
X89.059Y-69.056
X89.059Y-88.106
X89.059Y-107.156
X96.679Y-50.006
X96.679Y-69.056
X96.679Y-88.106
X96.679Y-107.156
X100.965Y-130.969
X107.502Y-59.531
X107.502Y-78.581
X108.109Y-40.481
X108.109Y-97.631
X108.585Y-130.969
X115.122Y-59.531
X115.122Y-78.581
X115.729Y-40.481
X115.729Y-97.631
X120.015Y-130.969
X127.159Y-50.006
X127.159Y-69.056
X127.159Y-88.106
X127.159Y-107.156
X127.635Y-130.969
X134.779Y-50.006
X134.779Y-69.056
X134.779Y-88.106
X134.779Y-107.156
X146.209Y-64.294
X146.209Y-83.344
X146.209Y-102.394
X146.209Y-121.444
X153.829Y-64.294
X153.829Y-83.344
X153.829Y-102.394
X153.829Y-121.444
X165.259Y-64.294
X165.259Y-83.344
X165.259Y-102.394
X165.259Y-121.444
X172.879Y-64.294
X172.879Y-83.344
X172.879Y-102.394
X172.879Y-121.444
T4
X158.16Y-36.38
X158.16Y-38.92
X158.16Y-41.46
X158.16Y-44.0
X158.16Y-46.54
X158.16Y-49.08
X158.16Y-51.62
X173.4Y-36.38
X173.4Y-38.92
X173.4Y-41.46
X173.4Y-44.0
X173.4Y-46.54
X173.4Y-49.08
X173.4Y-51.62
T5
X144.256Y-39.06
X146.256Y-39.06
X148.019Y-49.029
X148.019Y-56.172
X150.019Y-49.029
X150.019Y-56.172
M30
