%TF.GenerationSoftware,KiCad,Pcbnew,9.0.6*%
%TF.CreationDate,2025-12-07T22:19:06+09:00*%
%TF.ProjectId,tarakkie_v1_light_bot2,74617261-6b6b-4696-955f-76315f6c6967,rev?*%
%TF.SameCoordinates,Original*%
%TF.FileFunction,Drillmap*%
%TF.FilePolarity,Positive*%
%FSLAX45Y45*%
G04 Gerber Fmt 4.5, Leading zero omitted, Abs format (unit mm)*
G04 Created by KiCad (PCBNEW 9.0.6) date 2025-12-07 22:19:06*
%MOMM*%
%LPD*%
G01*
G04 APERTURE LIST*
%ADD10C,0.050000*%
%ADD11C,0.200000*%
G04 APERTURE END LIST*
D10*
X5595382Y-15990801D02*
G75*
G02*
X5340259Y-15874382I-68352J187962D01*
G01*
X18072452Y-3188618D02*
G75*
G02*
X18272283Y-3388617I-172J-200002D01*
G01*
X7937324Y-15139186D02*
G75*
G02*
X7972000Y-15130000I68346J-187954D01*
G01*
X3623932Y-11393414D02*
X5340266Y-15874380D01*
X7972000Y-15130000D02*
X9825617Y-14813399D01*
X18272280Y-14608831D02*
G75*
G02*
X18072322Y-14808830I-200000J1D01*
G01*
X3613958Y-3380077D02*
X3612280Y-11326147D01*
X5595382Y-15990801D02*
X7937324Y-15139186D01*
X18072452Y-3188618D02*
X3814077Y-3180119D01*
X3613958Y-3380077D02*
G75*
G02*
X3814077Y-3180118I200002J-43D01*
G01*
X9859248Y-14810544D02*
X18072322Y-14808831D01*
X3623932Y-11393414D02*
G75*
G02*
X3612281Y-11326147I188288J67254D01*
G01*
X9825617Y-14813399D02*
G75*
G02*
X9859248Y-14810544I33673J-197151D01*
G01*
X18272280Y-14608831D02*
X18272280Y-3388617D01*
D11*
X3870557Y-16316828D02*
X3870557Y-16116828D01*
X3870557Y-16116828D02*
X3918176Y-16116828D01*
X3918176Y-16116828D02*
X3946747Y-16126351D01*
X3946747Y-16126351D02*
X3965795Y-16145399D01*
X3965795Y-16145399D02*
X3975319Y-16164447D01*
X3975319Y-16164447D02*
X3984843Y-16202542D01*
X3984843Y-16202542D02*
X3984843Y-16231113D01*
X3984843Y-16231113D02*
X3975319Y-16269209D01*
X3975319Y-16269209D02*
X3965795Y-16288256D01*
X3965795Y-16288256D02*
X3946747Y-16307304D01*
X3946747Y-16307304D02*
X3918176Y-16316828D01*
X3918176Y-16316828D02*
X3870557Y-16316828D01*
X4070557Y-16316828D02*
X4070557Y-16183494D01*
X4070557Y-16221590D02*
X4080081Y-16202542D01*
X4080081Y-16202542D02*
X4089604Y-16193018D01*
X4089604Y-16193018D02*
X4108652Y-16183494D01*
X4108652Y-16183494D02*
X4127700Y-16183494D01*
X4194366Y-16316828D02*
X4194366Y-16183494D01*
X4194366Y-16116828D02*
X4184843Y-16126351D01*
X4184843Y-16126351D02*
X4194366Y-16135875D01*
X4194366Y-16135875D02*
X4203890Y-16126351D01*
X4203890Y-16126351D02*
X4194366Y-16116828D01*
X4194366Y-16116828D02*
X4194366Y-16135875D01*
X4318176Y-16316828D02*
X4299128Y-16307304D01*
X4299128Y-16307304D02*
X4289605Y-16288256D01*
X4289605Y-16288256D02*
X4289605Y-16116828D01*
X4422938Y-16316828D02*
X4403890Y-16307304D01*
X4403890Y-16307304D02*
X4394366Y-16288256D01*
X4394366Y-16288256D02*
X4394366Y-16116828D01*
X4651509Y-16316828D02*
X4651509Y-16116828D01*
X4651509Y-16116828D02*
X4718176Y-16259685D01*
X4718176Y-16259685D02*
X4784843Y-16116828D01*
X4784843Y-16116828D02*
X4784843Y-16316828D01*
X4965795Y-16316828D02*
X4965795Y-16212066D01*
X4965795Y-16212066D02*
X4956271Y-16193018D01*
X4956271Y-16193018D02*
X4937224Y-16183494D01*
X4937224Y-16183494D02*
X4899128Y-16183494D01*
X4899128Y-16183494D02*
X4880081Y-16193018D01*
X4965795Y-16307304D02*
X4946747Y-16316828D01*
X4946747Y-16316828D02*
X4899128Y-16316828D01*
X4899128Y-16316828D02*
X4880081Y-16307304D01*
X4880081Y-16307304D02*
X4870557Y-16288256D01*
X4870557Y-16288256D02*
X4870557Y-16269209D01*
X4870557Y-16269209D02*
X4880081Y-16250161D01*
X4880081Y-16250161D02*
X4899128Y-16240637D01*
X4899128Y-16240637D02*
X4946747Y-16240637D01*
X4946747Y-16240637D02*
X4965795Y-16231113D01*
X5061033Y-16183494D02*
X5061033Y-16383494D01*
X5061033Y-16193018D02*
X5080081Y-16183494D01*
X5080081Y-16183494D02*
X5118176Y-16183494D01*
X5118176Y-16183494D02*
X5137224Y-16193018D01*
X5137224Y-16193018D02*
X5146747Y-16202542D01*
X5146747Y-16202542D02*
X5156271Y-16221590D01*
X5156271Y-16221590D02*
X5156271Y-16278732D01*
X5156271Y-16278732D02*
X5146747Y-16297780D01*
X5146747Y-16297780D02*
X5137224Y-16307304D01*
X5137224Y-16307304D02*
X5118176Y-16316828D01*
X5118176Y-16316828D02*
X5080081Y-16316828D01*
X5080081Y-16316828D02*
X5061033Y-16307304D01*
X5241986Y-16297780D02*
X5251509Y-16307304D01*
X5251509Y-16307304D02*
X5241986Y-16316828D01*
X5241986Y-16316828D02*
X5232462Y-16307304D01*
X5232462Y-16307304D02*
X5241986Y-16297780D01*
X5241986Y-16297780D02*
X5241986Y-16316828D01*
X5241986Y-16193018D02*
X5251509Y-16202542D01*
X5251509Y-16202542D02*
X5241986Y-16212066D01*
X5241986Y-16212066D02*
X5232462Y-16202542D01*
X5232462Y-16202542D02*
X5241986Y-16193018D01*
X5241986Y-16193018D02*
X5241986Y-16212066D01*
M02*
