G04 #@! TF.GenerationSoftware,KiCad,Pcbnew,9.0.6*
G04 #@! TF.CreationDate,2025-12-07T22:23:37+09:00*
G04 #@! TF.ProjectId,tarakkie_v1_left,74617261-6b6b-4696-955f-76315f6c6566,rev?*
G04 #@! TF.SameCoordinates,Original*
G04 #@! TF.FileFunction,Profile,NP*
%FSLAX46Y46*%
G04 Gerber Fmt 4.6, Leading zero omitted, Abs format (unit mm)*
G04 Created by KiCad (PCBNEW 9.0.6) date 2025-12-07 22:23:37*
%MOMM*%
%LPD*%
G01*
G04 APERTURE LIST*
G04 #@! TA.AperFunction,Profile*
%ADD10C,0.050000*%
G04 #@! TD*
G04 #@! TA.AperFunction,Profile*
%ADD11C,0.100000*%
G04 #@! TD*
G04 APERTURE END LIST*
D10*
X185483484Y-119646247D02*
X168320146Y-164455906D01*
X155162500Y-37500000D02*
G75*
G02*
X157162500Y-39500000I0J-2000000D01*
G01*
X159162500Y-110000000D02*
X183600000Y-110000000D01*
X168320146Y-164455906D02*
G75*
G02*
X165769000Y-165620057I-1867646J715406D01*
G01*
X39000000Y-39598279D02*
G75*
G02*
X40998278Y-37598301I2000000J-21D01*
G01*
X142002801Y-157012104D02*
X123466628Y-153846091D01*
X185600000Y-112000000D02*
X185600000Y-118973574D01*
X40998278Y-37598280D02*
X155162500Y-37500000D01*
X123130318Y-153817541D02*
X40999583Y-153800417D01*
X157162500Y-39500000D02*
X157162500Y-108000000D01*
X183600000Y-110000000D02*
G75*
G02*
X185600000Y-112000000I0J-2000000D01*
G01*
X40999583Y-153800417D02*
G75*
G02*
X38999983Y-151800417I417J2000017D01*
G01*
X142002801Y-157012104D02*
G75*
G02*
X142349561Y-157103965I-336701J-1971396D01*
G01*
X165768977Y-165620119D02*
X142349560Y-157103967D01*
X39000000Y-151800417D02*
X39000000Y-39598279D01*
X185600000Y-118973574D02*
G75*
G02*
X185483476Y-119646244I-1999700J-26D01*
G01*
X123130318Y-153817541D02*
G75*
G02*
X123466628Y-153846090I-418J-2000059D01*
G01*
X159162500Y-110000000D02*
G75*
G02*
X157162500Y-108000000I0J2000000D01*
G01*
D11*
X162800000Y-160900000D02*
X164000000Y-163050000D01*
X164000000Y-158750000D02*
X162800000Y-160900000D01*
X164000000Y-163050000D02*
X166400000Y-163050000D01*
X166400000Y-158750000D02*
X164000000Y-158750000D01*
X166400000Y-163050000D02*
X167600000Y-160900000D01*
X167600000Y-160900000D02*
X166400000Y-158750000D01*
X150000000Y-43160000D02*
X151200000Y-45310000D01*
X151200000Y-41010000D02*
X150000000Y-43160000D01*
X151200000Y-45310000D02*
X153600000Y-45310000D01*
X153600000Y-41010000D02*
X151200000Y-41010000D01*
X153600000Y-45310000D02*
X154800000Y-43160000D01*
X154800000Y-43160000D02*
X153600000Y-41010000D01*
X41000000Y-148600000D02*
X42200000Y-150750000D01*
X42200000Y-146450000D02*
X41000000Y-148600000D01*
X42200000Y-150750000D02*
X44600000Y-150750000D01*
X44600000Y-146450000D02*
X42200000Y-146450000D01*
X44600000Y-150750000D02*
X45800000Y-148600000D01*
X45800000Y-148600000D02*
X44600000Y-146450000D01*
X178290000Y-115360000D02*
X179490000Y-117510000D01*
X179490000Y-113210000D02*
X178290000Y-115360000D01*
X179490000Y-117510000D02*
X181890000Y-117510000D01*
X181890000Y-113210000D02*
X179490000Y-113210000D01*
X181890000Y-117510000D02*
X183090000Y-115360000D01*
X183090000Y-115360000D02*
X181890000Y-113210000D01*
X40800000Y-62200000D02*
X42000000Y-64350000D01*
X42000000Y-60050000D02*
X40800000Y-62200000D01*
X42000000Y-64350000D02*
X44400000Y-64350000D01*
X44400000Y-60050000D02*
X42000000Y-60050000D01*
X44400000Y-64350000D02*
X45600000Y-62200000D01*
X45600000Y-62200000D02*
X44400000Y-60050000D01*
M02*
