G04 #@! TF.GenerationSoftware,KiCad,Pcbnew,9.0.6*
G04 #@! TF.CreationDate,2025-12-07T22:23:37+09:00*
G04 #@! TF.ProjectId,tarakkie_v1_left,74617261-6b6b-4696-955f-76315f6c6566,rev?*
G04 #@! TF.SameCoordinates,Original*
G04 #@! TF.FileFunction,Soldermask,Bot*
G04 #@! TF.FilePolarity,Negative*
%FSLAX46Y46*%
G04 Gerber Fmt 4.6, Leading zero omitted, Abs format (unit mm)*
G04 Created by KiCad (PCBNEW 9.0.6) date 2025-12-07 22:23:37*
%MOMM*%
%LPD*%
G01*
G04 APERTURE LIST*
G04 Aperture macros list*
%AMRoundRect*
0 Rectangle with rounded corners*
0 $1 Rounding radius*
0 $2 $3 $4 $5 $6 $7 $8 $9 X,Y pos of 4 corners*
0 Add a 4 corners polygon primitive as box body*
4,1,4,$2,$3,$4,$5,$6,$7,$8,$9,$2,$3,0*
0 Add four circle primitives for the rounded corners*
1,1,$1+$1,$2,$3*
1,1,$1+$1,$4,$5*
1,1,$1+$1,$6,$7*
1,1,$1+$1,$8,$9*
0 Add four rect primitives between the rounded corners*
20,1,$1+$1,$2,$3,$4,$5,0*
20,1,$1+$1,$4,$5,$6,$7,0*
20,1,$1+$1,$6,$7,$8,$9,0*
20,1,$1+$1,$8,$9,$2,$3,0*%
%AMRotRect*
0 Rectangle, with rotation*
0 The origin of the aperture is its center*
0 $1 length*
0 $2 width*
0 $3 Rotation angle, in degrees counterclockwise*
0 Add horizontal line*
21,1,$1,$2,0,0,$3*%
G04 Aperture macros list end*
%ADD10R,1.397000X1.397000*%
%ADD11R,1.300000X0.950000*%
%ADD12C,1.397000*%
%ADD13C,3.000000*%
%ADD14C,4.800000*%
%ADD15C,1.000000*%
%ADD16R,3.000000X3.500000*%
%ADD17RotRect,1.397000X1.397000X170.000000*%
%ADD18RotRect,1.300000X0.950000X170.000000*%
%ADD19RotRect,3.000000X3.500000X160.000000*%
%ADD20RotRect,1.397000X1.397000X160.000000*%
%ADD21RotRect,1.300000X0.950000X160.000000*%
%ADD22RotRect,3.000000X3.500000X170.000000*%
%ADD23O,1.700000X1.700000*%
%ADD24C,1.524000*%
%ADD25RoundRect,0.152400X-1.063600X-0.609600X1.063600X-0.609600X1.063600X0.609600X-1.063600X0.609600X0*%
%ADD26RoundRect,0.152400X1.063600X0.609600X-1.063600X0.609600X-1.063600X-0.609600X1.063600X-0.609600X0*%
%ADD27RoundRect,0.250000X0.550000X-0.550000X0.550000X0.550000X-0.550000X0.550000X-0.550000X-0.550000X0*%
%ADD28C,1.600000*%
G04 APERTURE END LIST*
D10*
X89535000Y-92868750D03*
D11*
X87500000Y-92868750D03*
X83950000Y-92868750D03*
D12*
X81915000Y-92868750D03*
D10*
X113347500Y-138112500D03*
D11*
X111312500Y-138112500D03*
X107762500Y-138112500D03*
D12*
X105727500Y-138112500D03*
D10*
X146685000Y-116681250D03*
D11*
X144650000Y-116681250D03*
X141100000Y-116681250D03*
D12*
X139065000Y-116681250D03*
D13*
X89773750Y-147527500D03*
D14*
X94773750Y-143827500D03*
D13*
X94773750Y-149727500D03*
D15*
X99773750Y-138277500D03*
D16*
X86423750Y-147527500D03*
X98323750Y-149727500D03*
D10*
X94297500Y-138112500D03*
D11*
X92262500Y-138112500D03*
X88712500Y-138112500D03*
D12*
X86677500Y-138112500D03*
D13*
X140256250Y-89425000D03*
D14*
X145256250Y-85725000D03*
D13*
X145256250Y-91625000D03*
D15*
X150256250Y-80175000D03*
D16*
X136906250Y-89425000D03*
X148806250Y-91625000D03*
D13*
X45006250Y-79900000D03*
D14*
X50006250Y-76200000D03*
D13*
X50006250Y-82100000D03*
D15*
X55006250Y-70650000D03*
D16*
X41656250Y-79900000D03*
X53556250Y-82100000D03*
D10*
X70485000Y-88106250D03*
D11*
X68450000Y-88106250D03*
X64900000Y-88106250D03*
D12*
X62865000Y-88106250D03*
D13*
X102156250Y-113237500D03*
D14*
X107156250Y-109537500D03*
D13*
X107156250Y-115437500D03*
D15*
X112156250Y-103987500D03*
D16*
X98806250Y-113237500D03*
X110706250Y-115437500D03*
D13*
X140256250Y-108475000D03*
D14*
X145256250Y-104775000D03*
D13*
X145256250Y-110675000D03*
D15*
X150256250Y-99225000D03*
D16*
X136906250Y-108475000D03*
X148806250Y-110675000D03*
D13*
X45006250Y-118000000D03*
D14*
X50006250Y-114300000D03*
D13*
X50006250Y-120200000D03*
D15*
X55006250Y-108750000D03*
D16*
X41656250Y-118000000D03*
X53556250Y-120200000D03*
D10*
X88928750Y-73818750D03*
D11*
X86893750Y-73818750D03*
X83343750Y-73818750D03*
D12*
X81308750Y-73818750D03*
D13*
X64056250Y-137050000D03*
D14*
X69056250Y-133350000D03*
D13*
X69056250Y-139250000D03*
D15*
X74056250Y-127800000D03*
D16*
X60706250Y-137050000D03*
X72606250Y-139250000D03*
D10*
X127635000Y-54768750D03*
D11*
X125600000Y-54768750D03*
X122050000Y-54768750D03*
D12*
X120015000Y-54768750D03*
D13*
X108823750Y-147527500D03*
D14*
X113823750Y-143827500D03*
D13*
X113823750Y-149727500D03*
D15*
X118823750Y-138277500D03*
D16*
X105473750Y-147527500D03*
X117373750Y-149727500D03*
D17*
X136468904Y-139082326D03*
D18*
X134464818Y-138728952D03*
X130968750Y-138112500D03*
D12*
X128964664Y-137759126D03*
D13*
X159306250Y-127525000D03*
D14*
X164306250Y-123825000D03*
D13*
X164306250Y-129725000D03*
D15*
X169306250Y-118275000D03*
D16*
X155956250Y-127525000D03*
X167856250Y-129725000D03*
D13*
X83106250Y-65612500D03*
D14*
X88106250Y-61912500D03*
D13*
X88106250Y-67812500D03*
D15*
X93106250Y-56362500D03*
D16*
X79756250Y-65612500D03*
X91656250Y-67812500D03*
D10*
X108585000Y-64293750D03*
D11*
X106550000Y-64293750D03*
X103000000Y-64293750D03*
D12*
X100965000Y-64293750D03*
D13*
X148536063Y-152786761D03*
D14*
X154500000Y-151020000D03*
D13*
X152482081Y-156564187D03*
D15*
X161096675Y-147514807D03*
D19*
X145388092Y-151640995D03*
X155817990Y-157778358D03*
D13*
X102156250Y-94187500D03*
D14*
X107156250Y-90487500D03*
D13*
X107156250Y-96387500D03*
D15*
X112156250Y-84937500D03*
D16*
X98806250Y-94187500D03*
X110706250Y-96387500D03*
D10*
X146685000Y-59531250D03*
D11*
X144650000Y-59531250D03*
X141100000Y-59531250D03*
D12*
X139065000Y-59531250D03*
D13*
X140256250Y-127525000D03*
D14*
X145256250Y-123825000D03*
D13*
X145256250Y-129725000D03*
D15*
X150256250Y-118275000D03*
D16*
X136906250Y-127525000D03*
X148806250Y-129725000D03*
D13*
X83106250Y-84662500D03*
D14*
X88106250Y-80962500D03*
D13*
X88106250Y-86862500D03*
D15*
X93106250Y-75412500D03*
D16*
X79756250Y-84662500D03*
X91656250Y-86862500D03*
D13*
X64056250Y-98950000D03*
D14*
X69056250Y-95250000D03*
D13*
X69056250Y-101150000D03*
D15*
X74056250Y-89700000D03*
D16*
X60706250Y-98950000D03*
X72606250Y-101150000D03*
D10*
X70485000Y-107156250D03*
D11*
X68450000Y-107156250D03*
X64900000Y-107156250D03*
D12*
X62865000Y-107156250D03*
D13*
X45006250Y-98950000D03*
D14*
X50006250Y-95250000D03*
D13*
X50006250Y-101150000D03*
D15*
X55006250Y-89700000D03*
D16*
X41656250Y-98950000D03*
X53556250Y-101150000D03*
D10*
X165735000Y-116681250D03*
D11*
X163700000Y-116681250D03*
X160150000Y-116681250D03*
D12*
X158115000Y-116681250D03*
D10*
X70485000Y-126206250D03*
D11*
X68450000Y-126206250D03*
X64900000Y-126206250D03*
D12*
X62865000Y-126206250D03*
D13*
X45006250Y-137050000D03*
D14*
X50006250Y-133350000D03*
D13*
X50006250Y-139250000D03*
D15*
X55006250Y-127800000D03*
D16*
X41656250Y-137050000D03*
X53556250Y-139250000D03*
D10*
X51435000Y-126206250D03*
D11*
X49400000Y-126206250D03*
X45850000Y-126206250D03*
D12*
X43815000Y-126206250D03*
D13*
X102156250Y-56087500D03*
D14*
X107156250Y-52387500D03*
D13*
X107156250Y-58287500D03*
D15*
X112156250Y-46837500D03*
D16*
X98806250Y-56087500D03*
X110706250Y-58287500D03*
D13*
X140256250Y-70375000D03*
D14*
X145256250Y-66675000D03*
D13*
X145256250Y-72575000D03*
D15*
X150256250Y-61125000D03*
D16*
X136906250Y-70375000D03*
X148806250Y-72575000D03*
D10*
X89535000Y-111918750D03*
D11*
X87500000Y-111918750D03*
X83950000Y-111918750D03*
D12*
X81915000Y-111918750D03*
D10*
X127635000Y-73818750D03*
D11*
X125600000Y-73818750D03*
X122050000Y-73818750D03*
D12*
X120015000Y-73818750D03*
D10*
X108585000Y-45243750D03*
D11*
X106550000Y-45243750D03*
X103000000Y-45243750D03*
D12*
X100965000Y-45243750D03*
D13*
X83106250Y-122762500D03*
D14*
X88106250Y-119062500D03*
D13*
X88106250Y-124962500D03*
D15*
X93106250Y-113512500D03*
D16*
X79756250Y-122762500D03*
X91656250Y-124962500D03*
D13*
X121206250Y-103712500D03*
D14*
X126206250Y-100012500D03*
D13*
X126206250Y-105912500D03*
D15*
X131206250Y-94462500D03*
D16*
X117856250Y-103712500D03*
X129756250Y-105912500D03*
D13*
X83106250Y-103712500D03*
D14*
X88106250Y-100012500D03*
D13*
X88106250Y-105912500D03*
D15*
X93106250Y-94462500D03*
D16*
X79756250Y-103712500D03*
X91656250Y-105912500D03*
D10*
X127635000Y-92868750D03*
D11*
X125600000Y-92868750D03*
X122050000Y-92868750D03*
D12*
X120015000Y-92868750D03*
D10*
X70485000Y-69056250D03*
D11*
X68450000Y-69056250D03*
X64900000Y-69056250D03*
D12*
X62865000Y-69056250D03*
D10*
X146685000Y-78581250D03*
D11*
X144650000Y-78581250D03*
X141100000Y-78581250D03*
D12*
X139065000Y-78581250D03*
D13*
X64056250Y-118000000D03*
D14*
X69056250Y-114300000D03*
D13*
X69056250Y-120200000D03*
D15*
X74056250Y-108750000D03*
D16*
X60706250Y-118000000D03*
X72606250Y-120200000D03*
D10*
X51435000Y-69056250D03*
D11*
X49400000Y-69056250D03*
X45850000Y-69056250D03*
D12*
X43815000Y-69056250D03*
D10*
X88928750Y-54768750D03*
D11*
X86893750Y-54768750D03*
X83343750Y-54768750D03*
D12*
X81308750Y-54768750D03*
D10*
X127635000Y-111918750D03*
D11*
X125600000Y-111918750D03*
X122050000Y-111918750D03*
D12*
X120015000Y-111918750D03*
D10*
X108585000Y-102393750D03*
D11*
X106550000Y-102393750D03*
X103000000Y-102393750D03*
D12*
X100965000Y-102393750D03*
D20*
X158361479Y-144178097D03*
D21*
X156449204Y-143482086D03*
X153113296Y-142267914D03*
D12*
X151201021Y-141571903D03*
D10*
X51435000Y-88106250D03*
D11*
X49400000Y-88106250D03*
X45850000Y-88106250D03*
D12*
X43815000Y-88106250D03*
D13*
X128903463Y-148415548D03*
D14*
X134470000Y-145640000D03*
D13*
X133445476Y-151450366D03*
D15*
X140357786Y-141042557D03*
D22*
X125604357Y-147833827D03*
X136941543Y-152066817D03*
D13*
X102156250Y-75137500D03*
D14*
X107156250Y-71437500D03*
D13*
X107156250Y-77337500D03*
D15*
X112156250Y-65887500D03*
D16*
X98806250Y-75137500D03*
X110706250Y-77337500D03*
D13*
X121206250Y-122762500D03*
D14*
X126206250Y-119062500D03*
D13*
X126206250Y-124962500D03*
D15*
X131206250Y-113512500D03*
D16*
X117856250Y-122762500D03*
X129756250Y-124962500D03*
D13*
X121206250Y-84662500D03*
D14*
X126206250Y-80962500D03*
D13*
X126206250Y-86862500D03*
D15*
X131206250Y-75412500D03*
D16*
X117856250Y-84662500D03*
X129756250Y-86862500D03*
D10*
X51435000Y-107156250D03*
D11*
X49400000Y-107156250D03*
X45850000Y-107156250D03*
D12*
X43815000Y-107156250D03*
D13*
X121206250Y-65612500D03*
D14*
X126206250Y-61912500D03*
D13*
X126206250Y-67812500D03*
D15*
X131206250Y-56362500D03*
D16*
X117856250Y-65612500D03*
X129756250Y-67812500D03*
D10*
X108585000Y-83343750D03*
D11*
X106550000Y-83343750D03*
X103000000Y-83343750D03*
D12*
X100965000Y-83343750D03*
D10*
X146685000Y-97631250D03*
D11*
X144650000Y-97631250D03*
X141100000Y-97631250D03*
D12*
X139065000Y-97631250D03*
D13*
X64056250Y-79900000D03*
D14*
X69056250Y-76200000D03*
D13*
X69056250Y-82100000D03*
D15*
X74056250Y-70650000D03*
D16*
X60706250Y-79900000D03*
X72606250Y-82100000D03*
D23*
X78600000Y-44800000D03*
X76600000Y-44800000D03*
X72437500Y-61912500D03*
X70437500Y-61912500D03*
D24*
X63210000Y-42128500D03*
D25*
X64045000Y-42128500D03*
D24*
X63210000Y-44668500D03*
D25*
X64045000Y-44668500D03*
D24*
X63210000Y-47208500D03*
D25*
X64045000Y-47208500D03*
D24*
X63210000Y-49748500D03*
D25*
X64045000Y-49748500D03*
D24*
X63210000Y-52288500D03*
D25*
X64045000Y-52288500D03*
D24*
X63210000Y-54828500D03*
D25*
X64045000Y-54828500D03*
D24*
X63210000Y-57368500D03*
D25*
X64045000Y-57368500D03*
D26*
X47135000Y-57368500D03*
D24*
X47970000Y-57368500D03*
D26*
X47135000Y-54828500D03*
D24*
X47970000Y-54828500D03*
D26*
X47135000Y-52288500D03*
D24*
X47970000Y-52288500D03*
D26*
X47135000Y-49748500D03*
D24*
X47970000Y-49748500D03*
D26*
X47135000Y-47208500D03*
D24*
X47970000Y-47208500D03*
D26*
X47135000Y-44668500D03*
D24*
X47970000Y-44668500D03*
D26*
X47135000Y-42128500D03*
D24*
X47970000Y-42128500D03*
D27*
X92140000Y-49800000D03*
D28*
X89600000Y-49800000D03*
X87060000Y-49800000D03*
X87060000Y-42180000D03*
X89600000Y-42180000D03*
X92140000Y-42180000D03*
D23*
X72437500Y-54768750D03*
X70437500Y-54768750D03*
M02*
