G04 #@! TF.GenerationSoftware,KiCad,Pcbnew,9.0.6*
G04 #@! TF.CreationDate,2025-12-07T22:23:37+09:00*
G04 #@! TF.ProjectId,tarakkie_v1_left,74617261-6b6b-4696-955f-76315f6c6566,rev?*
G04 #@! TF.SameCoordinates,Original*
G04 #@! TF.FileFunction,Soldermask,Top*
G04 #@! TF.FilePolarity,Negative*
%FSLAX46Y46*%
G04 Gerber Fmt 4.6, Leading zero omitted, Abs format (unit mm)*
G04 Created by KiCad (PCBNEW 9.0.6) date 2025-12-07 22:23:37*
%MOMM*%
%LPD*%
G01*
G04 APERTURE LIST*
G04 Aperture macros list*
%AMRoundRect*
0 Rectangle with rounded corners*
0 $1 Rounding radius*
0 $2 $3 $4 $5 $6 $7 $8 $9 X,Y pos of 4 corners*
0 Add a 4 corners polygon primitive as box body*
4,1,4,$2,$3,$4,$5,$6,$7,$8,$9,$2,$3,0*
0 Add four circle primitives for the rounded corners*
1,1,$1+$1,$2,$3*
1,1,$1+$1,$4,$5*
1,1,$1+$1,$6,$7*
1,1,$1+$1,$8,$9*
0 Add four rect primitives between the rounded corners*
20,1,$1+$1,$2,$3,$4,$5,0*
20,1,$1+$1,$4,$5,$6,$7,0*
20,1,$1+$1,$6,$7,$8,$9,0*
20,1,$1+$1,$8,$9,$2,$3,0*%
%AMRotRect*
0 Rectangle, with rotation*
0 The origin of the aperture is its center*
0 $1 length*
0 $2 width*
0 $3 Rotation angle, in degrees counterclockwise*
0 Add horizontal line*
21,1,$1,$2,0,0,$3*%
G04 Aperture macros list end*
%ADD10R,1.397000X1.397000*%
%ADD11C,1.397000*%
%ADD12C,3.000000*%
%ADD13C,4.800000*%
%ADD14C,1.000000*%
%ADD15RotRect,1.397000X1.397000X170.000000*%
%ADD16RotRect,1.397000X1.397000X160.000000*%
%ADD17O,1.700000X1.700000*%
%ADD18C,1.524000*%
%ADD19RoundRect,0.250000X0.550000X-0.550000X0.550000X0.550000X-0.550000X0.550000X-0.550000X-0.550000X0*%
%ADD20C,1.600000*%
G04 APERTURE END LIST*
D10*
X89535000Y-92868750D03*
D11*
X81915000Y-92868750D03*
D10*
X113347500Y-138112500D03*
D11*
X105727500Y-138112500D03*
D10*
X146685000Y-116681250D03*
D11*
X139065000Y-116681250D03*
D12*
X89773750Y-147527500D03*
D13*
X94773750Y-143827500D03*
D12*
X94773750Y-149727500D03*
D14*
X99773750Y-138277500D03*
D10*
X94297500Y-138112500D03*
D11*
X86677500Y-138112500D03*
D12*
X140256250Y-89425000D03*
D13*
X145256250Y-85725000D03*
D12*
X145256250Y-91625000D03*
D14*
X150256250Y-80175000D03*
D12*
X45006250Y-79900000D03*
D13*
X50006250Y-76200000D03*
D12*
X50006250Y-82100000D03*
D14*
X55006250Y-70650000D03*
D10*
X70485000Y-88106250D03*
D11*
X62865000Y-88106250D03*
D12*
X102156250Y-113237500D03*
D13*
X107156250Y-109537500D03*
D12*
X107156250Y-115437500D03*
D14*
X112156250Y-103987500D03*
D12*
X140256250Y-108475000D03*
D13*
X145256250Y-104775000D03*
D12*
X145256250Y-110675000D03*
D14*
X150256250Y-99225000D03*
D12*
X45006250Y-118000000D03*
D13*
X50006250Y-114300000D03*
D12*
X50006250Y-120200000D03*
D14*
X55006250Y-108750000D03*
D10*
X88928750Y-73818750D03*
D11*
X81308750Y-73818750D03*
D12*
X64056250Y-137050000D03*
D13*
X69056250Y-133350000D03*
D12*
X69056250Y-139250000D03*
D14*
X74056250Y-127800000D03*
D10*
X127635000Y-54768750D03*
D11*
X120015000Y-54768750D03*
D12*
X108823750Y-147527500D03*
D13*
X113823750Y-143827500D03*
D12*
X113823750Y-149727500D03*
D14*
X118823750Y-138277500D03*
D15*
X136468904Y-139082326D03*
D11*
X128964664Y-137759126D03*
D12*
X159306250Y-127525000D03*
D13*
X164306250Y-123825000D03*
D12*
X164306250Y-129725000D03*
D14*
X169306250Y-118275000D03*
D12*
X83106250Y-65612500D03*
D13*
X88106250Y-61912500D03*
D12*
X88106250Y-67812500D03*
D14*
X93106250Y-56362500D03*
D10*
X108585000Y-64293750D03*
D11*
X100965000Y-64293750D03*
D12*
X148536063Y-152786761D03*
D13*
X154500000Y-151020000D03*
D12*
X152482081Y-156564187D03*
D14*
X161096675Y-147514807D03*
D12*
X102156250Y-94187500D03*
D13*
X107156250Y-90487500D03*
D12*
X107156250Y-96387500D03*
D14*
X112156250Y-84937500D03*
D10*
X146685000Y-59531250D03*
D11*
X139065000Y-59531250D03*
D12*
X140256250Y-127525000D03*
D13*
X145256250Y-123825000D03*
D12*
X145256250Y-129725000D03*
D14*
X150256250Y-118275000D03*
D12*
X83106250Y-84662500D03*
D13*
X88106250Y-80962500D03*
D12*
X88106250Y-86862500D03*
D14*
X93106250Y-75412500D03*
D12*
X64056250Y-98950000D03*
D13*
X69056250Y-95250000D03*
D12*
X69056250Y-101150000D03*
D14*
X74056250Y-89700000D03*
D10*
X70485000Y-107156250D03*
D11*
X62865000Y-107156250D03*
D12*
X45006250Y-98950000D03*
D13*
X50006250Y-95250000D03*
D12*
X50006250Y-101150000D03*
D14*
X55006250Y-89700000D03*
D10*
X165735000Y-116681250D03*
D11*
X158115000Y-116681250D03*
D10*
X70485000Y-126206250D03*
D11*
X62865000Y-126206250D03*
D12*
X45006250Y-137050000D03*
D13*
X50006250Y-133350000D03*
D12*
X50006250Y-139250000D03*
D14*
X55006250Y-127800000D03*
D10*
X51435000Y-126206250D03*
D11*
X43815000Y-126206250D03*
D12*
X102156250Y-56087500D03*
D13*
X107156250Y-52387500D03*
D12*
X107156250Y-58287500D03*
D14*
X112156250Y-46837500D03*
D12*
X140256250Y-70375000D03*
D13*
X145256250Y-66675000D03*
D12*
X145256250Y-72575000D03*
D14*
X150256250Y-61125000D03*
D10*
X89535000Y-111918750D03*
D11*
X81915000Y-111918750D03*
D10*
X127635000Y-73818750D03*
D11*
X120015000Y-73818750D03*
D10*
X108585000Y-45243750D03*
D11*
X100965000Y-45243750D03*
D12*
X83106250Y-122762500D03*
D13*
X88106250Y-119062500D03*
D12*
X88106250Y-124962500D03*
D14*
X93106250Y-113512500D03*
D12*
X121206250Y-103712500D03*
D13*
X126206250Y-100012500D03*
D12*
X126206250Y-105912500D03*
D14*
X131206250Y-94462500D03*
D12*
X83106250Y-103712500D03*
D13*
X88106250Y-100012500D03*
D12*
X88106250Y-105912500D03*
D14*
X93106250Y-94462500D03*
D10*
X127635000Y-92868750D03*
D11*
X120015000Y-92868750D03*
D10*
X70485000Y-69056250D03*
D11*
X62865000Y-69056250D03*
D10*
X146685000Y-78581250D03*
D11*
X139065000Y-78581250D03*
D12*
X64056250Y-118000000D03*
D13*
X69056250Y-114300000D03*
D12*
X69056250Y-120200000D03*
D14*
X74056250Y-108750000D03*
D10*
X51435000Y-69056250D03*
D11*
X43815000Y-69056250D03*
D10*
X88928750Y-54768750D03*
D11*
X81308750Y-54768750D03*
D10*
X127635000Y-111918750D03*
D11*
X120015000Y-111918750D03*
D10*
X108585000Y-102393750D03*
D11*
X100965000Y-102393750D03*
D16*
X158361479Y-144178097D03*
D11*
X151201021Y-141571903D03*
D10*
X51435000Y-88106250D03*
D11*
X43815000Y-88106250D03*
D12*
X128903463Y-148415548D03*
D13*
X134470000Y-145640000D03*
D12*
X133445476Y-151450366D03*
D14*
X140357786Y-141042557D03*
D12*
X102156250Y-75137500D03*
D13*
X107156250Y-71437500D03*
D12*
X107156250Y-77337500D03*
D14*
X112156250Y-65887500D03*
D12*
X121206250Y-122762500D03*
D13*
X126206250Y-119062500D03*
D12*
X126206250Y-124962500D03*
D14*
X131206250Y-113512500D03*
D12*
X121206250Y-84662500D03*
D13*
X126206250Y-80962500D03*
D12*
X126206250Y-86862500D03*
D14*
X131206250Y-75412500D03*
D10*
X51435000Y-107156250D03*
D11*
X43815000Y-107156250D03*
D12*
X121206250Y-65612500D03*
D13*
X126206250Y-61912500D03*
D12*
X126206250Y-67812500D03*
D14*
X131206250Y-56362500D03*
D10*
X108585000Y-83343750D03*
D11*
X100965000Y-83343750D03*
D10*
X146685000Y-97631250D03*
D11*
X139065000Y-97631250D03*
D12*
X64056250Y-79900000D03*
D13*
X69056250Y-76200000D03*
D12*
X69056250Y-82100000D03*
D14*
X74056250Y-70650000D03*
D17*
X78600000Y-44800000D03*
X76600000Y-44800000D03*
X72437500Y-61912500D03*
X70437500Y-61912500D03*
D18*
X63210000Y-42128500D03*
X63210000Y-44668500D03*
X63210000Y-47208500D03*
X63210000Y-49748500D03*
X63210000Y-52288500D03*
X63210000Y-54828500D03*
X63210000Y-57368500D03*
X47970000Y-57368500D03*
X47970000Y-54828500D03*
X47970000Y-52288500D03*
X47970000Y-49748500D03*
X47970000Y-47208500D03*
X47970000Y-44668500D03*
X47970000Y-42128500D03*
D19*
X92140000Y-49800000D03*
D20*
X89600000Y-49800000D03*
X87060000Y-49800000D03*
X87060000Y-42180000D03*
X89600000Y-42180000D03*
X92140000Y-42180000D03*
D17*
X72437500Y-54768750D03*
X70437500Y-54768750D03*
M02*
