M48
; DRILL file {KiCad 9.0.6} date 2025-12-07T22:23:54+0900
; FORMAT={-:-/ absolute / metric / decimal}
; #@! TF.CreationDate,2025-12-07T22:23:54+09:00
; #@! TF.GenerationSoftware,Kicad,Pcbnew,9.0.6
; #@! TF.FileFunction,NonPlated,1,2,NPTH
FMAT,2
METRIC
; #@! TA.AperFunction,NonPlated,NPTH,ComponentDrill
T1C1.000
; #@! TA.AperFunction,NonPlated,NPTH,ComponentDrill
T2C3.000
; #@! TA.AperFunction,NonPlated,NPTH,ComponentDrill
T3C4.800
%
G90
G05
T1
X55.006Y-70.65
X55.006Y-89.7
X55.006Y-108.75
X55.006Y-127.8
X74.056Y-70.65
X74.056Y-89.7
X74.056Y-108.75
X74.056Y-127.8
X93.106Y-56.362
X93.106Y-75.412
X93.106Y-94.462
X93.106Y-113.512
X99.774Y-138.278
X112.156Y-46.837
X112.156Y-65.888
X112.156Y-84.938
X112.156Y-103.987
X118.824Y-138.278
X131.206Y-56.362
X131.206Y-75.412
X131.206Y-94.462
X131.206Y-113.512
X140.358Y-141.043
X150.256Y-61.125
X150.256Y-80.175
X150.256Y-99.225
X150.256Y-118.275
X161.097Y-147.515
X169.306Y-118.275
T2
X45.006Y-79.9
X45.006Y-98.95
X45.006Y-118.0
X45.006Y-137.05
X50.006Y-82.1
X50.006Y-101.15
X50.006Y-120.2
X50.006Y-139.25
X64.056Y-79.9
X64.056Y-98.95
X64.056Y-118.0
X64.056Y-137.05
X69.056Y-82.1
X69.056Y-101.15
X69.056Y-120.2
X69.056Y-139.25
X83.106Y-65.612
X83.106Y-84.662
X83.106Y-103.712
X83.106Y-122.762
X88.106Y-67.812
X88.106Y-86.862
X88.106Y-105.912
X88.106Y-124.962
X89.774Y-147.528
X94.774Y-149.727
X102.156Y-56.087
X102.156Y-75.138
X102.156Y-94.188
X102.156Y-113.237
X107.156Y-58.287
X107.156Y-77.337
X107.156Y-96.387
X107.156Y-115.438
X108.824Y-147.528
X113.824Y-149.727
X121.206Y-65.612
X121.206Y-84.662
X121.206Y-103.712
X121.206Y-122.762
X126.206Y-67.812
X126.206Y-86.862
X126.206Y-105.912
X126.206Y-124.962
X128.903Y-148.416
X133.445Y-151.45
X140.256Y-70.375
X140.256Y-89.425
X140.256Y-108.475
X140.256Y-127.525
X145.256Y-72.575
X145.256Y-91.625
X145.256Y-110.675
X145.256Y-129.725
X148.536Y-152.787
X152.482Y-156.564
X159.306Y-127.525
X164.306Y-129.725
T3
X50.006Y-76.2
X50.006Y-95.25
X50.006Y-114.3
X50.006Y-133.35
X69.056Y-76.2
X69.056Y-95.25
X69.056Y-114.3
X69.056Y-133.35
X88.106Y-61.912
X88.106Y-80.962
X88.106Y-100.012
X88.106Y-119.062
X94.774Y-143.827
X107.156Y-52.387
X107.156Y-71.438
X107.156Y-90.487
X107.156Y-109.537
X113.824Y-143.827
X126.206Y-61.912
X126.206Y-80.962
X126.206Y-100.012
X126.206Y-119.062
X134.47Y-145.64
X145.256Y-66.675
X145.256Y-85.725
X145.256Y-104.775
X145.256Y-123.825
X154.5Y-151.02
X164.306Y-123.825
M30
