M48
; DRILL file {KiCad 9.0.6} date 2025-12-07T22:23:54+0900
; FORMAT={-:-/ absolute / metric / decimal}
; #@! TF.CreationDate,2025-12-07T22:23:54+09:00
; #@! TF.GenerationSoftware,Kicad,Pcbnew,9.0.6
; #@! TF.FileFunction,Plated,1,2,PTH
FMAT,2
METRIC
; #@! TA.AperFunction,Plated,PTH,ViaDrill
T1C0.300
; #@! TA.AperFunction,Plated,PTH,ComponentDrill
T2C0.800
; #@! TA.AperFunction,Plated,PTH,ComponentDrill
T3C0.813
; #@! TA.AperFunction,Plated,PTH,ComponentDrill
T4C0.889
; #@! TA.AperFunction,Plated,PTH,ComponentDrill
T5C1.000
%
G90
G05
T1
X42.862Y-142.875
X52.387Y-73.819
X53.5Y-111.0
X53.5Y-129.5
X54.5Y-92.0
X61.912Y-142.875
X65.65Y-92.0
X66.0Y-111.0
X66.0Y-129.5
X66.675Y-73.819
X73.5Y-106.5
X73.819Y-69.056
X74.4Y-65.6
X74.5Y-87.5
X74.5Y-125.0
X80.962Y-133.35
X83.344Y-147.637
X84.094Y-57.0
X84.094Y-77.5
X85.0Y-96.5
X85.0Y-114.5
X91.5Y-54.5
X91.6Y-52.8
X92.5Y-73.0
X93.0Y-92.0
X93.0Y-111.0
X102.394Y-133.35
X102.394Y-145.256
X104.0Y-47.5
X104.0Y-68.0
X104.0Y-87.0
X104.0Y-105.5
X110.0Y-68.0
X110.5Y-87.5
X110.5Y-107.0
X113.5Y-45.5
X117.0Y-47.8
X119.5Y-71.5
X121.444Y-147.637
X122.5Y-90.5
X123.0Y-52.5
X123.675Y-110.0
X129.5Y-115.0
X132.0Y-39.5
X133.0Y-74.5
X133.0Y-94.0
X133.8Y-40.125
X134.5Y-55.5
X135.4Y-40.75
X136.2Y-55.8
X137.0Y-41.375
X138.6Y-42.0
X141.5Y-76.0
X142.875Y-147.637
X143.0Y-58.0
X143.0Y-96.0
X143.0Y-115.0
T2
X87.06Y-42.18
X87.06Y-49.8
X89.6Y-42.18
X89.6Y-49.8
X92.14Y-42.18
X92.14Y-49.8
T3
X43.815Y-69.056
X43.815Y-88.106
X43.815Y-107.156
X43.815Y-126.206
X51.435Y-69.056
X51.435Y-88.106
X51.435Y-107.156
X51.435Y-126.206
X62.865Y-69.056
X62.865Y-88.106
X62.865Y-107.156
X62.865Y-126.206
X70.485Y-69.056
X70.485Y-88.106
X70.485Y-107.156
X70.485Y-126.206
X81.309Y-54.769
X81.309Y-73.819
X81.915Y-92.869
X81.915Y-111.919
X86.677Y-138.112
X88.929Y-54.769
X88.929Y-73.819
X89.535Y-92.869
X89.535Y-111.919
X94.297Y-138.112
X100.965Y-45.244
X100.965Y-64.294
X100.965Y-83.344
X100.965Y-102.394
X105.727Y-138.112
X108.585Y-45.244
X108.585Y-64.294
X108.585Y-83.344
X108.585Y-102.394
X113.347Y-138.112
X120.015Y-54.769
X120.015Y-73.819
X120.015Y-92.869
X120.015Y-111.919
X127.635Y-54.769
X127.635Y-73.819
X127.635Y-92.869
X127.635Y-111.919
X128.965Y-137.759
X136.469Y-139.082
X139.065Y-59.531
X139.065Y-78.581
X139.065Y-97.631
X139.065Y-116.681
X146.685Y-59.531
X146.685Y-78.581
X146.685Y-97.631
X146.685Y-116.681
X151.201Y-141.572
X158.115Y-116.681
X158.361Y-144.178
X165.735Y-116.681
T4
X47.97Y-42.128
X47.97Y-44.668
X47.97Y-47.209
X47.97Y-49.748
X47.97Y-52.288
X47.97Y-54.828
X47.97Y-57.368
X63.21Y-42.128
X63.21Y-44.668
X63.21Y-47.209
X63.21Y-49.748
X63.21Y-52.288
X63.21Y-54.828
X63.21Y-57.368
T5
X70.438Y-54.769
X70.438Y-61.912
X72.438Y-54.769
X72.438Y-61.912
X76.6Y-44.8
X78.6Y-44.8
M30
